<?xml version="1.0" encoding="utf-8"?>
<!-- Generator: Adobe Illustrator 25.2.1, SVG Export Plug-In . SVG Version: 6.00 Build 0)  -->
<svg version="1.1" id="Layer_1" xmlns="http://www.w3.org/2000/svg" xmlns:xlink="http://www.w3.org/1999/xlink" x="0px" y="0px"
	 viewBox="0 0 500 128" enable-background="new 0 0 500 128" xml:space="preserve">
<path fill-rule="evenodd" clip-rule="evenodd" fill="#FFFDFD" d="M233.9,13.3c0-2.8-1.6-4.6-4.6-4.6h-20c-10.8,0-15.4,4.6-15.4,15.4
	v21.6c0,4.3-1.9,6.2-6.3,6.2h-26.1c-2.8,0-4.6,1.8-4.6,4.7c0,2.8,1.8,4.6,4.6,4.6h26.1c10.7,0,15.5-4.6,15.5-15.4V24.1
	c0-4.6,1.7-6.2,6.2-6.2h20C232.3,17.9,233.9,16.1,233.9,13.3"/>
<path fill-rule="evenodd" clip-rule="evenodd" fill="#FFFDFD" d="M73.6,8.6l-46.2,0C18.2,8.6,12,14.8,12,24.1v21.6
	C12,54.9,18.2,61,27.4,61h37c3.1,0,6.2-3.1,6.2-6.1l0-10.8c0-2.7-2-4.6-4.5-4.6c-2.9,0-4.7,1.8-4.7,4.6v7.7H27.4
	c-3.1,0-6.2-3.1-6.2-6.2V24.1c0-3.1,3.1-6.2,6.2-6.2l46.2,0c3.1,0,6.2,3.1,6.2,6.2v32.4c0,2.4,1.9,4.6,4.6,4.6
	c2.6,0,4.6-1.5,4.6-4.6V24.1C89,14.8,82.9,8.6,73.6,8.6"/>
<path fill-rule="evenodd" clip-rule="evenodd" fill="#FFFDFD" d="M243.2,45.6c0,10.8,4.5,15.4,15.4,15.4h57c2.8,0,4.6-1.8,4.6-4.6
	c0-2.8-1.8-4.6-4.6-4.6h-57.1c-4.6-0.1-6.2-1.7-6.2-6.2V24.1c0-4.6,1.7-6.2,6.2-6.2h46.2c4.3,0,6.2,1.6,6.2,6.2
	c0,4.6-1.6,6.2-6.2,6.2h-38.5c-3.1,0-4.6,1.6-4.6,4.6c0,3,1.6,4.6,4.6,4.6h38.5c10.9,0,15.4-4.6,15.4-15.4
	c0-10.8-4.6-15.4-15.4-15.4h-46.2c-11.1,0-15.4,4.6-15.4,15.4V45.6z"/>
<path fill-rule="evenodd" clip-rule="evenodd" fill="#FFFDFD" d="M329.5,45.6c0,10.8,4.5,15.4,15.4,15.4h51.8c2.8,0,4.6-1.8,4.6-4.6
	c0-2.8-1.6-4.6-4.6-4.6h-51.9c-4.6-0.1-6.2-1.7-6.2-6.2V24.1c0-4.5,1.5-6.1,6.2-6.2h51.7c2.8,0,4.6-1.8,4.6-4.6
	c0-2.8-1.8-4.6-4.6-4.6h-51.8c-10.9,0-15.4,4.6-15.4,15.4V45.6z"/>
<path fill-rule="evenodd" clip-rule="evenodd" fill="#FFFDFD" d="M411.5,45.6c0,10.8,4.5,15.5,15.4,15.5h46.2
	c10.9,0,15.4-4.7,15.4-15.5V24c0-10.8-4.5-15.3-15.4-15.3h-46.2c-10.9,0-15.4,4.6-15.4,15.3V45.6z M426.9,51.8
	c-4.6-0.1-6.2-1.7-6.2-6.2V24c0-4.5,1.5-6,6.2-6.1h46.2c4.6,0.1,6.2,1.7,6.2,6.2v21.5c0,4.5-1.5,6.2-6.2,6.2L426.9,51.8z"/>
<path fill-rule="evenodd" clip-rule="evenodd" fill="#FFFDFD" d="M175.3,13.3c0-2.8-1.6-4.6-4.6-4.6h-20c-10.8,0-15.4,4.6-15.4,15.4
	v21.6c0,4.3-1.9,6.2-6.3,6.2h-26.3c-2.8,0-4.5,1.8-4.5,4.7c0,2.8,1.7,4.6,4.5,4.6H129c10.7,0,15.5-4.6,15.5-15.4V24.1
	c0-4.6,1.7-6.2,6.2-6.2h20C173.7,17.9,175.3,16.1,175.3,13.3"/>
<g>
	<path fill="#FFFDFD" d="M172.1,92.5h7.8c5.1,0,8.7,3.2,8.7,8.1c0,4.8-3.7,8.2-8.6,8.2h-3.6v10.7h-4.3V92.5z M179.5,105.1
		c2.8,0,4.8-1.8,4.8-4.5c0-2.7-1.9-4.4-4.7-4.4h-3.1v8.9H179.5z"/>
	<path fill="#FFFDFD" d="M207.5,92c8.1,0,13.9,6.1,13.9,14c0,8-5.8,14-14,14c-8.1,0-13.9-6-13.9-14C193.6,98.1,199.4,92,207.5,92z
		 M207.5,116.1c5.4,0,9.5-4.2,9.5-10c0-5.7-4.1-10-9.5-10c-5.5,0-9.5,4.3-9.5,10C198.1,111.8,202.1,116.1,207.5,116.1z"/>
	<path fill="#FFFDFD" d="M228.3,92.5h4.3v23.2h9.5v3.9h-13.8V92.5z"/>
	<path fill="#FFFDFD" d="M253.2,111.7l-2.8,7.9H246l9.9-27.1h4.4l9.9,27.1h-4.3l-2.8-7.9H253.2z M258.1,97.1l-3.8,10.9h7.5
		L258.1,97.1z"/>
	<path fill="#FFFDFD" d="M276.1,92.5h4.3l13.3,20.3V92.5h4.2v27.1h-4.3l-13.3-20.2v20.2h-4.3V92.5z"/>
	<path fill="#FFFDFD" d="M306.2,92.5h6.4c9,0,14.4,5.1,14.4,13.5c0,8.8-5.5,13.5-14.4,13.5h-6.4V92.5z M313,115.8
		c5.8,0,9.5-3.3,9.5-9.8c0-6.2-3.8-9.7-9.5-9.7h-2.5v19.5H313z"/>
</g>
</svg>
