<?xml version="1.0" encoding="utf-8"?>
<!-- Generator: Adobe Illustrator 25.2.1, SVG Export Plug-In . SVG Version: 6.00 Build 0)  -->
<svg version="1.1" id="Warstwa_1" xmlns="http://www.w3.org/2000/svg" xmlns:xlink="http://www.w3.org/1999/xlink" x="0px" y="0px"
	 viewBox="0 0 570 434" enable-background="new 0 0 570 434" xml:space="preserve">
<path fill="#FFFFFF" d="M344.6,401.6L344.6,401.6c7.9,0,17-5.3,17-16.8v-99.6c0-7.9,4.9-12.1,12.7-12.1h44.9
	c10.1,0,17.4-8.5,17.4-17.4v-28.5c0-12.1-7.5-17.4-17.4-17.4H277.1v-134c0-16.4-7.9-24.7-22.2-24.7h-73c-14.8,0-28.5,5.3-35.4,19.4
	L63.1,245c-2.6,5.3-3.6,10.5-3.6,14.8c0,7.9,4.2,13.1,13.7,13.1h40.6c7.5,0,15.8-3.6,20.6-14.1l10.5-23.6c2.6-5.9,7.5-9.5,14.3-9.5
	h36c7.9,0,12.1,4.9,12.1,12.7v18c0,10.1,7.9,16.8,17.4,16.8h52.7c8.5,0,12.7,4.2,12.7,12.1v99.6c0,8.9,7.9,16.8,17,16.8L344.6,401.6
	L344.6,401.6L344.6,401.6z M199.9,183.3H176c-5.3,0-7.5-2-7.5-5.3c0-2.6,1-5.3,2.6-8.9l21.2-47.9c2-5.3,3.2-7.5,8.5-7.5
	s6.3,2.6,6.3,6.9v52.1C207.2,179.9,207.2,183.5,199.9,183.3L199.9,183.3L199.9,183.3z"/>
<path fill="#FFFFFF" d="M381.2,101.1c-6.9,0-11.1-4.2-11.1-11.7V63.1c0-7.5,4.2-11.7,11.1-11.7h120.4c6.3,0,11.1,4.2,11.1,11.7
	v112.4c0,9.7-4.2,13.9-11.7,13.9h-28.5c-7.5,0-11.7-4.9-11.7-11.3v-76.8h-79.6V101.1z"/>
</svg>
