<?xml version="1.0" encoding="utf-8"?>
<!-- Generator: Adobe Illustrator 25.2.1, SVG Export Plug-In . SVG Version: 6.00 Build 0)  -->
<svg version="1.1" id="Ebene_1" xmlns="http://www.w3.org/2000/svg" xmlns:xlink="http://www.w3.org/1999/xlink" x="0px" y="0px"
	 viewBox="0 0 665.2 90" enable-background="new 0 0 665.2 90" xml:space="preserve">
<path fill="#FFFFFF" d="M58.1,83.8C58,87.4,55,90.1,51.4,90H6.7c-3.4,0.3-6.4-2.3-6.7-5.7c-0.3-3.4,2.3-6.4,5.7-6.7c0.3,0,0.7,0,1,0
	h44.8C55,77.5,58,80.2,58.1,83.8"/>
<path fill="#FFFFFF" d="M627.9,25.3h-16.3c-10.4,0-19.4,1.1-26,4.6V0h-11.4v64.6c0,20.7,15.8,25.4,37.3,25.4h16.3
	c21.6,0,37.3-4.8,37.3-25.4V50.8C665.2,30.1,649.5,25.3,627.9,25.3z M653.9,63.9c0,14.6-9.3,17.5-22.5,17.5h-23.2
	c-13.2,0-22.5-2.8-22.5-17.5V51.4c0-14.6,9.3-17.5,22.5-17.5h23.2c13.2,0,22.5,2.8,22.5,17.5L653.9,63.9z"/>
<path fill="#FFFFFF" d="M528,25.3h-44.9v8.6H527c17.5,0,25.2,1.5,25.2,12.8V50h-42.6c-19.9,0-30.7,1.7-30.7,16v4.2
	c0,11.8,4.5,18.8,21.7,18.8h63V47C563.5,28.2,549.2,25.3,528,25.3z M552.2,80.4h-43.7c-15.6,0-18.3-2.9-18.3-10v-2
	c0-7.9,4.1-9.8,18.8-9.8h43.2L552.2,80.4z"/>
<rect x="457.3" fill="#FFFFFF" width="11.4" height="90"/>
<path fill="#FFFFFF" d="M80.7,51.6c0-14.3,7.4-18,27.3-18h15.7c14.3,0,20.1,1.7,20.8,11.3h11.4v-1.2c0-14.4-12.8-18.7-34-18.7h-20.7
	c-14.8,0-31.8,2.6-31.8,25.7V64c0,23.1,17,25.7,31.8,25.7h20.7c21.2,0,34-4.3,34-18.7v-1.2h-11.4c-0.7,9.6-6.5,11.3-20.8,11.3h-15.6
	c-19.9,0-27.3-3.7-27.3-17.9V51.6z"/>
<path fill="#FFFFFF" d="M446.1,59.5v-7c0-22.4-14.7-27.2-35.1-27.2h-18.3c-16.1,0-33.1,2.6-33.1,25.3v13.6c0,23.1,17,25.7,31.8,25.7
	H412c21.2,0,34-4.3,34-18.7v-1.2h-11.3c-0.7,9.6-6.5,11.3-20.8,11.3h-15.6c-19.9,0-27.3-3.7-27.3-18v-3.9H446.1z M394.3,33.9H411
	c18.5,0,23.7,6.4,23.7,12.8v4.2H371C372.1,36.6,376.3,33.9,394.3,33.9z"/>
<path fill="#FFFFFF" d="M339.8,0v29.9c-6.6-3.4-15.6-4.6-26-4.6h-16.3c-21.6,0-37.4,4.8-37.4,25.4v13.8c0,20.7,15.8,25.4,37.4,25.4
	h16.3c21.6,0,37.3-4.8,37.3-25.4V0H339.8z M339.8,60.4v3.6c0,14.6-9.3,17.5-22.5,17.5h-23.2c-13.2,0-22.5-2.8-22.5-17.5V51.4
	c0-14.6,9.3-17.5,22.5-17.5h23.2c13.2,0,22.5,2.8,22.5,17.5V60.4z"/>
<path fill="#FFFFFF" d="M219.6,25h-22.9c-14.8,0-31.8,2.6-31.8,25.7V64c0,23.1,17,25.7,31.8,25.7h22.9c14.8,0,31.8-2.6,31.8-25.7
	V50.7C251.3,27.6,234.4,25,219.6,25z M240,63.1c0,14.3-7.4,17.9-27.3,17.9h-9.1c-19.9,0-27.3-3.7-27.3-17.9V51.6
	c0-14.3,7.4-18,27.3-18h9.1c19.9,0,27.3,3.7,27.3,18V63.1z"/>
</svg>
