<?xml version="1.0" encoding="utf-8"?>
<!-- Generator: Adobe Illustrator 25.2.1, SVG Export Plug-In . SVG Version: 6.00 Build 0)  -->
<svg version="1.1" id="Layer_1" xmlns="http://www.w3.org/2000/svg" xmlns:xlink="http://www.w3.org/1999/xlink" x="0px" y="0px"
	 viewBox="0 0 500 150" enable-background="new 0 0 500 150" xml:space="preserve">
<path fill="#FFFFFF" d="M196.1,106l0.4-57.2c0-1.3,0.4-1.7,1.7-1.7l18.3,0.1c1.3,0,1.7,0.4,1.7,1.7l0,4.7c0,1.3-0.4,1.7-1.7,1.7
	l-9.6-0.1c-1.7,0-1.7,0-1.7,1.7l-0.1,13c0,1.7,0,1.7,1.7,1.7l6.9,0.1c1.3,0,1.7,0.4,1.7,1.7l0,4.7c0,1.3-0.4,1.7-1.7,1.7l-6.9-0.1
	c-1.7,0-1.7,0-1.7,1.7l-0.2,24.4c0,1.3-0.4,1.7-1.7,1.7l-5.2,0C196.6,107.7,196.1,107.3,196.1,106z M256.8,108.2
	c-1.1,0-1.6,0-1.9-1.3l-0.7-4.7c-0.3-1.7-0.3-1.7-1.9-1.7l-7.7-0.1c-1.6,0-1.6,0-2,1.7l-0.8,4.7c-0.3,1.3-0.8,1.3-1.9,1.3l-5.2,0
	c-0.9,0-1.7,0-1.5-1.5L244.5,49c0.3-1.3,0.5-1.6,1.9-1.5l4.7,0c1.4,0,1.6,0.3,1.9,1.6l10.5,57.7c0.2,1.5-0.6,1.5-1.5,1.5
	L256.8,108.2z M244.5,90.5c-0.3,1.7-0.3,1.7,1.5,1.7l4.8,0c1.7,0,1.7,0,1.5-1.7l-3.4-21.1c-0.1-0.4-0.6-0.4-0.7,0L244.5,90.5z
	 M309.8,64.1l0,2.8c-0.1,7.9-2.3,11.8-5.4,14.1l5,25.8c0.3,1.4-0.4,1.8-1.1,1.8l-5.5,0c-1.1,0-1.6,0-1.9-1.3l-4.2-23.3
	c-0.2-0.8-0.7-0.8-1-0.8l-1.6,0c-1.7,0-1.7,0-1.7,1.7l-0.2,21.9c0,1.3-0.4,1.7-1.7,1.7l-5.2,0c-1.3,0-1.7-0.4-1.7-1.7l0.4-57.2
	c0-1.3,0.4-1.7,1.7-1.7l11.3,0.1C304.1,47.9,309.9,52.1,309.8,64.1z M294.2,55.5c-1.7,0-1.7,0-1.7,1.7l-0.1,16.5
	c0,1.7,0,1.7,1.7,1.7l2.6,0c2.7,0,4.3-1.7,4.4-6.1l0.1-7.6c0-4.5-1.6-6.2-4.3-6.3L294.2,55.5z M344.9,108.9l-12.5-0.1
	c-1.3,0-1.7-0.4-1.7-1.7l0.4-57.2c0-1.3,0.4-1.7,1.7-1.7l12.5,0.1c7.2,0.1,13,4.2,12.9,14.8L358,94.2
	C358,104.9,352.1,108.9,344.9,108.9z M336.7,101.5c0,1.7,0,1.7,1.7,1.7l6.6,0.1c4.8,0,7.1-2.8,7.2-10.6l0.2-28.2
	c0.1-7.8-2.3-10.7-7-10.7l-6.6-0.1c-1.7,0-1.7,0-1.7,1.7L336.7,101.5z M401.1,109.3c-1.1,0-1.6,0-1.9-1.3l-1-6
	c-0.3-1.7-0.3-1.7-1.9-1.7l-10.7-0.1c-1.7,0-1.6,0-2,1.7l-1.1,6c-0.3,1.3-0.8,1.3-1.9,1.3l-2.6,0c-0.9,0-1.7,0-1.5-1.5l11.3-57.5
	c0.3-1.3,0.5-1.6,1.9-1.5l3.1,0c1.4,0,1.6,0.3,1.9,1.6l10.4,57.7c0.2,1.5-0.6,1.5-1.5,1.5L401.1,109.3z M385.4,92.9
	c-0.3,1.7-0.3,1.7,1.5,1.7l8.3,0.1c1.7,0,1.7,0,1.5-1.7l-5-30.8c-0.1-0.4-0.6-0.4-0.7,0L385.4,92.9z M422.7,48.8l22.5,0.2
	c1.3,0,1.7,0.4,1.7,1.7l0,2.1c0,1.3-0.4,1.7-1.7,1.7l-6.6-0.1c-1.7,0-1.7,0-1.7,1.7l-0.4,51.6c0,1.3-0.4,1.7-1.7,1.7l-2.4,0
	c-1.3,0-1.7-0.4-1.7-1.7l0.4-51.6c0-1.7,0-1.7-1.6-1.7l-6.7-0.1c-1.3,0-1.7-0.4-1.7-1.7l0-2.1C420.9,49.3,421.4,48.8,422.7,48.8z
	 M486.2,109.9c-1.1,0-1.6,0-1.9-1.3l-1-6c-0.3-1.7-0.3-1.7-1.9-1.7l-10.7-0.1c-1.7,0-1.6,0-2,1.7l-1.1,6c-0.3,1.3-0.8,1.3-1.9,1.3
	l-2.6,0c-0.9,0-1.7,0-1.5-1.5L473,50.8c0.3-1.3,0.5-1.6,1.9-1.5l3.1,0c1.4,0,1.6,0.3,1.9,1.6l10.4,57.7c0.2,1.5-0.6,1.5-1.5,1.5
	L486.2,109.9z M470.5,93.5c-0.3,1.7-0.3,1.7,1.5,1.7l8.3,0.1c1.7,0,1.7,0,1.5-1.7l-5-30.8c-0.1-0.4-0.6-0.4-0.7,0L470.5,93.5z"/>
<path fill="#FFFFFF" d="M143.2,88.3c-3.3,3.2-5,7.7-5,12.3v0.7c0,4.5,1.7,8.9,5,12c3.9,3.7,6.2,9.2,5.5,15.2
	c-0.9,8.2-7.6,14.9-15.8,15.8c-6,0.7-11.4-1.6-15.2-5.5c-3.1-3.3-7.5-5-12-5h-0.7c-4.6,0-9.1,1.7-12.3,5c-3.3,3.4-7.9,5.5-13,5.5
	c-10.3,0-18.6-8.6-18-19c0.5-9.4,8.4-16.9,17.8-17c5.2,0,9.9,2.1,13.2,5.6c3.1,3.3,7.5,5,12,5h1c4.6,0,8.9-2,12.2-5.2
	c0,0,0.1-0.1,0.1-0.1c3.3-3.2,5.2-7.6,5.2-12.2v-1c0-4.5-1.7-8.9-5-12c-3.5-3.3-5.6-8-5.6-13.2c0.1-9.4,7.6-17.3,17-17.8
	c10.4-0.6,19,7.7,19,18C148.7,80.5,146.6,85.1,143.2,88.3z M41.1,113.4c3.4,3.3,5.5,7.9,5.5,13c0,10.3-8.6,18.6-19,18
	c-9.4-0.5-16.9-8.4-17-17.8c0-5.1,2-9.6,5.3-12.9c3.4-3.4,5.3-8,5.3-12.8v0c0-4.8-1.8-9.4-5.2-12.7c-3.3-3.3-5.4-7.8-5.4-12.8
	c0-5,2.1-9.5,5.4-12.8c3.4-3.3,5.2-7.9,5.2-12.7v0c0-4.8-1.9-9.4-5.3-12.8c-3.7-3.7-5.8-9.1-5.2-14.9C11.6,14,18.3,7.3,26.5,6.4
	c5.8-0.7,11.2,1.4,14.9,5.2c3.4,3.4,8,5.3,12.8,5.3h0c4.8,0,9.4-1.8,12.7-5.2c3.3-3.3,7.8-5.4,12.8-5.4c5,0,9.5,2.1,12.8,5.4
	c3.3,3.4,7.9,5.2,12.7,5.2h0c4.8,0,9.4-1.8,12.7-5.2c3.3-3.3,7.8-5.4,12.8-5.4c10.3,0,18.6,8.6,18,19c-0.5,9.4-8.4,16.9-17.8,17
	c-5.2,0-9.9-2.1-13.2-5.6c-3.1-3.3-7.5-5-12-5h-1c-4.6,0-8.9,2-12.2,5.2c0,0-0.1,0.1-0.1,0.1c-3.3,3.2-5.2,7.6-5.2,12.2v1
	c0,4.5,1.7,8.9,5,12c3.9,3.7,6.2,9.2,5.5,15.2c-0.9,8.2-7.6,14.9-15.8,15.8c-6,0.7-11.4-1.6-15.2-5.5c-3.1-3.3-7.5-5-12-5h-1
	c-4.6,0-8.9,2-12.2,5.2c0,0-0.1,0.1-0.1,0.1c-3.3,3.2-5.2,7.6-5.2,12.2v0.8C36.1,105.7,37.8,110.2,41.1,113.4z M41.4,37
	C41.4,37,41.3,37.1,41.4,37c-3.4,3.3-5.3,7.7-5.3,12.3v1.1c0,4.6,2,8.9,5.2,12.2c0,0,0.1,0.1,0.1,0.1c3.2,3.3,7.6,5.2,12.2,5.2h1.1
	c4.6,0,8.9-2,12.2-5.2c0,0,0.1-0.1,0.1-0.1c3.3-3.2,5.2-7.6,5.2-12.2v-1.1c0-4.6-2-8.9-5.2-12.2c0,0-0.1-0.1-0.1-0.1
	c-3.2-3.3-7.6-5.2-12.2-5.2h-1.1C49,31.8,44.6,33.7,41.4,37z"/>
</svg>
