<?xml version="1.0" encoding="utf-8"?>
<!-- Generator: Adobe Illustrator 25.2.1, SVG Export Plug-In . SVG Version: 6.00 Build 0)  -->
<svg version="1.1" id="Layer_1" xmlns="http://www.w3.org/2000/svg" xmlns:xlink="http://www.w3.org/1999/xlink" x="0px" y="0px"
	 viewBox="0 0 194 70" enable-background="new 0 0 194 70" xml:space="preserve">
<g>
	<path fill="#FFFFFF" d="M48.9,15.1c0-0.5,0.1-0.6,0.5-0.6h11.4c0.6,0,0.7,0.1,0.7,0.8v3.8c0,0.5-0.3,0.5-0.7,0.5h-6.2
		c-0.2,0-0.2,0.1-0.2,0.3v11.5c0,0.2,0,0.3,0.2,0.3h5c0.5,0,0.6,0.1,0.6,0.7v3.8c0,0.5-0.1,0.7-0.5,0.7h-5.2c-0.2,0-0.2,0.1-0.2,0.3
		v6.9c0,0.4-0.2,0.5-0.5,0.5h-4.6c-0.3,0-0.4-0.2-0.4-0.5v-29H48.9z"/>
	<path fill="#FFFFFF" d="M73,31.7c0,0.1,0,0.3,0.2,0.3h0.9c2.8,0,4.5-2.7,4.5-6.3c0-3.7-1.4-6.2-4.4-6.2h-0.9
		c-0.3,0-0.3,0.1-0.3,0.2L73,31.7z M73.3,14.5c6.5,0,11,3.3,11,11.3c0,4.6-1.4,7.5-3.4,9.3l6,8.8c0.2,0.3,0.3,0.8-0.4,0.8h-5
		c-0.5,0-0.7-0.2-0.9-0.5l-4.7-7c-0.5,0-0.8,0-1.3,0h-1.1c-0.4,0-0.5,0.1-0.5,0.4v6.6c0,0.3-0.1,0.5-0.5,0.5h-4.8
		c-0.4,0-0.5-0.2-0.5-0.5v-29c0-0.5,0.1-0.6,0.5-0.6L73.3,14.5L73.3,14.5z"/>
	<path fill="#FFFFFF" d="M97,34h4.9l-2.4-9.2L97,34z M96.5,15.6c0.3-1,0.4-1.1,1.3-1.1h3.1c0.9,0,1.1,0,1.4,0.9l7.9,28
		c0.3,1,0.3,1.3-0.6,1.3h-4.3c-0.4,0-0.5-0.1-0.6-0.5l-1.2-4.4h-7.8l-1,3.9c-0.3,1-0.4,1.1-1.4,1.1H89c-0.5,0-0.7-0.2-0.5-0.9
		L96.5,15.6z"/>
	<path fill="#FFFFFF" d="M115.5,44.7c-0.5,0-0.6-0.1-0.6-0.7V15.2c0-0.6,0.1-0.7,0.6-0.7h4.4c0.4,0,0.5,0.1,0.5,0.5v29
		c0,0.5-0.1,0.6-0.5,0.6h-4.4V44.7z"/>
	<path fill="#FFFFFF" d="M127.9,44.7c-0.4,0-0.5-0.1-0.5-0.6V15c0-0.4,0.1-0.5,0.4-0.5h4.8c0.4,0,0.5,0.1,0.5,0.5v12.4l7.3-12.7
		c0.1-0.1,0.2-0.3,0.4-0.3h5.3c0.3,0,0.4,0.2,0.3,0.5l-8.1,14.4c0,0.1,0,0.1,0.1,0.3l8.1,14.4c0.3,0.5,0.2,0.7-0.3,0.7h-5
		c-0.5,0-0.7-0.2-1-0.7l-7.1-12.5v12.6c0,0.5-0.1,0.6-0.5,0.6C132.6,44.7,127.9,44.7,127.9,44.7z"/>
	<path fill="#FFFFFF" d="M151.5,44.7c-0.5,0-0.6-0.1-0.6-0.7V15.2c0-0.6,0.1-0.7,0.6-0.7h4.4c0.4,0,0.5,0.1,0.5,0.5v29
		c0,0.5-0.1,0.6-0.5,0.6h-4.4V44.7z"/>
	<path fill="#FFFFFF" d="M177.2,32.8V15.1c0-0.5,0.1-0.6,0.5-0.6h4.3c0.5,0,0.6,0.2,0.6,0.6v29c0,0.6-0.1,0.6-0.6,0.6h-4.3
		c-0.7,0-1.1-0.2-1.4-0.9l-7.5-16.7V44c0,0.5,0.1,0.7-0.5,0.7H164c-0.5,0-0.5-0.1-0.5-0.5v-29c0-0.5,0.1-0.6,0.5-0.6h4.4
		c0.9,0,1.1,0.4,1.4,1.1L177.2,32.8z"/>
	<path fill="#FFFFFF" d="M21.3,14.5c-5.8,0-10.5,4.7-10.5,10.5v31.5h10.5V25h13.1V14.5H21.3z"/>
	<path fill="#FFFFFF" d="M28.1,31.3c-2.4,0-4.2,1.9-4.2,4.2c0,2.4,1.9,4.2,4.2,4.2c2.4,0,4.2-1.9,4.2-4.2
		C32.4,33.1,30.5,31.3,28.1,31.3"/>
	<g>
		<path fill="#FFFFFF" d="M48.5,51.6h0.8v4h2.1v0.7h-2.9C48.5,56.3,48.5,51.6,48.5,51.6z"/>
		<path fill="#FFFFFF" d="M53.9,51.6h0.8v4.7h-0.8V51.6z"/>
		<path fill="#FFFFFF" d="M57.5,51.6h1.8c1.5,0,2.5,1,2.5,2.4s-1,2.4-2.5,2.4h-1.8V51.6z M59.3,55.5c1,0,1.6-0.7,1.6-1.6
			c0-0.9-0.6-1.6-1.6-1.6h-0.9v3.3h0.9V55.5z"/>
		<path fill="#FFFFFF" d="M64.3,51.6h3.2v0.7h-2.4v1.2h2.4v0.7h-2.4v1.3h2.4v0.7h-3.2V51.6z"/>
		<path fill="#FFFFFF" d="M71.8,54.5H71v1.8h-0.8v-4.7h2.1c0.9,0,1.5,0.6,1.5,1.5c0,0.8-0.6,1.3-1.1,1.4l1.2,1.9h-1L71.8,54.5z
			 M72.1,52.3H71v1.5h1.1c0.5,0,0.8-0.3,0.8-0.8S72.6,52.3,72.1,52.3z"/>
		<path fill="#FFFFFF" d="M82.7,52.8l-0.9,3.5h-0.9l-1.4-4.7h0.9l0.9,3.6l1-3.6H83l1,3.6l0.9-3.6h0.9l-1.3,4.7h-0.9L82.7,52.8z"/>
		<path fill="#FFFFFF" d="M89.5,54.3l-1.8-2.8h0.9l1.3,2l1.3-2h0.9l-1.8,2.8v2h-0.8V54.3z"/>
		<path fill="#FFFFFF" d="M95.3,52.8v3.4h-0.8v-4.7h0.9l2.4,3.4v-3.4h0.8v4.7h-0.8L95.3,52.8z"/>
		<path fill="#FFFFFF" d="M104.3,55.4h-2.2l-0.3,0.9h-0.9l1.9-4.7h1l1.9,4.7h-0.9L104.3,55.4z M102.3,54.6h1.8l-0.9-2.4L102.3,54.6z
			"/>
		<path fill="#FFFFFF" d="M107.9,55.2c0.2,0.2,0.4,0.4,0.8,0.4c0.5,0,0.8-0.3,0.8-0.9v-3.2h0.8v3.2c0,1.1-0.7,1.6-1.6,1.6
			c-0.5,0-0.9-0.1-1.3-0.5L107.9,55.2z"/>
		<path fill="#FFFFFF" d="M117.2,52.7l-1.5,3.6h-0.4l-1.4-3.6v3.6h-0.8v-4.7h1.2l1.3,3.2l1.3-3.2h1.2v4.7h-0.8L117.2,52.7
			L117.2,52.7z"/>
		<path fill="#FFFFFF" d="M120.8,51.6h0.8v2.8c0,0.8,0.4,1.2,1.2,1.2c0.8,0,1.2-0.5,1.2-1.2v-2.8h0.8v2.9c0,1.2-0.7,2-2,2
			c-1.4,0-2-0.8-2-1.9V51.6z"/>
		<path fill="#FFFFFF" d="M131.3,51.6h2.1c1,0,1.5,0.7,1.5,1.5s-0.6,1.5-1.5,1.5h-1.2v1.8h-0.8v-4.8H131.3z M133.2,52.3h-1.1v1.5
			h1.1c0.5,0,0.8-0.3,0.8-0.8S133.7,52.3,133.2,52.3z"/>
		<path fill="#FFFFFF" d="M139.6,51.5c1.4,0,2.4,1,2.4,2.4s-1,2.4-2.4,2.4s-2.4-1-2.4-2.4S138.1,51.5,139.6,51.5z M139.6,52.2
			c-1,0-1.6,0.7-1.6,1.7s0.6,1.7,1.6,1.7c0.9,0,1.6-0.7,1.6-1.7C141.1,52.9,140.5,52.2,139.6,52.2z"/>
		<path fill="#FFFFFF" d="M144.3,55.2c0.2,0.2,0.4,0.4,0.8,0.4c0.5,0,0.8-0.3,0.8-0.9v-3.2h0.8v3.2c0,1.1-0.7,1.6-1.6,1.6
			c-0.5,0-0.9-0.1-1.3-0.5L144.3,55.2z"/>
		<path fill="#FFFFFF" d="M152.4,55.4h-2.2l-0.3,0.9H149l1.9-4.7h1l1.9,4.7h-0.9L152.4,55.4z M150.4,54.6h1.8l-0.9-2.4L150.4,54.6z"
			/>
		<path fill="#FFFFFF" d="M155.7,55.6l2.4-3.3h-2.4v-0.7h3.5v0.7l-2.4,3.3h2.5v0.7h-3.5v-0.7H155.7z"/>
		<path fill="#FFFFFF" d="M161.9,51.6h1.8c1.5,0,2.5,1,2.5,2.4s-1,2.4-2.5,2.4h-1.8V51.6z M163.6,55.5c1,0,1.6-0.7,1.6-1.6
			c0-0.9-0.6-1.6-1.6-1.6h-0.9v3.3h0.9V55.5z"/>
		<path fill="#FFFFFF" d="M170.9,51.5c1.4,0,2.4,1,2.4,2.4s-1,2.4-2.4,2.4s-2.4-1-2.4-2.4S169.4,51.5,170.9,51.5z M170.9,52.2
			c-1,0-1.6,0.7-1.6,1.7s0.6,1.7,1.6,1.7c0.9,0,1.6-0.7,1.6-1.7C172.4,52.9,171.8,52.2,170.9,52.2z M170.6,51.2l1-1h0.7l-1.2,1
			H170.6z"/>
		<path fill="#FFFFFF" d="M178.4,52.8l-0.9,3.5h-0.9l-1.4-4.7h0.9l0.9,3.6l1-3.6h0.7l1,3.6l0.9-3.6h0.9l-1.3,4.7h-0.9L178.4,52.8z"
			/>
	</g>
</g>
</svg>
