<?xml version="1.0" encoding="utf-8"?>
<!-- Generator: Adobe Illustrator 25.2.1, SVG Export Plug-In . SVG Version: 6.00 Build 0)  -->
<svg version="1.1" id="Layer_1" xmlns="http://www.w3.org/2000/svg" xmlns:xlink="http://www.w3.org/1999/xlink" x="0px" y="0px"
	 viewBox="0 0 224.5 64.4" enable-background="new 0 0 224.5 64.4" xml:space="preserve">
<g id="Group_1" transform="translate(138 -6)">
	<path id="Path_2" fill="#FFFFFF" d="M35.1,6.8v12.1h16.3c0,0,0-12.2,0-12.1c0,0,8,0,8.1,0c0,0,0,30.3,0,30.4c0,0-8,0-8.1,0V23.8
		c0,0-16.3,0-16.3,0c0,0,0,13.4,0,13.4h-8c0,0,0-30.4,0-30.4L35.1,6.8z"/>
	<path id="Path_3" fill="#FFFFFF" d="M-41.3,6.8c0,0.1,0,5.2,0,5.2h-12.3v25.2h-8V11.9H-74c0,0,0-5.2,0-5.2
		C-73.9,6.8-41.3,6.8-41.3,6.8"/>
	<path id="Path_4" fill="#FFFFFF" d="M-10,37.1c0,0-9,0-9,0c0,0-2.6-6.5-2.6-6.5h-15.1c0,0-2.6,6.5-2.6,6.5c0,0-9,0-9,0l14.2-30.4
		c0,0,9.9,0,9.9,0L-10,37.1z M-29.2,11.9l-5.6,13.8h11.2L-29.2,11.9"/>
	<rect id="Rectangle_1" x="65.8" y="6.8" fill="#FFFFFF" width="8.1" height="30.4"/>
	<path id="Path_5" fill="#FFFFFF" d="M-115.6,6.8c0,0,0,12.2,0,12.1h16.2c0,0,0-12.2,0-12.1c0,0,8,0,8.1,0c0,0,0,30.4,0,30.4
		c0,0-8,0-8.1,0V23.8c0,0-16.2,0-16.2,0c0,0,0,13.4,0,13.4h-8.1c0,0,0-30.4,0-30.4H-115.6z"/>
	<rect id="Rectangle_2" x="-84.9" y="6.8" fill="#FFFFFF" width="8" height="30.4"/>
	<path id="Path_6" fill="#FFFFFF" d="M-10.3,28.7c-0.7-2.1-1.1-4.3-1.1-6.5c-0.1-3.1,0.6-6.1,2.1-8.8c1.6-2.7,4-4.7,6.9-5.8
		c6.2-2.3,13-2.1,19.1,0.5c2.9,1.3,5.1,3.9,5.7,7c0.1,0.6,0.2,1.3,0.3,1.9h-8.4c0-0.8-0.2-1.6-0.4-2.3c-0.6-1.7-2-3-3.8-3.5
		c-2.5-0.8-5.1-0.7-7.5,0.2c-2.1,0.7-3.7,2.4-4.4,4.5C-2.6,17.9-3,20.1-3,22.2c0,1.8,0.3,3.6,0.8,5.3c0.6,2.2,2.3,4,4.4,4.8
		c1.4,0.5,2.8,0.8,4.3,0.8c1.3,0,2.5-0.2,3.7-0.6c1.6-0.5,2.9-1.6,3.5-3.2c0.4-1,0.7-2.1,0.7-3.3h8.5c0,1-0.2,1.9-0.4,2.9
		c-0.7,3-2.8,5.5-5.6,6.7c-3.3,1.4-6.8,2.1-10.3,2.1c-2.8,0-5.5-0.4-8.2-1.3C-5.6,35.5-8.8,32.6-10.3,28.7"/>
	<path id="Path_7" fill="#FFFFFF" d="M-130.8,45.6l-7.2,0.7v1.1l0.2,0c2.9,0.3,2.9,0.3,2.9,2.4v15h4.3V45.6L-130.8,45.6z"/>
	<path id="Path_8" fill="#FFFFFF" d="M-115.6,51.3c-2.1,0-3.9,1.1-5,2.9v-2.9l-0.3,0l-5.8,0.9v1h0.2c1.8,0.1,2.2,0.4,2.2,2.2v9.4
		h3.6v-6.9c0-1.8,1.7-4.2,3.6-4.2c1.7,0,1.8,1.4,1.8,3.8v7.3h3.6v-9.4C-111.6,52.8-113,51.3-115.6,51.3"/>
	<path id="Path_9" fill="#FFFFFF" d="M-101.4,56.6c-1.4-0.7-2.7-1.3-2.7-2.3c0-1.1,1.3-1.2,1.9-1.2c1.2,0.1,2.4,0.5,3.4,1.2l0.6,0.3
		l0-0.5v-2.3l-0.4-0.1c-1.1-0.3-2.2-0.4-3.3-0.4c-3.4,0-5.5,1.5-5.5,3.9c0,2.2,2.1,3.2,4,4.2c1.5,0.7,2.8,1.4,2.8,2.4
		c0,1-0.9,1.6-2.4,1.6c-1.4-0.1-2.8-0.6-4-1.4l-0.4-0.2v2.8l0.3,0.1c1.3,0.3,2.6,0.5,4,0.5c3.7,0,5.9-1.5,5.9-4
		C-97.3,58.6-99.5,57.5-101.4,56.6"/>
	<path id="Path_10" fill="#FFFFFF" d="M-85.5,51.3c-1.5,0.1-2.9,0.7-3.8,1.9v-1.9l-0.3,0l-5.8,0.9v1l0.2,0c1.8,0.1,2.2,0.4,2.2,2.2
		v15h3.6v-6.8c0.9,1.1,2.3,1.7,3.7,1.6c3.8,0,5.8-2.5,5.8-7.1C-79.8,53.8-81.9,51.3-85.5,51.3 M-86.5,53.3c2.5,0,2.8,2.7,2.8,4.7
		c0,3.4-0.9,5.1-2.7,5.1c-2.4,0-2.9-2.2-2.9-4.1V58C-89.4,56.6-89.1,53.3-86.5,53.3"/>
	<path id="Path_11" fill="#FFFFFF" d="M-77.3,52.2v1l0.2,0c1.8,0.1,2.1,0.4,2.1,2.2v9.4h3.6V51.3l-0.3,0L-77.3,52.2z"/>
	<path id="Path_12" fill="#FFFFFF" d="M-73.1,49.7c1.2,0.1,2.2-0.8,2.3-2c-0.2-1.2-1.3-2.1-2.5-1.9c-1,0.1-1.8,0.9-1.9,1.9
		C-75.2,48.8-74.2,49.7-73.1,49.7"/>
	<path id="Path_13" fill="#FFFFFF" d="M-56.1,54.3v-2.8l-0.2,0c-0.6-0.1-1.1-0.1-1.7-0.1c-1.7,0.1-3.1,1.1-3.7,2.7v-2.7l-0.3,0
		l-5.8,0.9v1h0.3c1.8,0.1,2.2,0.4,2.2,2.2v9.4h3.6V58c-0.2-1.9,1.2-3.6,3.1-3.8c0.2,0,0.4,0,0.7,0c0.4,0,0.9,0.1,1.3,0.2l0.6,0.2
		V54.3z"/>
	<path id="Path_14" fill="#FFFFFF" d="M-41.7,56.8c0-3.6-2-5.5-6-5.5c-4.5,0-6.8,2.2-6.8,6.5c0,4.6,2.9,7.4,7.9,7.4
		c1.5,0,3-0.3,4.4-0.7l0.2-0.1v-1.8l-0.3,0.1c-0.9,0.3-1.9,0.5-2.8,0.4c-3.9,0-5.3-3.2-5.4-6.1h8.9V56.8z M-47.9,52.8
		c1.9,0,2.4,1.4,2.5,2.7h-5.2C-50.6,54-49.4,52.8-47.9,52.8"/>
	<path id="Path_15" fill="#FFFFFF" d="M-8.7,51.3c-2.1,0-3.9,1.1-5,2.9v-9l-0.3,0l-5.8,0.7v1l0.2,0c1.8,0.1,2.2,0.5,2.2,2.2v15.7
		h3.6v-6.8c0-2.5,1.8-4.4,3.4-4.4c2,0,2,1.5,2,2.9v8.3h3.6v-8.7C-4.6,54.7-4.6,51.3-8.7,51.3"/>
	<path id="Path_16" fill="#FFFFFF" d="M11.7,56.8c0-3.6-2-5.5-6-5.5c-4.5,0-6.8,2.2-6.8,6.5c0,4.6,2.9,7.4,7.9,7.4
		c1.5,0,3-0.3,4.4-0.7l0.2-0.1v-1.8l-0.3,0.1c-0.9,0.3-1.9,0.5-2.8,0.4c-3.9,0-5.3-3.2-5.4-6.1h8.9L11.7,56.8z M5.6,52.8
		c1.9,0,2.4,1.4,2.5,2.7H2.8C2.9,54,4.1,52.8,5.6,52.8"/>
	<path id="Path_17" fill="#FFFFFF" d="M-29,47.5v4.1h-2.4v1.6h2.4v8.1c0,3.5,2.3,3.8,5,3.8c0.7,0,1.4-0.1,2.1-0.2l0.2,0v-1.6
		l-0.3,0.1c-0.4,0.1-0.7,0.1-1.1,0.1c-2.2,0-2.3-0.6-2.3-2.5v-7.7h4.1v-1.6h-4.1v-4.1H-29z"/>
	<path id="Path_18" fill="#FFFFFF" d="M42.3,45.9h-3.6v14.3c-0.8-1.1-9.5-14.3-9.5-14.3h-8.4V47l0.7,0.1c2.2,0.4,2.4,0.4,2.4,2.6
		v15.1h3.9v-15l9.9,15h4.8V45.9H42.3z"/>
	<path id="Path_19" fill="#FFFFFF" d="M58.8,56.8c0-3.6-2-5.5-6-5.5c-4.5,0-6.8,2.2-6.8,6.5c0,4.6,2.9,7.3,7.9,7.3
		c1.5,0,3-0.3,4.4-0.7l0.2-0.1v-1.8l-0.3,0.1c-0.9,0.3-1.9,0.5-2.8,0.4c-3.9,0-5.3-3.2-5.4-6.1h8.9V56.8z M52.7,52.8
		c1.9,0,2.4,1.4,2.5,2.7H50C50,54,51.2,52.8,52.7,52.8"/>
	<path id="Path_20" fill="#FFFFFF" d="M78.8,47.5v4.1h-2.4v1.6h2.4v8.1c0,3.5,2.3,3.8,5,3.8c0.7,0,1.4-0.1,2.1-0.2l0.2,0v-1.6
		l-0.3,0.1c-0.4,0.1-0.7,0.1-1.1,0.1c-2.2,0-2.3-0.6-2.3-2.5v-7.7h4.1v-1.6h-4.1v-4.1H78.8z"/>
	<path id="Path_21" fill="#FFFFFF" d="M71.5,55.9l3.7-4.3h-3.8l-3.5,4.1l-3.1-4.1h-5.6v1l0.2,0c1.9,0.1,2.3,0.5,3.5,2l2.3,3L61.5,62
		h3.8l1.7-1.9l3.6,4.8h4.3L68,55.9L71.5,55.9z"/>
	<path id="Path_22" fill="#FFFFFF" d="M78.8,47.5h-3.8l4.6-5.4h3.8L78.8,47.5z"/>
</g>
</svg>
