<?xml version="1.0" encoding="utf-8"?>
<!-- Generator: Adobe Illustrator 19.1.1, SVG Export Plug-In . SVG Version: 6.00 Build 0)  -->
<!DOCTYPE svg PUBLIC "-//W3C//DTD SVG 1.1//EN" "http://www.w3.org/Graphics/SVG/1.1/DTD/svg11.dtd">
<svg version="1.1" id="Layer_1" xmlns="http://www.w3.org/2000/svg" xmlns:xlink="http://www.w3.org/1999/xlink" x="0px" y="0px"
	 viewBox="21.1 59.1 88 34.5" style="enable-background:new 21.1 59.1 88 34.5;" xml:space="preserve">
<style type="text/css">
	.st0{fill:#58595B;}
	.st1{fill:#FDFEFF;}
</style>
<g>
	<g>
		<g>
			<path class="st1" d="M98.5,80.6c-0.5,0-1.2,0-2.1-0.1c0,0.1,0.1,0.2,0.1,0.3c0,0.1,0,0.2-0.1,0.3c0.6-0.1,1-0.1,1.2-0.1h0.5
				c0,0.6,0,1.1,0,1.6c0,1.6,0,2.8-0.1,3.6c0.2,0,0.3,0,0.5,0s0.3,0,0.5,0c-0.1-0.7-0.1-2.1-0.1-4.2c0-0.2,0-0.6,0.1-1h0.5
				c0.2,0,0.6,0.1,1.2,0.2c0-0.1,0-0.2,0-0.3s0-0.2,0-0.3C99.8,80.6,99.1,80.6,98.5,80.6z M65.3,80.6c-0.5,0-1,0-1.6,0
				c0.1,0.8,0.1,1.8,0.1,2.8s0,2-0.1,2.8c0.2,0,0.3,0,0.5,0s0.3,0,0.5,0c0-0.5-0.1-1.1-0.1-1.9v-0.9h0.8c0.2,0,0.6,0,1.1,0.1
				c0-0.1,0-0.2,0-0.3c0-0.1,0-0.2,0-0.2C66.1,83,65.7,83,65.4,83h-0.8v-0.9c0-0.2,0-0.6,0-1.1h0.8c0.5,0,0.9,0.1,1.4,0.2
				c0-0.1,0-0.2,0-0.3s0-0.2,0-0.2C66.3,80.6,65.8,80.6,65.3,80.6z M55.4,80.5c-0.8,1.6-1.5,3.1-2.2,4.4c-0.7-1.3-1.4-2.8-2.3-4.4
				h-0.3c-0.2,1.8-0.4,3.7-0.8,5.7c0.1,0,0.2,0,0.3,0s0.2,0,0.3,0c0-0.6,0.1-1.3,0.1-1.8l0.2-2.2c0.7,1.4,1.4,2.7,2.1,4.2h0.1h0.1
				c0.2-0.6,0.5-1.2,0.8-1.8l1.2-2.3c0.2,1.4,0.3,2.8,0.4,4.2c0.2,0,0.3-0.1,0.5-0.1c0.2,0,0.3,0,0.5,0.1c-0.3-1.8-0.5-3.8-0.6-5.7
				L55.4,80.5L55.4,80.5z M31.5,80.6c-0.2,0-0.3,0-0.5,0s-0.3,0-0.4,0c-0.9,1.1-1.8,2-2.6,2.6v-1c0-0.2,0-0.7,0.1-1.6
				c-0.2,0-0.3,0.1-0.5,0.1s-0.3,0-0.5-0.1c0.1,0.8,0.1,1.8,0.1,2.8s0,2-0.1,2.8c0.2,0,0.3,0,0.5,0s0.3,0,0.5,0
				c-0.1-0.8-0.1-1.4-0.1-1.9v-0.9l1.4,1.5c0.4,0.5,0.8,0.9,1,1.3C30.6,86,30.8,86,31,86h0.6c-1-1-2-2.1-2.8-3.1
				C29.7,82.2,30.6,81.4,31.5,80.6z M40.4,80.5c-1.9,0-3,1.1-3,2.9s1.1,2.9,3,2.9s3-1.1,3-2.9C43.5,81.5,42.3,80.5,40.4,80.5z
				 M40.4,85.9c-1.4,0-2.2-0.9-2.2-2.6c0-1.6,0.8-2.5,2.2-2.5s2.2,0.9,2.2,2.6C42.6,85,41.8,85.9,40.4,85.9z M76.3,80.5
				c-1.9,0-3,1.1-3,2.9s1.1,2.9,3,2.9c1.9,0,3-1.1,3-2.9C79.3,81.5,78.2,80.5,76.3,80.5z M76.3,85.9c-1.4,0-2.2-0.9-2.2-2.6
				c0-1.6,0.8-2.5,2.2-2.5c1.4,0,2.2,0.9,2.2,2.6C78.4,85,77.6,85.9,76.3,85.9z M89.8,81.8c0-0.8-0.6-1.3-1.8-1.3
				c-0.3,0-0.8,0.1-1.2,0.1c-0.2,0-0.4,0-0.6,0c0.1,0.6,0.1,1.4,0.1,2.2c0,1.2,0,2.3-0.1,3.4c0.2,0,0.3,0,0.5,0s0.3,0,0.5,0
				c0-0.6-0.1-1.3-0.1-1.8v-0.9h0.2c0.7,0.9,1.4,1.8,2,2.7c0.2,0,0.4-0.1,0.6-0.1c0.2,0,0.4,0,0.6,0.1c-0.8-1-1.5-2-2.2-2.9
				C89.3,83.1,89.8,82.6,89.8,81.8z M87.1,83.1v-1.2c0-0.3,0-0.6,0.1-1c0.2,0,0.3,0,0.5,0c0.9,0,1.4,0.4,1.4,1.1s-0.6,1.2-1.7,1.2
				C87.3,83.1,87.2,83.1,87.1,83.1z M101,66.6c-1.7,0.1-3.1,0.1-4.3,0.1c-1,0-2.4,0-4.3-0.1c0.1,0.2,0.1,0.4,0.1,0.6
				c0,0.2,0,0.4-0.1,0.6c1.1-0.2,2-0.2,2.4-0.2h1c0.1,1.2,0.1,2.3,0.1,3.2c0,3.3-0.1,5.7-0.2,7.3c0.3-0.1,0.6-0.1,1-0.1
				c0.3,0,0.6,0,1,0.1c-0.2-1.4-0.2-4.2-0.2-8.6c0-0.6,0-1.2,0.1-1.9h1c0.5,0,1.4,0.1,2.5,0.3c0-0.2-0.1-0.4-0.1-0.6
				C100.9,67,100.9,66.9,101,66.6z M83.9,71.3c-1.5-0.6-2.4-1-2.4-2.2c0-1.2,0.8-1.9,2.1-1.9s2.1,0.6,2.3,1.7h0.2
				c0.1-0.6,0.2-1.1,0.6-1.7c-0.3-0.2-1.3-0.7-2.8-0.7c-2.3,0-3.6,1.2-3.6,3.2c0,1.7,1,2.4,3,3.1c1.6,0.6,2.5,1.1,2.5,2.5
				s-1,2.2-2.4,2.2c-1.3,0-2.3-0.7-2.8-2h-0.2c0,0.6-0.2,1.3-0.3,1.8c0.7,0.6,1.8,1,3,1c2.5,0,4.2-1.7,4.2-3.8
				C87.1,72.7,86,72.1,83.9,71.3z M73.9,77.5c0-0.2,0-0.4,0.1-0.6c-0.9,0.2-1.8,0.2-2.7,0.2h-1.5c-0.1-1.4-0.1-2.3-0.1-3v-1.8h1.6
				c0.5,0,1.3,0.1,2.3,0.1c0-0.2,0-0.4,0-0.6c0-0.2,0-0.3,0-0.5c-0.9,0.1-1.6,0.2-2.3,0.2h-1.7v-1.8c0-0.3,0-1.1,0-2.3h1.6
				c1,0,1.9,0.1,2.7,0.3c0-0.2-0.1-0.4-0.1-0.6c0-0.2,0-0.4,0.1-0.6c-1,0-1.9,0.1-3,0.1s-2.1,0-3.2-0.1c0.2,1.7,0.2,3.6,0.2,5.8
				c0,2.2-0.1,4-0.2,5.7c1.1,0,2.2-0.1,3.2-0.1s2,0,3,0.1C74,77.9,73.9,77.7,73.9,77.5z M45.5,66.7c-0.2,0-0.5-0.1-0.7-0.1
				c0.2,1.5,0.2,2.9,0.2,4v4.6c-2.6-2.8-5.4-5.6-8-8.6h-0.6c0,1,0.1,1.6,0.1,2.4c0,4.5-0.1,7.5-0.3,9.1c0.2-0.1,0.5-0.1,0.7-0.1
				c0.2,0,0.5,0,0.7,0.1c-0.2-1.2-0.2-2.6-0.2-4.1v-4.6l4.8,5.2c1.1,1.2,2.2,2.2,3.2,3.5h0.6c0-1.2-0.1-1.9-0.1-2.4
				c0-5,0.1-8,0.3-9.1C45.8,66.7,45.7,66.7,45.5,66.7z M28.2,78c0.3,0,0.6,0,1,0.1C29,76.4,29,74.5,29,72.4c0-2.1,0-4,0.2-5.8
				c-0.3,0.1-0.6,0.1-1,0.1c-0.3,0-0.6,0-1-0.1c0.2,1.7,0.2,3.6,0.2,5.8c0,2.2-0.1,4-0.2,5.7C27.5,78,27.9,78,28.2,78z M53.8,66.6
				c-0.3,0.1-0.7,0.1-1,0.1s-0.7,0-1-0.1c2.6,5.8,4,9.7,4.5,11.4c0.2-0.1,0.4-0.1,0.6-0.1c0.2,0,0.4,0,0.6,0.1
				c0.1-0.2,0.2-0.4,0.2-0.6l-2.2-6.1C54.9,69.8,54.3,68.3,53.8,66.6z M60.5,66.6c-0.4,1.5-0.7,3-1.7,5.1l-0.1,0.2l0.5,1.6
				c0.8-2.2,1.6-4.1,2.9-6.9c-0.2,0-0.6,0.1-0.8,0.1C61,66.7,60.8,66.7,60.5,66.6z"/>
		</g>
	</g>
</g>
</svg>
