<?xml version="1.0" encoding="utf-8"?>
<!-- Generator: Adobe Illustrator 25.2.1, SVG Export Plug-In . SVG Version: 6.00 Build 0)  -->
<svg version="1.1" id="Layer_1" xmlns="http://www.w3.org/2000/svg" xmlns:xlink="http://www.w3.org/1999/xlink" x="0px" y="0px"
	 viewBox="0 0 156 46" enable-background="new 0 0 156 46" xml:space="preserve">
<g>
	<g>
		<path fill="#FFFFFF" d="M68.2,5.5L61,18h-7.6l-8.9,15.5h7.6l-5.7,9.9H65c4.8-5.8,7.6-13.2,7.6-21.3C72.6,16.1,71,10.4,68.2,5.5"/>
		<path fill="#FFFFFF" d="M31.4,43.4L31.4,43.4L31.4,43.4L31.4,43.4L54.5,3.3H35L21.7,26.4L9.6,5.5c-2.8,4.9-4.4,10.6-4.4,16.6
			c0,8.1,2.9,15.5,7.6,21.3H31.4z"/>
	</g>
	<g>
		<path fill="#FFFFFF" d="M86.5,23.1c0,7.3,3.3,10.7,9,10.7s9-3.5,9-10.7c0-7.3-3.3-10.8-9-10.8S86.5,15.8,86.5,23.1 M83.9,23.1
			c0-8.8,4.4-13.1,11.6-13.1s11.6,4.3,11.6,13.1c0,8.8-4.4,13.1-11.6,13.1S83.9,31.9,83.9,23.1"/>
		<path fill="#FFFFFF" d="M127.1,11.1c0.1-0.3,0.5-0.8,1.2-0.8c0.7,0,1.3,0.6,1.3,1.3c0,0.2-0.1,0.4-0.1,0.6l-8.7,23
			c-0.2,0.5-0.7,0.9-1.2,0.9c-0.5,0-1-0.3-1.2-0.9l-8.7-23c0-0.1-0.1-0.3-0.1-0.6c0-0.7,0.6-1.3,1.3-1.3c0.7,0,1.1,0.5,1.2,0.8
			l7.6,20.1L127.1,11.1z"/>
		<path fill="#FFFFFF" d="M135.8,23.9v10.7c0,0.7-0.6,1.3-1.3,1.3c-0.7,0-1.3-0.6-1.3-1.3V11.5c0-0.7,0.6-1.3,1.3-1.3
			c0.7,0,1.3,0.6,1.3,1.3v10.1h13V11.5c0-0.7,0.6-1.3,1.3-1.3c0.7,0,1.3,0.6,1.3,1.3v23.2c0,0.7-0.6,1.3-1.3,1.3
			c-0.7,0-1.3-0.6-1.3-1.3V23.9H135.8z"/>
	</g>
</g>
</svg>
