<?xml version="1.0" encoding="utf-8"?>
<!-- Generator: Adobe Illustrator 25.2.1, SVG Export Plug-In . SVG Version: 6.00 Build 0)  -->
<svg version="1.1" id="logo" xmlns="http://www.w3.org/2000/svg" xmlns:xlink="http://www.w3.org/1999/xlink" x="0px" y="0px"
	 viewBox="0 0 19.3 11.3" style="enable-background:new 0 0 19.3 11.3;" xml:space="preserve">
<style type="text/css">
	.st0{fill:#FFFFFF;}
</style>
<path id="Tracé_10232" class="st0" d="M6,4.2H5L4.6,6.3h0.9c0,0,1.2,0,1.2-1.4c0.1-0.3-0.2-0.7-0.5-0.7c0,0,0,0,0,0H6z"/>
<path id="Tracé_10233" class="st0" d="M14.5,4.2h-1l-0.4,2.1H14c0,0,1.1,0,1.2-1.4c0-0.4-0.2-0.7-0.6-0.7c0,0,0,0,0,0H14.5z"/>
<path id="Tracé_10234" class="st0" d="M9.7,0.6c-5.3,0-9.5,2.2-9.5,5s4.3,5.1,9.5,5.1s9.5-2.3,9.5-5S15,0.6,9.7,0.6z M5.4,7.1h-1
	L4.1,8.4H3.1l1-5c0,0,1.4,0,2.3,0S8.2,4,7.7,5.5C7.4,6.5,6.5,7.2,5.4,7.1z M10.3,7.1c0,0,0.3-1.2,0.4-2c0.1-0.3,0.3-0.9-0.3-0.9H9.3
	L8.7,7.1h-1l1-5h1.1L9.5,3.4h1.1c0,0,1.5-0.1,1.3,1.1s-0.5,2.6-0.5,2.6L10.3,7.1z M16.3,5.5c-0.3,1-1.2,1.7-2.3,1.6h-1l-0.4,1.3h-1
	l1-5c0,0,1.4,0,2.3,0S16.7,4,16.3,5.5L16.3,5.5z"/>
</svg>
