<?xml version="1.0" encoding="utf-8"?>
<!-- Generator: Adobe Illustrator 25.2.1, SVG Export Plug-In . SVG Version: 6.00 Build 0)  -->
<svg version="1.1" id="logo" xmlns="http://www.w3.org/2000/svg" xmlns:xlink="http://www.w3.org/1999/xlink" x="0px" y="0px"
	 viewBox="0 0 24 24" style="enable-background:new 0 0 24 24;" xml:space="preserve">
<style type="text/css">
	.st0{fill:#FFFFFF;}
</style>
<g id="Groupe_7544">
	<g id="python-logo-generic">
		<path id="path1948" class="st0" d="M11.8,0.6c-0.9,0-1.8,0.1-2.6,0.2C6.8,1.2,6.4,2.1,6.4,3.7v2.1h5.5v0.6H4.3
			c-1.7,0-3.2,1.2-3.5,2.9c-0.5,1.8-0.5,3.8,0,5.6c0.4,1.6,1.3,2.8,2.9,2.8h1.9v-2.5c0-1.9,1.6-3.4,3.5-3.4h5.5
			c1.5,0,2.8-1.3,2.8-2.8l0,0V3.6c-0.1-1.5-1.3-2.7-2.8-2.9C13.7,0.6,12.8,0.5,11.8,0.6z M8.8,2.2C9.4,2.2,9.9,2.6,10,3.2
			S9.7,4.3,9.1,4.4c-0.1,0-0.2,0-0.3,0c-0.6,0-1.1-0.5-1.1-1l0,0C7.7,2.7,8.2,2.2,8.8,2.2C8.8,2.2,8.8,2.2,8.8,2.2L8.8,2.2z"/>
		<path id="path1950" class="st0" d="M18.1,6.4v2.5c0,1.9-1.5,3.4-3.5,3.5H9.2c-1.5,0-2.8,1.3-2.8,2.8v5.3c0,1.5,1.3,2.4,2.8,2.8
			c1.8,0.6,3.7,0.6,5.5,0c1.4-0.4,2.8-1.2,2.8-2.8v-2.1h-5.5v-0.7h8.3c1.6,0,2.2-1.1,2.8-2.8c0.6-1.8,0.6-3.8,0-5.6
			c-0.4-1.6-1.1-2.9-2.8-2.9H18.1z M15,19.7c0.6,0,1,0.5,1,1c0,0.6-0.5,1-1,1c0,0,0,0,0,0c-0.6,0-1.1-0.4-1.1-1l0,0
			C14,20.2,14.4,19.7,15,19.7L15,19.7z"/>
	</g>
</g>
</svg>
