<?xml version="1.0" encoding="utf-8"?>
<!-- Generator: Adobe Illustrator 25.2.1, SVG Export Plug-In . SVG Version: 6.00 Build 0)  -->
<svg version="1.1" id="Layer_2_1_" xmlns="http://www.w3.org/2000/svg" xmlns:xlink="http://www.w3.org/1999/xlink" x="0px" y="0px"
	 viewBox="0 0 510.1 462.7" style="enable-background:new 0 0 510.1 462.7;" xml:space="preserve">
<style type="text/css">
	.st0{fill:#FFFFFF;}
</style>
<g>
	<path class="st0" d="M500.4,230.2c0-32.5-40.7-63.3-103.1-82.4c14.4-63.6,8-114.2-20.2-130.4c-6.5-3.8-14-5.6-22.3-5.6v-0.1
		c-27.5,0-63.5,19.6-99.9,53.6c-36.4-33.8-72.4-53.2-99.9-53.2v0.1c-8.4,0-16,1.8-22.6,5.6C104.3,34,98,84.5,112.5,147.9
		C50.3,167.1,9.8,197.8,9.8,230.2c0,32.5,40.7,63.3,103.1,82.4c-14.4,63.6-8,114.2,20.2,130.4c6.5,3.8,14.1,5.6,22.5,5.6
		c27.5,0,63.5-19.6,99.9-53.6c36.4,33.8,72.4,53.2,99.9,53.2c8.4,0,16-1.8,22.6-5.6c28.1-16.2,34.4-66.7,19.9-130.1
		C459.9,293.4,500.4,262.6,500.4,230.2z M354.7,34L354.7,34c4.6,0.1,8.3,1,11.4,2.7c13.6,7.8,19.5,37.5,14.9,75.7
		c-1.1,9.4-2.9,19.3-5.1,29.4c-19.6-4.8-41-8.5-63.5-10.9c-13.5-18.5-27.5-35.3-41.6-50C303.3,50.7,333.9,34.1,354.7,34z
		 M166.5,281.4c4.7,8,9.5,15.8,14.4,23.4c-14.2-2.1-27.9-4.7-41-7.9c3.7-12.9,8.3-26.2,13.5-39.5
		C157.5,265.4,161.8,273.4,166.5,281.4z M139.6,163.5c13.1-3.1,26.9-5.8,41.2-7.9c-4.9,7.7-9.8,15.6-14.4,23.7c-4.6,8-8.9,16-13,24
		C148,189.9,143.4,176.5,139.6,163.5z M165.1,230.5c6.2-13.4,13.2-26.8,20.7-39.9c7.8-13.5,15.8-26.3,24.1-38.2
		c14.9-1.3,30-2,45.2-2c15.1,0,30.2,0.7,45,1.9c8.3,11.9,16.4,24.6,24.2,38c7.6,13.1,14.5,26.4,20.8,39.8
		c-6.3,13.4-13.2,26.8-20.7,39.9c-7.8,13.5-15.8,26.3-24.1,38.2c-14.9,1.3-30,2-45.2,2c-15.1,0-30.2-0.7-45-1.9
		c-8.3-11.9-16.4-24.6-24.2-38C178.3,257.2,171.4,243.9,165.1,230.5z M343.7,281.1c4.6-8,8.9-16.1,13-24.1
		c5.4,13.4,10,26.8,13.8,39.8c-13.1,3.2-26.9,5.9-41.2,8C334.2,297.1,339.1,289.2,343.7,281.1z M343.6,179
		c-4.6-8-9.5-15.8-14.4-23.4c14.2,2.1,27.9,4.7,41,7.9c-3.7,12.9-8.3,26.2-13.5,39.5C352.6,195,348.3,187,343.6,179z M282.6,128.7
		c-9-0.4-18.2-0.7-27.5-0.7c-9.4,0-18.7,0.2-27.8,0.7c9-11.7,18.3-22.4,27.5-32C264.1,106.3,273.4,117,282.6,128.7z M143.5,37.1
		c3-1.8,6.9-2.6,11.5-2.6v-0.1c20.7,0,51.4,16.5,84,46.6c-14,14.7-28,31.4-41.3,49.9c-22.6,2.4-44,6.1-63.6,11
		c-2.3-10-4-19.7-5.2-29C124.2,74.7,130,45,143.5,37.1z M118.3,291c-9.9-3.1-19.3-6.5-28-10.2C54.9,265.7,32,245.9,32,230.2
		s22.9-35.6,58.3-50.6c8.6-3.7,18-7,27.7-10.1c5.7,19.6,13.2,40,22.5,60.9C131.3,251.2,123.9,271.5,118.3,291z M155.4,426.4
		c-4.5-0.1-8.3-1-11.3-2.7c-13.6-7.8-19.5-37.5-14.9-75.7c1.1-9.4,2.9-19.3,5.1-29.4c19.6,4.8,41,8.5,63.5,10.9
		c13.5,18.5,27.5,35.3,41.6,50C206.8,409.8,176.2,426.4,155.4,426.4z M255.3,363.7c-9.3-9.6-18.6-20.3-27.8-32
		c9,0.4,18.2,0.7,27.5,0.7c9.4,0,18.7-0.2,27.8-0.7C273.8,343.4,264.5,354.1,255.3,363.7z M366.7,423.3c-3,1.8-6.9,2.6-11.5,2.6
		c-20.7,0-51.4-16.5-84-46.6c14-14.7,28-31.4,41.3-49.9c22.6-2.4,44-6.1,63.6-11c2.3,10.1,4.1,19.8,5.2,29.1
		C386,385.7,380.2,415.4,366.7,423.3z M419.8,280.8c-8.6,3.7-18,7-27.7,10.1c-5.7-19.6-13.2-40-22.5-60.9
		c9.2-20.8,16.6-41.1,22.2-60.6c9.9,3.1,19.3,6.5,28.1,10.2c35.4,15.1,58.3,34.9,58.3,50.6C478.1,245.9,455.2,265.8,419.8,280.8z"/>
	<circle class="st0" cx="255" cy="230.2" r="45.7"/>
</g>
</svg>
