<svg xmlns="http://www.w3.org/2000/svg" xmlns:xlink="http://www.w3.org/1999/xlink" width="84.2" height="79.503" viewBox="0 0 84.2 79.503">
  <defs>
    <filter id="Path_1978" x="0" y="0" width="84.2" height="79.503" filterUnits="userSpaceOnUse">
      <feOffset input="SourceAlpha"/>
      <feGaussianBlur stdDeviation="3" result="blur"/>
      <feFlood flood-color="#f21289"/>
      <feComposite operator="in" in2="blur"/>
      <feComposite in="SourceGraphic"/>
    </filter>
  </defs>
  <g transform="matrix(1, 0, 0, 1, 0, 0)" filter="url(#Path_1978)">
    <path id="Path_1978-2" data-name="Path 1978" d="M-1088.923,3471.412H-1144.4a4.766,4.766,0,0,0-4.761,4.761v41.895a4.766,4.766,0,0,0,4.761,4.761h20.32l-1.146,4.011a4.4,4.4,0,0,1-3.939,2.971h-7.173a.952.952,0,0,0-.952.952.952.952,0,0,0,.952.952h39.355a.952.952,0,0,0,.952-.952.952.952,0,0,0-.952-.952h-7.173a4.4,4.4,0,0,1-3.939-2.971l-1.146-4.011h20.32a4.766,4.766,0,0,0,4.761-4.761v-41.895A4.766,4.766,0,0,0-1088.923,3471.412Zm-19.543,58.4h-16.392a5.807,5.807,0,0,0,1.461-2.448l1.3-4.534h10.878l1.3,4.534A5.809,5.809,0,0,0-1108.466,3529.811Zm22.4-11.743a2.859,2.859,0,0,1-2.856,2.856H-1144.4a2.859,2.859,0,0,1-2.856-2.856V3511.4h61.191Zm0-8.569h-61.191v-33.325a2.86,2.86,0,0,1,2.856-2.857h55.479a2.86,2.86,0,0,1,2.856,2.857Zm-1.9-33.325v30.469a.952.952,0,0,1-.952.952H-1144.4a.952.952,0,0,1-.952-.952v-13.33a.952.952,0,0,1,.952-.953.952.952,0,0,1,.952.953v12.378h53.574v-28.565h-53.574V3489.5a.952.952,0,0,1-.952.952.952.952,0,0,1-.952-.952v-13.33a.952.952,0,0,1,.952-.952h55.479A.952.952,0,0,1-1087.971,3476.173Zm-28.691,42.847a2.859,2.859,0,0,0,2.856-2.856,2.859,2.859,0,0,0-2.856-2.856,2.859,2.859,0,0,0-2.856,2.856A2.86,2.86,0,0,0-1116.662,3519.02Zm0-3.809a.953.953,0,0,1,.952.952.953.953,0,0,1-.952.952.953.953,0,0,1-.952-.952A.953.953,0,0,1-1116.662,3515.211Zm-23.147-33.747v18.122h27.6v-18.122Zm25.442,15.967h-23.288v-13.813h23.288Zm-22.144-6.057a1.078,1.078,0,0,1-.315-.788,1.078,1.078,0,0,1,.352-.771l3.86-3.509a1.077,1.077,0,0,1,1.522.072,1.078,1.078,0,0,1-.072,1.522l-3.024,2.749,2.886,2.886a1.077,1.077,0,0,1,0,1.523,1.073,1.073,0,0,1-.762.315,1.073,1.073,0,0,1-.762-.315Zm13.9-3.474a1.078,1.078,0,0,1-.073-1.522,1.077,1.077,0,0,1,1.522-.072l3.86,3.509a1.078,1.078,0,0,1,.352.771,1.077,1.077,0,0,1-.315.788l-3.685,3.685a1.073,1.073,0,0,1-.762.315,1.073,1.073,0,0,1-.762-.315,1.077,1.077,0,0,1,0-1.523l2.886-2.886Zm-7.281,7.195,4.211-9.651a1.077,1.077,0,0,1,1.418-.557,1.077,1.077,0,0,1,.557,1.418l-4.211,9.651a1.077,1.077,0,0,1-.988.646,1.076,1.076,0,0,1-.43-.09A1.077,1.077,0,0,1-1129.893,3495.1Zm36.1-11.126h-15.139v-2.155h15.139Zm-15.139,2.583h15.139v2.155h-15.139Zm0,4.621h15.139v2.154h-15.139Zm11.99,7.009v-2.155h3.149v2.155Zm-4.737,0v-2.155h3.149v2.155Z" transform="translate(1158.76 -3461.81)" fill="#fff" stroke="#f21289" stroke-width="1.2"/>
  </g>
</svg>
