<svg xmlns="http://www.w3.org/2000/svg" xmlns:xlink="http://www.w3.org/1999/xlink" width="84.2" height="62.795" viewBox="0 0 84.2 62.795">
  <defs>
    <filter id="Path_1981" x="0" y="0" width="84.2" height="62.795" filterUnits="userSpaceOnUse">
      <feOffset input="SourceAlpha"/>
      <feGaussianBlur stdDeviation="3" result="blur"/>
      <feFlood flood-color="#f21289"/>
      <feComposite operator="in" in2="blur"/>
      <feComposite in="SourceGraphic"/>
    </filter>
  </defs>
  <g transform="matrix(1, 0, 0, 1, 0, 0)" filter="url(#Path_1981)">
    <path id="Path_1981-2" data-name="Path 1981" d="M-2343.576,4702.564h-39.494a11.452,11.452,0,0,1-11.44-11.439,11.468,11.468,0,0,1,5.274-9.636c-.042-.465-.062-.932-.062-1.4a12.856,12.856,0,0,1,4.694-10.03,11.94,11.94,0,0,1,9.771-2.3,19.963,19.963,0,0,1,6.8-6.266,20.384,20.384,0,0,1,9.9-2.523c9.623,0,16.157,5.379,18.009,14.786a16.77,16.77,0,0,1,7.4,4.417,12.28,12.28,0,0,1,3.217,8.614,15.57,15.57,0,0,1-5.364,11.762A11.419,11.419,0,0,1-2343.576,4702.564Zm-33.676-33.144a9.794,9.794,0,0,0-6.179,2.116,10.957,10.957,0,0,0-3.983,8.555,13.812,13.812,0,0,0,.114,1.771.942.942,0,0,1-.47.94,9.581,9.581,0,0,0-4.856,8.322,9.567,9.567,0,0,0,9.556,9.556h39.494a9.541,9.541,0,0,0,7.311-3.4.931.931,0,0,1,.106-.107,13.69,13.69,0,0,0,4.766-10.384c0-7.04-5.337-10.082-9.814-11.393a.943.943,0,0,1-.663-.743,16.72,16.72,0,0,0-5.286-10.156c-2.8-2.416-6.492-3.642-10.972-3.642a18.24,18.24,0,0,0-8.983,2.286,18.1,18.1,0,0,0-6.486,6.174.943.943,0,0,1-1.009.416A11.745,11.745,0,0,0-2377.251,4669.42Zm25.3,13.875h-23.423v-1.884h23.423Zm20.256-.23h-12.374v-1.884h12.374Zm-43.678,2.489h23.423v1.884h-23.423Zm25.55,0h12.489v1.884h-12.489Zm-25.55,4.041h13.24v1.884h-13.24Zm10.486,6.129v-1.884h2.754v1.884Zm15.076-12.659v-1.884h2.754v1.884Zm-19.219,12.659v-1.884h2.753v1.884Z" transform="translate(2404.11 -4649.37)" fill="#fff" stroke="#f21289" stroke-width="1.2"/>
  </g>
</svg>
