<svg xmlns="http://www.w3.org/2000/svg" width="60.799" height="60.809" viewBox="0 0 60.799 60.809">
  <g id="Group_852" data-name="Group 852" transform="translate(-131.631 -178.668)">
    <path id="Path_2818" fill="#01FE93" data-name="Path 2818" d="M191.986,232.576a1.532,1.532,0,0,1,0,2.156l-4.3,4.289a1.493,1.493,0,0,1-2.148,0l-4.021-4.013-19.49-19.481-23.51,23.494a1.484,1.484,0,0,1-2.14,0l-4.3-4.289a1.532,1.532,0,0,1,0-2.156l23.51-23.5-23.51-23.5a1.532,1.532,0,0,1,0-2.157l4.3-4.3a1.507,1.507,0,0,1,2.148,0l23.5,23.5,23.511-23.494a1.493,1.493,0,0,1,2.148,0l4.3,4.289a1.532,1.532,0,0,1,0,2.157l-4.013,4.021-19.489,19.481Z" transform="translate(0 0)"/>
  </g>
</svg>
