<svg xmlns="http://www.w3.org/2000/svg" width="96.561" height="104.796" viewBox="0 0 96.561 104.796">
  <g id="Group_162" data-name="Group 162" transform="translate(0 -91)">
    <g id="Group_161" data-name="Group 161" transform="translate(0 91)">
      <path id="Path_1463" data-name="Path 1463" d="M-3815.25-6939.2l6.51.1s10.273-3.458,13.426-2.441,9.459,4.272,10.578,5.493a4.763,4.763,0,0,0,1.831,1.423l14.24.2,3.356,2.644,21.258-9.561s5.187,1.119,4.374,4.679-2.034,4.374-2.034,4.374l-24.716,17.9s-4.577,4.068-8.239,4.17-32.853-7.73-32.853-7.73l-7.73-.1Z" transform="translate(3832.239 7013.04)" fill="#00497f"/>
      <path id="Path_1464" data-name="Path 1464" d="M-3690.728-7202.7h-2.651a2.047,2.047,0,0,1-2-1.6,25.59,25.59,0,0,0-3.337-8.049,2.047,2.047,0,0,1,.283-2.541l1.879-1.88a.489.489,0,0,0,.141-.348.491.491,0,0,0-.14-.349l-5.035-5.03a.483.483,0,0,0-.349-.145.477.477,0,0,0-.344.14l-1.884,1.884a2.047,2.047,0,0,1-2.543.282,25.48,25.48,0,0,0-8.046-3.341,2.047,2.047,0,0,1-1.6-2v-2.652a.5.5,0,0,0-.494-.495h-7.113a.5.5,0,0,0-.495.495v2.651a2.047,2.047,0,0,1-1.6,2,25.589,25.589,0,0,0-8.054,3.342,2.047,2.047,0,0,1-2.541-.283l-1.88-1.88a.48.48,0,0,0-.348-.145.475.475,0,0,0-.344.14l-5.035,5.035a.492.492,0,0,0-.141.348.5.5,0,0,0,.14.349l1.88,1.879a2.046,2.046,0,0,1,.283,2.541,25.461,25.461,0,0,0-3.336,8.046,2.047,2.047,0,0,1-2,1.6h-2.657a.5.5,0,0,0-.5.495v7.119a.508.508,0,0,0,.5.495h2.657a2.047,2.047,0,0,1,2,1.6,25.457,25.457,0,0,0,3.336,8.046,2.046,2.046,0,0,1-.283,2.541l-1.88,1.88a.492.492,0,0,0-.141.349.491.491,0,0,0,.141.348l5.03,5.031a.478.478,0,0,0,.348.144.477.477,0,0,0,.345-.14l1.884-1.884a2.043,2.043,0,0,1,1.448-.6,2.047,2.047,0,0,1,1.093.316,25.515,25.515,0,0,0,5.556,2.636v-8.844a18.235,18.235,0,0,1-10.53-16.453,18.156,18.156,0,0,1,7.947-14.981c.764-.521,3.085-2.107,5.111-.938,1.989,1.146,1.789,3.832,1.7,4.979-.008.1-.015.184-.017.246v9.645a4.365,4.365,0,0,0,3.929,4.334,4.362,4.362,0,0,0,3.923-4.334v-9.66c0-.047-.009-.131-.016-.23-.084-1.147-.283-3.834,1.708-4.98,2.027-1.167,4.345.418,5.107.939a18.157,18.157,0,0,1,7.946,14.981,18.235,18.235,0,0,1-10.524,16.452v8.845a25.4,25.4,0,0,0,5.548-2.635,2.047,2.047,0,0,1,2.543.282l1.88,1.88a.482.482,0,0,0,.349.145.476.476,0,0,0,.344-.14l5.041-5.036a.488.488,0,0,0,.14-.347.491.491,0,0,0-.14-.349l-1.88-1.88a2.047,2.047,0,0,1-.283-2.541,25.588,25.588,0,0,0,3.337-8.049,2.047,2.047,0,0,1,2-1.6h2.651a.507.507,0,0,0,.494-.494h0v-7.119A.5.5,0,0,0-3690.728-7202.7Z" transform="translate(3782.702 7232.912)" fill="#ee0790"/>
      <path id="Path_1465" data-name="Path 1465" d="M-3860.8-6938.385h-8.186a1.34,1.34,0,0,0-1.335,1.342v21.484a1.353,1.353,0,0,0,1.335,1.335h8.186a1.356,1.356,0,0,0,1.341-1.335v-21.484A1.359,1.359,0,0,0-3860.8-6938.385Z" transform="translate(3874.415 7010.481)" fill="#0ed8d0"/>
      <path id="Path_1466" data-name="Path 1466" d="M-3654.834-7143.059a14.068,14.068,0,0,0-6.163-11.6c-.173-.118-.325-.214-.458-.293.007.268.026.522.036.654.015.207.027.37.027.532v9.66a8.465,8.465,0,0,1-7.881,8.43,2.1,2.1,0,0,1-.271,0,8.469,8.469,0,0,1-7.887-8.43v-9.66c0-.163.012-.327.028-.535.01-.132.029-.385.036-.651-.134.079-.287.176-.46.294a14.064,14.064,0,0,0-6.162,11.6,14.12,14.12,0,0,0,9.2,13.171,2.047,2.047,0,0,1,1.335,1.919v15.561a.5.5,0,0,0,.494.495h7.113a.5.5,0,0,0,.494-.495h0v-15.561a2.048,2.048,0,0,1,1.334-1.919A14.122,14.122,0,0,0-3654.834-7143.059Z" transform="translate(3731.712 7176.343)" fill="#0ed8d0"/>
      <path id="Path_1467" data-name="Path 1467" d="M-3704.119-7220.186h-1.062a29.644,29.644,0,0,0-2.62-6.321l.755-.756a4.551,4.551,0,0,0,1.339-3.243,4.553,4.553,0,0,0-1.34-3.244l-5.031-5.025a4.545,4.545,0,0,0-3.247-1.347,4.54,4.54,0,0,0-3.243,1.343l-.754.754a29.556,29.556,0,0,0-6.323-2.625v-1.062a4.592,4.592,0,0,0-4.587-4.588h-7.113a4.593,4.593,0,0,0-4.588,4.588v1.062a29.648,29.648,0,0,0-6.327,2.626l-.751-.751a4.547,4.547,0,0,0-3.248-1.347,4.541,4.541,0,0,0-3.242,1.343l-5.03,5.03a4.551,4.551,0,0,0-1.339,3.243,4.55,4.55,0,0,0,1.339,3.242l.755.756a29.47,29.47,0,0,0-2.622,6.321h-1.066a4.594,4.594,0,0,0-4.588,4.589v7.119a4.593,4.593,0,0,0,4.588,4.588h1.066a29.46,29.46,0,0,0,2.622,6.321l-.755.755a4.554,4.554,0,0,0-1.339,3.243,4.554,4.554,0,0,0,1.339,3.243l5.026,5.026a4.545,4.545,0,0,0,3.247,1.348h0a4.543,4.543,0,0,0,3.243-1.343l.755-.755a29.468,29.468,0,0,0,6.328,2.623v1.066a4.593,4.593,0,0,0,4.588,4.588h7.113a4.593,4.593,0,0,0,4.588-4.588v-1.066a29.355,29.355,0,0,0,6.323-2.622l.75.75a4.544,4.544,0,0,0,3.247,1.348,4.54,4.54,0,0,0,3.242-1.343l5.037-5.031a4.555,4.555,0,0,0,1.339-3.243,4.555,4.555,0,0,0-1.339-3.243l-.755-.755a29.657,29.657,0,0,0,2.62-6.321h1.062a4.593,4.593,0,0,0,4.588-4.588v-7.119A4.593,4.593,0,0,0-3704.119-7220.186Zm-24.285,20.342a2.047,2.047,0,0,0-1.334,1.919v15.561h0a.5.5,0,0,1-.494.495h-7.113a.5.5,0,0,1-.494-.495v-15.561a2.047,2.047,0,0,0-1.335-1.919,14.121,14.121,0,0,1-9.2-13.171,14.067,14.067,0,0,1,6.162-11.6c.173-.118.326-.215.46-.294-.007.266-.026.519-.036.651-.016.207-.028.372-.028.534v9.66a8.468,8.468,0,0,0,7.887,8.43,1.938,1.938,0,0,0,.271,0,8.466,8.466,0,0,0,7.881-8.43v-9.66c0-.162-.012-.325-.027-.531-.01-.133-.029-.387-.036-.654.134.079.286.175.458.293a14.069,14.069,0,0,1,6.163,11.6A14.123,14.123,0,0,1-3728.4-7199.844Zm24.78-8.634h0a.507.507,0,0,1-.494.494h-2.652a2.047,2.047,0,0,0-2,1.6,25.582,25.582,0,0,1-3.337,8.049,2.047,2.047,0,0,0,.283,2.541l1.88,1.88a.491.491,0,0,1,.14.349.489.489,0,0,1-.139.347l-5.041,5.036a.476.476,0,0,1-.344.14.48.48,0,0,1-.348-.145l-1.88-1.88a2.048,2.048,0,0,0-2.543-.282,25.4,25.4,0,0,1-5.548,2.635v-8.845a18.236,18.236,0,0,0,10.524-16.452,18.157,18.157,0,0,0-7.947-14.981c-.762-.521-3.08-2.106-5.107-.939-1.991,1.146-1.792,3.833-1.708,4.98.007.1.014.183.016.23v9.66a4.362,4.362,0,0,1-3.923,4.334,4.365,4.365,0,0,1-3.929-4.334v-9.645c0-.062.009-.146.017-.246.085-1.146.285-3.832-1.7-4.979-2.027-1.169-4.348.417-5.112.938a18.156,18.156,0,0,0-7.947,14.981,18.235,18.235,0,0,0,10.53,16.453v8.844a25.508,25.508,0,0,1-5.556-2.636,2.046,2.046,0,0,0-1.093-.316,2.044,2.044,0,0,0-1.448.6l-1.884,1.884a.475.475,0,0,1-.344.14.479.479,0,0,1-.348-.144l-5.03-5.031a.49.49,0,0,1-.14-.348.491.491,0,0,1,.14-.349l1.88-1.88a2.047,2.047,0,0,0,.283-2.541,25.468,25.468,0,0,1-3.336-8.046,2.047,2.047,0,0,0-2-1.6h-2.657a.508.508,0,0,1-.494-.495v-7.119a.5.5,0,0,1,.494-.495h2.657a2.047,2.047,0,0,0,2-1.6,25.461,25.461,0,0,1,3.336-8.046,2.047,2.047,0,0,0-.283-2.541l-1.88-1.879a.493.493,0,0,1-.14-.349.492.492,0,0,1,.14-.348l5.034-5.035a.477.477,0,0,1,.344-.14.481.481,0,0,1,.348.145l1.88,1.88a2.046,2.046,0,0,0,2.541.283,25.588,25.588,0,0,1,8.054-3.342,2.046,2.046,0,0,0,1.6-2v-2.651a.5.5,0,0,1,.495-.495h7.113a.5.5,0,0,1,.494.495v2.652a2.047,2.047,0,0,0,1.6,2,25.481,25.481,0,0,1,8.047,3.341,2.047,2.047,0,0,0,2.543-.282l1.884-1.884a.477.477,0,0,1,.344-.14.481.481,0,0,1,.349.146l5.035,5.029a.494.494,0,0,1,.14.349.491.491,0,0,1-.141.348l-1.88,1.88a2.048,2.048,0,0,0-.283,2.541,25.611,25.611,0,0,1,3.337,8.049,2.047,2.047,0,0,0,2,1.6h2.651a.5.5,0,0,1,.495.495Z" transform="translate(3796.092 7246.3)" fill="#002158"/>
      <path id="Path_1468" data-name="Path 1468" d="M-3572.745-6863.367a2.047,2.047,0,0,0,0,2.9,2.041,2.041,0,0,0,1.447.6,2.041,2.041,0,0,0,1.447-.6l.006-.006a2.043,2.043,0,0,0,0-2.892A2.05,2.05,0,0,0-3572.745-6863.367Z" transform="translate(3646.974 6953.489)" fill="#002158"/>
      <path id="Path_1469" data-name="Path 1469" d="M-3804.094-6953.576h0l-16.249,8.345a7.546,7.546,0,0,0-5.442-2.316h-11.134a3.04,3.04,0,0,1-.786-.053,6.024,6.024,0,0,1-.6-.531l-.1-.1c-9.007-8.479-16.616-7.942-25.269-4.527a5.893,5.893,0,0,1-2.833.614h-2.518a5.443,5.443,0,0,0-5.159-3.729h-8.186a5.439,5.439,0,0,0-5.429,5.436v21.484a5.435,5.435,0,0,0,5.429,5.429h8.186a5.443,5.443,0,0,0,5.159-3.725h4.6a2.169,2.169,0,0,1,.88.134c.172.048.381.107.651.18l21.183,5.667c.934.252,1.79.5,2.618.74a26.688,26.688,0,0,0,7.373,1.448c2.688,0,5.5-.845,9.194-3.308l.053-.037,4.044-2.883a2.047,2.047,0,0,0,.479-2.855,2.047,2.047,0,0,0-2.855-.479l-4.017,2.865c-5.363,3.567-7.641,2.908-13.13,1.317-.846-.245-1.72-.5-2.695-.762l-21.184-5.667c-.248-.066-.443-.121-.6-.166a5.689,5.689,0,0,0-1.99-.287h-4.329v-16.706h2.211l.088,0,.116,0a9.593,9.593,0,0,0,4.161-.9c7.6-3,13.466-3.355,20.963,3.7l.1.1a4.956,4.956,0,0,0,4.194,1.695h11.134a3.477,3.477,0,0,1,3.04,1.794l.021.035a3.456,3.456,0,0,1,.416,1.648,3.477,3.477,0,0,1-3.476,3.471h-18.043a2.047,2.047,0,0,0-2.046,2.046,2.047,2.047,0,0,0,2.046,2.047h18.043a7.575,7.575,0,0,0,7.57-7.564,7.568,7.568,0,0,0-.183-1.65l16.175-8.306a3.477,3.477,0,0,1,4.664.984,3.447,3.447,0,0,1-1.176,4.6l-7.1,5.054a2.047,2.047,0,0,0-.48,2.855,2.044,2.044,0,0,0,1.669.859,2.039,2.039,0,0,0,1.186-.38l7.1-5.054a7.491,7.491,0,0,0,2.283-10.08A7.55,7.55,0,0,0-3804.094-6953.576Zm-68.754,24.628a1.357,1.357,0,0,1-1.342,1.336h-8.186a1.354,1.354,0,0,1-1.335-1.336v-21.484a1.34,1.34,0,0,1,1.335-1.342h8.186a1.36,1.36,0,0,1,1.342,1.342Z" transform="translate(3887.805 7023.872)" fill="#002158"/>
    </g>
  </g>
</svg>
