<svg xmlns="http://www.w3.org/2000/svg" width="112" height="111.998" viewBox="0 0 112 111.998">
  <g id="Group_157" data-name="Group 157" transform="translate(3120.604 8012.651)">
    <path id="Path_1417" data-name="Path 1417" d="M-3047.572-7791.241h25.29v-4.214l3.613-4.818a9.084,9.084,0,0,0,1.806-5.419v-19.872a1.807,1.807,0,0,0-1.806-1.806,1.807,1.807,0,0,0-1.807,1.806v3.613h-3.613v-7.225a1.807,1.807,0,0,0-1.807-1.807,1.807,1.807,0,0,0-1.806,1.807v7.225h-3.613v-7.225a1.807,1.807,0,0,0-1.807-1.807,1.807,1.807,0,0,0-1.806,1.807v7.225h-3.613v-28.9a1.807,1.807,0,0,0-1.806-1.806,1.807,1.807,0,0,0-1.807,1.806v39.666h-3.613v-6.708a9.563,9.563,0,0,0-9.549-9.55,1.167,1.167,0,0,0-1.29,1.116,1.112,1.112,0,0,0,.117.5l2.1,4.211a13.245,13.245,0,0,1,1.391,5.888v7.42a9.093,9.093,0,0,0,.941,4.014l4.479,9.02Z" transform="translate(-49.548 -123.864)"/>
    <path id="Path_1418" data-name="Path 1418" d="M-3001.895-7564.66h-28.9a1.806,1.806,0,0,0-1.806,1.806v5.42h32.516v-5.42A1.807,1.807,0,0,0-3001.895-7564.66Z" transform="translate(-68.129 -346.832)"/>
    <path id="Path_1419" data-name="Path 1419" d="M-3033.12-7859.37a5.379,5.379,0,0,1,3.613,1.409,5.388,5.388,0,0,1,2.6-1.306,16.09,16.09,0,0,0,2.824-9.135,16.276,16.276,0,0,0-16.258-16.258A16.275,16.275,0,0,0-3056.6-7868.4a16.305,16.305,0,0,0,10.839,15.317v-22.542a5.426,5.426,0,0,1,5.419-5.419,5.426,5.426,0,0,1,5.419,5.419v16.59A5.36,5.36,0,0,1-3033.12-7859.37Z" transform="translate(-49.548 -99.09)"/>
    <rect id="Rectangle_33" data-name="Rectangle 33" width="18.162" height="18.162" transform="translate(-3051.739 -7929.402)"/>
    <circle id="Ellipse_9" data-name="Ellipse 9" cx="1.892" cy="1.892" r="1.892" transform="translate(-3048.712 -7998.267)"/>
    <path id="Path_1420" data-name="Path 1420" d="M-2804.991-7849.047a3.617,3.617,0,0,0,3.613-3.613h-7.226A3.616,3.616,0,0,0-2804.991-7849.047Z" transform="translate(-241.548 -123.864)"/>
    <path id="Path_1421" data-name="Path 1421" d="M-3097.378-7905.563a19.894,19.894,0,0,1,19.871-19.871,19.9,19.9,0,0,1,19.871,19.871,19.686,19.686,0,0,1-2.618,9.836,5.409,5.409,0,0,1,2.409,3.207,5.82,5.82,0,0,1,.641-.2l-.282-.549.475-.846a23.491,23.491,0,0,0,2.081-5.053l.264-.934,4.256-1.362v-8.2l-4.256-1.36-.264-.934a23.309,23.309,0,0,0-2.083-5.052l-.473-.847,2.041-3.963-5.8-5.8-3.963,2.042-.847-.474a23.278,23.278,0,0,0-5.053-2.083l-.934-.264-1.362-4.256h-8.2l-1.36,4.256-.934.264a23.292,23.292,0,0,0-5.053,2.083l-.847.474-3.963-2.042-5.8,5.8,2.042,3.963-.473.847a23.284,23.284,0,0,0-2.083,5.052l-.264.934-4.255,1.362v8.2l4.255,1.36.264.934a23.466,23.466,0,0,0,2.081,5.053l.475.846-2.042,3.965,2.428,2.426a4.726,4.726,0,0,1-.237-1.387,4.725,4.725,0,0,1,4.518-4.708A19.86,19.86,0,0,1-3097.378-7905.563Z" transform="translate(-12.387 -61.928)"/>
    <path id="Path_1422" data-name="Path 1422" d="M-2842.753-7973.368a7.039,7.039,0,0,1,3.16,5.6h1.834v-11.171a5.413,5.413,0,0,1-3.613-5.087,5.426,5.426,0,0,1,5.419-5.419,5.426,5.426,0,0,1,5.419,5.419,5.413,5.413,0,0,1-3.613,5.087v11.171h1.83a7.039,7.039,0,0,1,3.194-5.623,12.6,12.6,0,0,0,5.815-10.635,12.672,12.672,0,0,0-4.226-9.435,12.5,12.5,0,0,0-8.4-3.211,13.045,13.045,0,0,0-1.5.087,12.686,12.686,0,0,0-11.055,10.887A12.594,12.594,0,0,0-2842.753-7973.368Z" transform="translate(-210.586 -12.374)"/>
    <path id="Path_1423" data-name="Path 1423" d="M-2816.6-7546.854a1.807,1.807,0,0,0,1.806,1.807h14.452a1.807,1.807,0,0,0,1.806-1.807v-1.806H-2816.6Z" transform="translate(-235.355 -359.218)"/>
    <path id="Path_1424" data-name="Path 1424" d="M-2854.282-7881.481h-3.613v-4.544l6.2-4.427a39.545,39.545,0,0,0-7.978-8.959c0,.084-.029.16-.029.242v3.236a7.232,7.232,0,0,1-7.226,7.225,7.232,7.232,0,0,1-7.226-7.225v-3.162a3.556,3.556,0,0,0-1.518-3.012,16.2,16.2,0,0,1-5.705-6.286,40.743,40.743,0,0,0-6.989-.022l4.563,4.563-2.37,4.6a27.169,27.169,0,0,1,1.66,4.026l4.939,1.583v13.474l-4.941,1.585a27.127,27.127,0,0,1-1.66,4.026l.658,1.275a5.41,5.41,0,0,1,2.33,4.441v19.871a12.714,12.714,0,0,1-2.529,7.587l-2.89,3.854v3.344a5.408,5.408,0,0,1,3.609,5.057,40.353,40.353,0,0,0,9.036-1.031v-24.229a5.427,5.427,0,0,1,5.419-5.42h14.452a5.427,5.427,0,0,1,5.419,5.42v5.553a39.176,39.176,0,0,0,5.345-18.2h-8.958Zm-18.064,14.451h-3.613v-3.612h3.613Zm7.226,0h-3.613v-3.612h3.613Zm7.226,0h-3.613v-3.612h3.613Z" transform="translate(-179.613 -80.591)"/>
    <rect id="Rectangle_34" data-name="Rectangle 34" width="14.378" height="10.595" transform="translate(-3030.55 -7961.943)"/>
    <path id="Path_1425" data-name="Path 1425" d="M-2800.346-7676.66H-2814.8a1.807,1.807,0,0,0-1.806,1.806v1.807h18.064v-1.807A1.807,1.807,0,0,0-2800.346-7676.66Z" transform="translate(-235.355 -260.122)"/>
    <path id="Path_1426" data-name="Path 1426" d="M-2730.837-7828.016h19.073l-9.536-6.812Z" transform="translate(-301.755 -137.669)"/>
    <path id="Path_1427" data-name="Path 1427" d="M-3028.369-7973.143a43.106,43.106,0,0,0-8.943-9.9,16.178,16.178,0,0,0,7.031-13.349,16.278,16.278,0,0,0-5.43-12.128,16.364,16.364,0,0,0-12.716-4.025,16.344,16.344,0,0,0-14.235,14.023,16.489,16.489,0,0,0,.32,5.813,43.811,43.811,0,0,0-8.884.457l-1.718-1.718-4.6,2.37a27.28,27.28,0,0,0-4.027-1.66l-1.582-4.939h-13.474l-1.582,4.939a27.215,27.215,0,0,0-4.027,1.66l-4.6-2.37-9.527,9.527,2.37,4.6a27.267,27.267,0,0,0-1.66,4.026l-4.94,1.586v13.475l4.938,1.582a27.089,27.089,0,0,0,1.66,4.027l-2.37,4.6,9.527,9.525.526-.27a9.333,9.333,0,0,1,.17,1.688v7.421a12.71,12.71,0,0,0,1.319,5.622l4.1,8.259v3.522a5.412,5.412,0,0,0-3.613,5.087v9.032h39.742v-5.42a43.607,43.607,0,0,0,9.032-.957v.957a5.425,5.425,0,0,0,5.419,5.42h14.451a5.426,5.426,0,0,0,5.419-5.42v-16.9a42.8,42.8,0,0,0,8.958-24.649h9.107v-14.452h3.613v-4.542l-14.451-10.322Z" transform="translate(0 0)" fill="#002158"/>
    <path id="Path_1428" data-name="Path 1428" d="M-2848.49-7985.693a12.686,12.686,0,0,1,11.055-10.887,13.045,13.045,0,0,1,1.5-.087,12.5,12.5,0,0,1,8.4,3.211,12.672,12.672,0,0,1,4.226,9.435,12.6,12.6,0,0,1-5.815,10.635,7.039,7.039,0,0,0-3.194,5.623h-1.83v-11.171a5.413,5.413,0,0,0,3.613-5.087,5.426,5.426,0,0,0-5.419-5.419,5.426,5.426,0,0,0-5.419,5.419,5.413,5.413,0,0,0,3.613,5.087v11.171h-1.834a7.039,7.039,0,0,0-3.16-5.6A12.594,12.594,0,0,1-2848.49-7985.693Z" transform="translate(-210.586 -12.374)" fill="#004b7a"/>
    <path id="Path_1429" data-name="Path 1429" d="M-2801.378-7852.66a3.617,3.617,0,0,1-3.613,3.613,3.616,3.616,0,0,1-3.613-3.613Z" transform="translate(-241.548 -123.864)"/>
    <circle id="Ellipse_10" data-name="Ellipse 10" cx="1.892" cy="1.892" r="1.892" transform="translate(-3048.712 -7998.267)"/>
    <path id="Path_1430" data-name="Path 1430" d="M-3097.378-7888.265a4.726,4.726,0,0,0,.237,1.387l-2.428-2.426,2.042-3.965-.475-.846a23.466,23.466,0,0,1-2.081-5.053l-.264-.934-4.255-1.36v-8.2l4.255-1.362.264-.934a23.284,23.284,0,0,1,2.083-5.052l.473-.847-2.042-3.963,5.8-5.8,3.963,2.042.847-.474a23.292,23.292,0,0,1,5.053-2.083l.934-.264,1.36-4.256h8.2l1.362,4.256.934.264a23.278,23.278,0,0,1,5.053,2.083l.847.474,3.963-2.042,5.8,5.8-2.041,3.963.473.847a23.309,23.309,0,0,1,2.083,5.052l.264.934,4.256,1.36v8.2l-4.256,1.362-.264.934a23.491,23.491,0,0,1-2.081,5.053l-.475.846.282.549a5.82,5.82,0,0,0-.641.2,5.409,5.409,0,0,0-2.409-3.207,19.686,19.686,0,0,0,2.618-9.836,19.9,19.9,0,0,0-19.871-19.871,19.894,19.894,0,0,0-19.871,19.871,19.86,19.86,0,0,0,4.518,12.591A4.725,4.725,0,0,0-3097.378-7888.265Z" transform="translate(-12.387 -61.928)" fill="#ee0790"/>
    <path id="Path_1431" data-name="Path 1431" d="M-3040.346-7881.047a5.426,5.426,0,0,0-5.419,5.419v22.542A16.305,16.305,0,0,1-3056.6-7868.4a16.275,16.275,0,0,1,16.258-16.258,16.276,16.276,0,0,1,16.258,16.258,16.09,16.09,0,0,1-2.824,9.135,5.388,5.388,0,0,0-2.6,1.306,5.379,5.379,0,0,0-3.613-1.409,5.36,5.36,0,0,0-1.806.333v-16.59A5.426,5.426,0,0,0-3040.346-7881.047Z" transform="translate(-49.548 -99.09)" fill="#090c4b" style="mix-blend-mode: screen;isolation: isolate"/>
    <path id="Path_1432" data-name="Path 1432" d="M-3052.05-7804.3a9.093,9.093,0,0,1-.941-4.014v-7.42a13.245,13.245,0,0,0-1.391-5.888l-2.1-4.211a1.112,1.112,0,0,1-.117-.5,1.167,1.167,0,0,1,1.29-1.116,9.563,9.563,0,0,1,9.549,9.55v6.708h3.613v-39.666a1.807,1.807,0,0,1,1.807-1.806,1.807,1.807,0,0,1,1.806,1.806v28.9h3.613v-7.225a1.807,1.807,0,0,1,1.806-1.807,1.807,1.807,0,0,1,1.807,1.807v7.225h3.613v-7.225a1.807,1.807,0,0,1,1.806-1.807,1.807,1.807,0,0,1,1.807,1.807v7.225h3.613v-3.613a1.807,1.807,0,0,1,1.807-1.806,1.807,1.807,0,0,1,1.806,1.806v19.872a9.084,9.084,0,0,1-1.806,5.419l-3.613,4.818v4.214h-25.29v-4.035Z" transform="translate(-49.548 -123.864)" fill="#00497f"/>
    <path id="Path_1433" data-name="Path 1433" d="M-3000.088-7557.435H-3032.6v-5.42a1.806,1.806,0,0,1,1.806-1.806h28.9a1.807,1.807,0,0,1,1.807,1.806Z" transform="translate(-68.129 -346.832)" fill="#0ed8d0"/>
    <path id="Path_1434" data-name="Path 1434" d="M-2798.54-7546.854a1.807,1.807,0,0,1-1.806,1.807H-2814.8a1.807,1.807,0,0,1-1.806-1.807v-1.806h18.064Z" transform="translate(-235.355 -359.218)" fill="#004b7a"/>
    <rect id="Rectangle_35" data-name="Rectangle 35" width="18.162" height="18.162" transform="translate(-3051.739 -7929.402)" fill="#0ed8d0"/>
    <path id="Path_1435" data-name="Path 1435" d="M-2798.54-7673.048H-2816.6v-1.807a1.807,1.807,0,0,1,1.806-1.806h14.452a1.807,1.807,0,0,1,1.806,1.806Z" transform="translate(-235.355 -260.122)" fill="#004b7a"/>
    <path id="Path_1436" data-name="Path 1436" d="M-2850.669-7848.832h0v-5.553a5.427,5.427,0,0,0-5.419-5.42h-14.452a5.427,5.427,0,0,0-5.419,5.42v24.229a40.353,40.353,0,0,1-9.036,1.031,5.408,5.408,0,0,0-3.609-5.057v-3.344l2.89-3.854a12.714,12.714,0,0,0,2.529-7.587v-19.871a5.41,5.41,0,0,0-2.33-4.441l-.658-1.275a27.127,27.127,0,0,0,1.66-4.026l4.941-1.585v-13.474l-4.939-1.583a27.169,27.169,0,0,0-1.66-4.026l2.37-4.6-4.563-4.562a40.743,40.743,0,0,1,6.989.022,16.2,16.2,0,0,0,5.705,6.286,3.556,3.556,0,0,1,1.518,3.012v3.162a7.232,7.232,0,0,0,7.226,7.225,7.232,7.232,0,0,0,7.226-7.225v-3.236c0-.082.024-.158.029-.242a39.545,39.545,0,0,1,7.978,8.959l-6.2,4.427v4.544h3.613v14.451h8.958A39.176,39.176,0,0,1-2850.669-7848.832Z" transform="translate(-179.613 -80.591)" fill="#0ed8d0"/>
    <rect id="Rectangle_36" data-name="Rectangle 36" width="14.378" height="10.595" transform="translate(-3030.55 -7961.943)" fill="#ee0790"/>
    <path id="Path_1437" data-name="Path 1437" d="M-2730.837-7828.016l9.536-6.812,9.536,6.812Z" transform="translate(-301.755 -137.669)" fill="#004b7a"/>
    <rect id="Rectangle_37" data-name="Rectangle 37" width="3.784" height="3.784" transform="translate(-3041.145 -7951.349)"/>
    <rect id="Rectangle_38" data-name="Rectangle 38" width="3.784" height="3.784" transform="translate(-3048.712 -7951.349)"/>
    <rect id="Rectangle_39" data-name="Rectangle 39" width="3.784" height="3.784" transform="translate(-3055.523 -7951.349)"/>
  </g>
</svg>
