<svg xmlns="http://www.w3.org/2000/svg" xmlns:xlink="http://www.w3.org/1999/xlink" width="85.882" height="81.063" viewBox="0 0 85.882 81.063">
  <defs>
    <filter id="Path_1473" x="0" y="0" width="85.882" height="81.063" filterUnits="userSpaceOnUse">
      <feOffset input="SourceAlpha"/>
      <feGaussianBlur stdDeviation="5" result="blur"/>
      <feFlood flood-color="#f21289"/>
      <feComposite operator="in" in2="blur"/>
      <feComposite in="SourceGraphic"/>
    </filter>
  </defs>
  <g id="Group_164" data-name="Group 164" transform="translate(3342.825 4491.139)">
    <g transform="matrix(1, 0, 0, 1, -3342.83, -4491.14)" filter="url(#Path_1473)">
      <path id="Path_1473-2" data-name="Path 1473" d="M-3271.427-4481.539h-56.914a4.889,4.889,0,0,0-4.884,4.883v42.979a4.889,4.889,0,0,0,4.884,4.884h20.845l-1.175,4.115a4.516,4.516,0,0,1-4.042,3.048h-7.358a.977.977,0,0,0-.977.977.977.977,0,0,0,.977.977h40.374a.977.977,0,0,0,.977-.977.977.977,0,0,0-.977-.977h-7.358a4.515,4.515,0,0,1-4.042-3.048l-1.176-4.115h20.845a4.89,4.89,0,0,0,4.884-4.884v-42.979A4.889,4.889,0,0,0-3271.427-4481.539Zm-56.914,1.953h56.914a2.934,2.934,0,0,1,2.931,2.93v34.188h-62.775v-34.188A2.934,2.934,0,0,1-3328.341-4479.586Zm35.365,55.444a5.961,5.961,0,0,0,1.5,2.512h-16.816a5.962,5.962,0,0,0,1.5-2.512l1.329-4.651h11.159Zm21.548-6.6h-56.914a2.934,2.934,0,0,1-2.93-2.93v-6.837h62.775v6.837A2.934,2.934,0,0,1-3271.427-4430.747Z" transform="translate(3342.83 4491.14)" fill="#fff" stroke="#f21289" stroke-width="1.2"/>
    </g>
    <path id="Path_1474" data-name="Path 1474" d="M-3303.961-4420.042h56.914a.977.977,0,0,0,.977-.978v-31.257a.977.977,0,0,0-.977-.977h-56.914a.977.977,0,0,0-.977.977v13.675a.976.976,0,0,0,.977.977.976.976,0,0,0,.977-.977v-12.7h54.96v29.3h-54.96v-12.7a.977.977,0,0,0-.977-.977.977.977,0,0,0-.977.977v13.675A.977.977,0,0,0-3303.961-4420.042Z" transform="translate(-24.38 -24.379)" fill="#fff" stroke="#f21289" stroke-width="1.2"/>
    <path id="Path_1475" data-name="Path 1475" d="M-3110.134-4170.391a2.933,2.933,0,0,0-2.93,2.93,2.934,2.934,0,0,0,2.93,2.93,2.934,2.934,0,0,0,2.931-2.93A2.934,2.934,0,0,0-3110.134-4170.391Zm0,3.907a.978.978,0,0,1-.977-.977.978.978,0,0,1,.977-.977.978.978,0,0,1,.977.977A.979.979,0,0,1-3110.134-4166.484Z" transform="translate(-189.75 -268.169)" fill="#fff" stroke="#f21289" stroke-width="1.2"/>
  </g>
</svg>
