<svg xmlns="http://www.w3.org/2000/svg" width="545.563" height="276.085" viewBox="0 0 545.563 276.085">
  <g id="Group_300" data-name="Group 300" transform="translate(-6996.197 -3913.731)">
    <path id="Path_1986" data-name="Path 1986" d="M8288.236,5175.507l-286.652-14.123v92h286.652Z" transform="translate(-864.396 -1072.688)" fill="#a5b2c7" fill-rule="evenodd"/>
    <g id="Group_295" data-name="Group 295" transform="translate(7069.854 3978.698)">
      <path id="Path_1987" data-name="Path 1987" d="M7525.734,4377.012c-3.346-.179-5.272,2.674-3.792,9.69l29.915,142.828,109.544-48.873-25.8-89.527c-.859-1.731-1.887-2.787-4.768-3.508Z" transform="translate(-7521.438 -4377.004)" fill="#7e838c" fill-rule="evenodd"/>
      <path id="Path_1988" data-name="Path 1988" d="M7704.5,5054.042l4.747,22.666,109.545-48.874-4.06-14.4Z" transform="translate(-7678.826 -4924.181)" fill="#7e838c" fill-rule="evenodd"/>
    </g>
    <path id="Path_1989" data-name="Path 1989" d="M7954.292,5634.24,7899,5636.9c-.822.371-3.848,1.17-4.045,1.994-6.773,5.219.342,12.695,10.151,13.686,16.06,1.622,52.229,5.479,51.88-16.4C7956.965,5634.97,7955.217,5634.615,7954.292,5634.24Z" transform="translate(-770.422 -1479.233)" fill="#eeedf1" fill-rule="evenodd"/>
    <path id="Path_1990" data-name="Path 1990" d="M7843.285,5301.208l40.281-16.784c0,2.7.01,2.59.61,3.509a5.123,5.123,0,0,0,3.205,1.208c4.266.344,25.486,1.069,27.717,4.756.469.776-.012.9.356,1.971l-27.159,16.479c-2.725,1.288-6.9,2.182-9.154,1.067Z" transform="translate(-728.296 -1178.473)" fill="#cdd8e4" fill-rule="evenodd"/>
    <path id="Path_1991" data-name="Path 1991" d="M7848.543,5346.12l21.84-9.1V5345a3.594,3.594,0,0,1-3.584,3.583H7854.15l-5.312-1.808A3.684,3.684,0,0,1,7848.543,5346.12Z" transform="translate(-732.817 -1223.693)" fill="#b2c4d6" fill-rule="evenodd"/>
    <path id="Path_1992" data-name="Path 1992" d="M8390.413,5248.225l90.935-92.841.471,78.208-34.241,11.015v-29.864l-25.929,33.482Z" transform="translate(-1198.697 -1067.528)" fill="#0c2143" fill-rule="evenodd"/>
    <path id="Path_1993" data-name="Path 1993" d="M8252.441,5327.846l-10.462,4.635,1,5.131,42.113,8.239,28.074-36.009.915-3.662Z" transform="translate(-1071.079 -1197.178)" fill="#b2b4bd" fill-rule="evenodd"/>
    <path id="Path_1994" data-name="Path 1994" d="M9118.519,4042.7l-27,37.2a20.1,20.1,0,0,0-3.311-12.691c-5.437-8.263-15.409-24.112-15.608-23.881-7.924,9.226-14.937,16.3-20.794,17.042-5.679.722-11.261-5.021-11.261-9.7,0-5.305,2.848-11.711-.971-12.5-.464-2.243-.8-2.047-.035-4.792-.043-.548,1.1-2.045.688-3-.838-.634-2.771,1.106-5.449-1.022-.809-2.334.943-6.064,1.7-8.268,2.156-6.25,2.229-6.37.149-11.1-2.289-5.212-1.181-15.588-1.181-21.643-6.665-7-5.108-12.644-3.424-22.936,1.379-8.434,17.258-8.947,24.619-9.852,15.342-1.885,47.013,2.835,47.013,24,0,15.521,1.4,14.427-1.907,23.462C9101.337,4007.608,9112.658,4041.343,9118.519,4042.7Z" transform="translate(-1749.076 -35.628)" fill="#004b7a" fill-rule="evenodd"/>
    <path id="Path_1995" data-name="Path 1995" d="M9059.314,4392.271c-.809-2.334.942-6.064,1.7-8.267,1.23-3.566,1.782-5.137,1.645-6.708C9063.758,4376.848,9060.217,4392.988,9059.314,4392.271Z" transform="translate(-1773.615 -398.549)" fill="#0d6499" fill-rule="evenodd"/>
    <path id="Path_1996" data-name="Path 1996" d="M9097.239,4441.7l2.174-.956c1.023,1.6,1.139,2.868-1.22,3a13.317,13.317,0,0,1-3.3.666A3.6,3.6,0,0,1,9097.239,4441.7Z" transform="translate(-1804.381 -453.11)" fill="#0d6499" fill-rule="evenodd"/>
    <path id="Path_1997" data-name="Path 1997" d="M9095.793,4316.216l3.933.491c-.321.537.924,3.032-.641,4.314-6.374,5.223-8.634,9.111-7.046,13.715-.938,0-3.553-.854-4.234-.854-.5-3.473-.033-2.09-.99-7.282-2.109-3.519-1.756-3-1.65-6.316C9085.6,4318.66,9093.912,4316.216,9095.793,4316.216Z" transform="translate(-1795.943 -346.042)" fill="#0d6499" fill-rule="evenodd"/>
    <path id="Path_1998" data-name="Path 1998" d="M9099.567,4443.063c-.257.5,3.078-1.353,3.966-.577.688.6,1.787,2.753.6,4.207-.541.665.887-.42.091.2.676.539,1.934-.1,1.934-.1,1.312.344-.763-2.966-1.572-4.5-.625-1.186-1.423-1.446-2.964-.979A4.5,4.5,0,0,0,9099.567,4443.063Z" transform="translate(-1808.391 -453.403)" fill="#0d6499" fill-rule="evenodd"/>
    <path id="Path_1999" data-name="Path 1999" d="M9049.922,4021.267c-4.268,3.582-6.594,2.912-11.006,3.474-5.678.722-11.261-5.021-11.261-9.7,0-3.092.968-6.556,1.019-9.066l-.16-1.672a2.235,2.235,0,0,0-1.829-1.763c-.464-.022-.8-2.047-.034-4.792-.045-.548,1.094-2.045.686-3a.788.788,0,0,0-.373-.131,15.806,15.806,0,0,1,12.162-1.4c6.488,1.9,7.667.514,10.433-4.354,3.78-6.654,2.4-19.221.593-22.411-2.119-3.73-4.165-5.63-7.279-8.685l-.365-.36c-1.929-1.893-2.072-3.552-1.706-4.944.616-2.342,3.042-6.817-3.175-6.541-5.105.227-12.814,6.375-14.7,9.1-5.986-6.671-8.48-15.215-6.866-25.141,4.145-25.5,81.85-21.166,78.077,15.543-1.662,16.155-.721,15.988-3.182,24.74-.432,4.864.714,5.27.617,9.242-6.045.041-14.846-8.051-13.931-14.318.6-4.118-1.343-10.385-4.546-11.08-4.207-.914-7.243,2.987-9.675,4.371-.7.4-6.317-4.57-7.643,1.95-1.224,6.014,2.168,17.283,4.659,22.828,2.127,4.737,10.087,10.242,9.066,14.758-.784,3.468-3.207,6.481-6,9.23C9059.06,4011.511,9054.02,4017.829,9049.922,4021.267Z" transform="translate(-1736.189 0)" fill="#00184b" fill-rule="evenodd"/>
    <path id="Path_2000" data-name="Path 2000" d="M9070.727,4318.384l.112-.114c2.584-.806,6.008-2.687,8.63-2.993,2.17-.251,5.963.8,8.162.8.1,1.18-14.134,4.483-15.989,4.579-.144-.333-.3-.7-.482-1.1A11.112,11.112,0,0,1,9070.727,4318.384Z" transform="translate(-1783.607 -345.202)" fill="#010106" fill-rule="evenodd"/>
    <g id="Group_296" data-name="Group 296" transform="translate(7327.85 3953.677)">
      <path id="Path_2001" data-name="Path 2001" d="M9363.723,4216.848c-.441,4.168-.926,6.734,4.35,3.046a44.949,44.949,0,0,0,4.715-5.166c4.648-5.988,1.844-19.81-8.15-15.235-2.789,2.193-4,2.993-3.261,6.6.55,2.7,1.863,1.444,1.039,5.485-.368,1.81.719,3.911.946,5.159C9363.572,4216.833,9363.727,4216.816,9363.723,4216.848Z" transform="translate(-9361.164 -4198.582)" fill="#00184b" fill-rule="evenodd"/>
      <path id="Path_2002" data-name="Path 2002" d="M9378.444,4252.683l-1.37-.3c-3.5-1.093-.525,2.769-.609,4.875-.079,2.021,2.721-1.3,4.723-1.218,1.229.048,1.146-6.135-2.133-6.539-2.109-.259-2.393-3.136-2.673-1.619-.372,2.014,2.673,2.488,2.736,3.6C9379.518,4252.461,9378.623,4252.438,9378.444,4252.683Z" transform="translate(-9373.372 -4240.586)" fill="#00184b" fill-rule="evenodd"/>
    </g>
    <path id="Path_2003" data-name="Path 2003" d="M7538.857,4370.878c-3.346-.177-5.273,2.674-3.792,9.69l29.914,142.828,109.544-48.872-25.8-89.528c-.859-1.73-1.886-2.787-4.768-3.507Z" transform="translate(-462.866 -393.032)" fill="#010106" fill-rule="evenodd"/>
    <path id="Path_2004" data-name="Path 2004" d="M7557.469,4406.6l1.412,6.739a157.744,157.744,0,0,1,23.3-26.972l-2.537-.256c-7.083,6.038-14.619,13.073-22.173,20.489Zm1.853,8.844c6.964-7.368,19.318-21.17,29.5-28.407l6.823.69c-8.272,8.364-25.811,23.282-29.757,28.105,8.427-5.54,22.2-18.526,32.757-27.8l4.313.436c-8.749,10.5-20.139,24.885-20.139,26.844,4.919.462,15.864-14.74,26.43-26.21l10.457,1.056c-7.8,9.542-19.545,19.838-20.537,23.447,5.832-4.311,14.825-14.21,23.426-23.155l11.261,1.136c-14.341,16.963-34.253,38.17-14.421,29.47,10.968-4.81,25.251-17.227,38.815-27.006l5.4.545c2.881.72,3.908,1.777,4.768,3.507l6.152,21.346c-13.55,23.869-31.493,50.9-36.978,56.383-1.919,1.919-3.909,5.651-5.563,6.508-5.7,2.954-29.559,26.22-48.856,46.977l-2.4-11.452c7.881-13.187,14.638-24.409,14.638-26.626-3.42,1.173-11.333,11.147-16.552,17.488l-.293-1.4c3.994-6.273,9.815-14.42,9.815-18.258-2.148.185-7.1,5.481-11.436,10.521l.037.177c5.969-8.012,13.136-19.388,11.98-22.467-2.88-.664-8.384,2.768-14.979,8.156l-2.151-10.274c11.118-12.452,20.588-23.17,23.106-27.087-1.448-.2-15.028,7.251-25.969,13.42l-3-14.309c14.609-11.354,27.9-21.882,34.418-31.589-.407.952-16.677,10.368-36.525,21.522Z" transform="translate(-482.561 -406.133)" fill="#0c1011" fill-rule="evenodd"/>
    <path id="Path_2005" data-name="Path 2005" d="M7717.623,5047.909l4.747,22.665,109.544-48.873-4.059-14.4Z" transform="translate(-620.256 -940.209)" fill="#a5b2c7" fill-rule="evenodd"/>
    <path id="Path_2006" data-name="Path 2006" d="M8005.029,5070.383l14.685-6.552c3.962-8.72,7.586-17.571,10.228-24.276l-18.4,6.78c-1.841,6.632-4.292,15.542-6.507,24.048Zm23.653-10.554c1.466-7.483,3.071-15.223,4.182-21.352l11.1-4.089c-.717,6.763-1.253,12.886-.488,13.427.419-1.628,2.514-7.7,5.193-15.16l2.657-.979a207.71,207.71,0,0,1-7.6,21.443l-15.037,6.709Zm22.771-10.158,10.5-4.686c2.211-6.409,4.243-13,6.06-19.459l-12.851,4.735C8054.117,5035.929,8052.754,5042.859,8051.453,5049.671Z" transform="translate(-867.358 -955.882)" fill="#b0bace" fill-rule="evenodd"/>
    <path id="Path_2007" data-name="Path 2007" d="M7728.92,4448.593l-97.109-8,22.309,108.7,94.529-31.5Z" transform="translate(-546.478 -452.973)" fill="#090c4b" fill-rule="evenodd"/>
    <path id="Path_2008" data-name="Path 2008" d="M8313.554,5271.124l-34.906-5.718-37.462,32.137,43.135,10.5Z" transform="translate(-1070.397 -1162.121)" fill="#eeedf1" fill-rule="evenodd"/>
    <path id="Path_2009" data-name="Path 2009" d="M8615.317,5241.86l.284-2.561-10.882-2.611-5.691-.314-8.362,7.316c.041.1.031,6.337,0,7.041.307.051.969-.908,1.65-1.464C8598.965,5243.854,8606.164,5241.86,8615.317,5241.86Z" transform="translate(-1370.868 -1137.161)" fill="#00184b" fill-rule="evenodd"/>
    <path id="Path_2010" data-name="Path 2010" d="M8706.092,5153.524l-17.229-27.125c-23.016,10.41-19.123,13.332-47.445,19.1-13.894,2.831-35.184-2.732-52.917-1.227-2.73,2.6-5.307,5.962-7.848,12.375-1.611,4.062.127,7.349,4.7,2.748,1.392-2.132,3.192-7.024,5.542-7.5,1.5-.306,11.937.766,12.26,2.027.617.143,2.421,2.018,1.922,3.284-3.426,2.06-9.2-1.554-13.648,2.72-1.738,1.667-3.016,4.987.915,5.471,7.28.895,20.361,2.432,27.561,1.547.409-.049,8.291-3.044,10.09-3.41,7.875-1.6,10.652.191,18.494.241,3.494.021,11.13,1.939,16.777,1.438,10.622-.939,23.5-4.651,33.635-8.229C8700.024,5156.586,8706.209,5154.9,8706.092,5153.524Z" transform="translate(-1361.752 -1042.609)" fill="#004b7a" fill-rule="evenodd"/>
    <path id="Path_2011" data-name="Path 2011" d="M8901,5349.75c2.049-.726,4.108-1.429,4.921-1.595,7.875-1.6,10.651.191,18.494.241,3.494.021,11.129,1.939,16.777,1.438,9.736-.861,21.374-4.053,31.048-7.334-20.347-2.441-58.646-1.494-65.46,1.886A17.354,17.354,0,0,0,8901,5349.75Z" transform="translate(-1637.683 -1227.229)" fill="#00184b" fill-rule="evenodd"/>
    <path id="Path_2012" data-name="Path 2012" d="M9248.3,5146.3l-18.839-30.349c-10.478,4.739-15.379,7.927-20.282,10.537.362,13.743,4.116,27.656,4.526,30.074C9216.6,5157.313,9248.439,5147.1,9248.3,5146.3Z" transform="translate(-1902.643 -1033.627)" fill="#dfe0e5" fill-rule="evenodd"/>
    <path id="Path_2013" data-name="Path 2013" d="M8110.786,4553.841l30.418-26.327c27.53,12.455,47.834,30.714,65.677,54.525v126.366H7981.207c-5.7-3.136-10.176-5.317-11.64-5.4-10.783-.583-18.785,6.376-31.244,1.252-7.269-2.1-9.841-4.817-14.292-.644-2.251-.259-3.929-3.131-4.1-4.979-.766-8.045,4.739-6.438,12.805-8.334-4.906.778-8.986-7.58-13.781-1.883-1.218,1.449,1.807,3.435-1.463,6.789-10.2-1.78-6.716-6.676-8.441-9.689-1.466.088-5.535,1.581-6.619,1.958-1.126-6.136-3.848-5.922,7.618-14.351,5.927-4.356,5.169-3.629,11.783-3.727.57-1.642,4.536-3.786,7.893-4.187,4.565-.547,9.232,1.108,14.06,2.152,3.8.82,5.65,2.838,7.6,3.879,13.826,7.389,27.5,10.1,42.014,13.059,22.728,4.632,30.228,9.223,55.492,6.118,3.854-.474,37.27-6.677,37.272-6.686,4.8-5.218,16.357,4.438,11.447-11.369-1.593-5.127,8.482-5,1.486-22.007-1.122-8.609-.168-21.186-3.428-29.139-1.833-14.4,12.064-25.266,13.748-38.935C8110.778,4571.151,8103.33,4559.722,8110.786,4553.841Z" transform="translate(-778.191 -527.709)" fill="#004b7a" fill-rule="evenodd"/>
    <g id="Group_297" data-name="Group 297" transform="translate(7123.41 4139.952)">
      <path id="Path_2014" data-name="Path 2014" d="M8009.167,5528.732c1.2-.17,2.674-.072,5.385-.111a4.21,4.21,0,0,1,1.576-1.743c3.455.685,7.433.833,9.713,1.623C8024.4,5529.7,8012.266,5529,8009.167,5528.732Z" transform="translate(-7994.326 -5526.878)" fill="#00184b" fill-rule="evenodd"/>
      <path id="Path_2015" data-name="Path 2015" d="M7910.588,5582.026a46.035,46.035,0,0,0-6.426,1.94c-.255-1.389-.591-2.45-.826-3.363,1.249-2.471,8.205-7.622,10.246-9.009,2.828-1.921,7.517-1.532,10.753-.591,3.732,1.084,4.293.594,7.594,1.033-.671,2.438-7.309,1.6-8.889.582-2.863-1.837-8.127,3.479-12.569,5.017C7910.472,5580.249,7910.563,5581.183,7910.588,5582.026Z" transform="translate(-7903.336 -5564.146)" fill="#00184b" fill-rule="evenodd"/>
      <path id="Path_2016" data-name="Path 2016" d="M7977.563,5636.211c1.021-.165,2.1-.362,3.232-.628-4.905.778-8.985-7.58-13.78-1.883-1.218,1.449,1.807,3.435-1.463,6.789-9.962-1.738-6.872-6.449-8.33-9.475l.441-.917c5.184,0,6.418-4.581,11.867-2.645,3.635,1.292,6.521.866,9.2,4.012.148.175,4.105,2.306,4.173,2.3,0,0-1.294,3.222-3.433,2.786C7978.782,5636.41,7978.151,5636.3,7977.563,5636.211Z" transform="translate(-7949.666 -5612.938)" fill="#00184b" fill-rule="evenodd"/>
      <path id="Path_2017" data-name="Path 2017" d="M8079.447,5717.789c-5.7-3.136-10.176-5.316-11.64-5.4-10.783-.583-18.785,6.377-31.244,1.252-7.269-2.1-9.841-4.817-14.292-.644-2.251-.259-3.929-3.131-4.1-4.978a10.488,10.488,0,0,1,.1-3.167c3.675,2.019,11.252.724,12.933,1.8,3.975,2.556,12.651,4.021,17.735,3.931.384-.007,13.766-2.261,15.238-2.562,2.9-.591,1.943-1.34,4.944-.055,2.251.964,27.9,6.323,44.408,9.814Zm-62.75-14.416a6.87,6.87,0,0,1-.968,1.223l-.146-.027.672-3.03A3.7,3.7,0,0,0,8016.7,5703.373Z" transform="translate(-7999.841 -5677.044)" fill="#00184b" fill-rule="evenodd"/>
    </g>
    <path id="Path_2018" data-name="Path 2018" d="M8877.529,4541.664c25.4,12.381,44.535,29.966,61.451,52.541v126.366H8752.829a89.319,89.319,0,0,1,4.212-18.087c19.19,1.593,37.055-3.032,55.5-6.557.332.026,4.8-.677,4.979-1.118-1.112-12.294,7.13-1.533,6.138-12-.506-5.345,14.522-3.269,7.525-20.282-1.122-8.608-.168-21.186-3.428-29.138-1.833-14.4,3.664-28.767,5.345-42.436.723-5.877,4.6-18.37,7.214-22.447C8847.918,4561.311,8868.839,4544.531,8877.529,4541.664Z" transform="translate(-1510.29 -539.874)" fill="#0d6499" fill-rule="evenodd"/>
    <path id="Path_2019" data-name="Path 2019" d="M9530.519,4587.51c19.673,11.782,35.4,27.2,49.579,46.111v93.985c-7.807-16.556-15.926-31.046-25.086-31.046-1.486,4.3-6.34,42.357-8.963,63.427H9512.9c.051-3.683,1.561-5.666,6.729-4.4,12.018,2.946,2.57-1.6,2.46-1.617-.563-2.442-15.4-11.919-18.224-12.17-1.707-1.228,6.857-3.762,8.021-4.089-.863-4.032-11.611-5.184-13.363-5.909.087-.4,31.087-8.618,1.688-16.885.059-.275-1.463,2.468.663-1.159,5.124-.314,4.062.259,6.862.6,14.629,1.8,12.607,12.84,23.568,8.3-1.959-6.685-19.241-17.73-25.039-19.635-25.158-8.264,24.527-.363,25.883-5.332-2.05-1.891-21.432-8.356-21.59-8.515,5.975-2.336,14.252,4.64,22.434,1.254-1.171-5.466-25.343-15.406-30.322-14.979,0-6.115,14.14-7.207,20.264-8.937-3.275-6.279-16.98-5.65-21.494-6.3,17.391-14.321,16.417-8.04,28.875-14.534,11.881-6.192-26.725-4.848-26.8-4.848-1.154-13.476,43.1-8.009,1.761-19.636C9506.672,4614.671,9518.312,4599.744,9530.519,4587.51Z" transform="translate(-2151.407 -579.291)" fill="#002158" fill-rule="evenodd" opacity="0.22"/>
    <path id="Path_2020" data-name="Path 2020" d="M9135.712,4845.746c2.322-.279,4.438-.552,6.022-.855.332.026,4.8-.677,4.979-1.118,4.006-12.509,11.22,2.091,6.139-12-1.821-5.051,14.521-3.27,7.525-20.282-1.122-8.608-.169-21.186-3.428-29.138-1.833-14.4,3.663-28.767,5.345-42.436a79.623,79.623,0,0,1,3.355-13.3,112.244,112.244,0,0,1,14.958-8.021c2.555-1.19,3.459-2.6,7.6-3.667-.17.664-13.054,19.541-14.281,21.457,4.547,2.415,5.554-8.609,21.035-7.948,1.169.051,3.368-.844,6.754-.844,0,9.2-7.951,7.42-15.679,16.113,4.2-.9,11.11-3.7,14.69-2.46.626,3.032.988.185.988,4.077-2.658.92-18.1,7.438-17.729,11.819,8.948,0,28.043,4.584,11.192,13.727-3.457,1.876-13.236,8.8-12.881,13.291,2.694-.212,38.063,18.04,43.9,23.64l1.76,1.689a10.423,10.423,0,0,1,1.617,2.532c-5.034,0-58.094-13.324-43.686,3.16,4.524,5.178,29.332,6.446,29.332,25.546-8.1,0-15.36-18.575-34.615-18.575-.246,2.877,16.3,7.863,25.328,16.886,5.352,5.351,6.755,5.568,6.755,13.509-6.049.478-24.046-25.329-43.9-25.329.614,1.778,13.553,5.639,21.106,13.508,2.971,3.1,6,4.662,7.6,9.288-8.218,0-8.841-16.042-33.771-16.042-.1,1.167,26.039,23.459,4.993,16.886-20.176-6.3-21.722,7.418-25.955.071C9141.328,4848.444,9138.778,4846.91,9135.712,4845.746Z" transform="translate(-1839.479 -688.839)" fill="#002158" fill-rule="evenodd" opacity="0.04"/>
    <path id="Path_2021" data-name="Path 2021" d="M9363.348,4515.682l.405-6.019,40.984-35.856,9.082,15.417C9406.117,4494.279,9368.264,4511.543,9363.348,4515.682Z" transform="translate(-2035.192 -481.533)" fill="#ee0790" fill-rule="evenodd"/>
    <path id="Path_2022" data-name="Path 2022" d="M7896.223,4738.051c-.138-.648-.265-1.3-.392-1.951,1.61-1.018,3.207-2.041,4.817-3.058q3.234-2.6,6.457-5.191,3.883-3.706,7.754-7.4,4.762.922,9.567,1.828,4.181-5.2,8.319-10.378,4.214,1.868,8.448,3.727.769-4,1.532-8.012,2.174-4.737,4.31-9.465,1.765,6.489,3.527,12.978t3.52,12.967q-14.467,3.5-28.937,6.984T7896.223,4738.051Z" transform="translate(-773.473 -674.419)" fill="#0ed8d0" fill-rule="evenodd"/>
    <path id="Path_2023" data-name="Path 2023" d="M7899.579,4798.652c-.378-1.758-.74-3.509-1.106-5.271,1.616-1.018,3.213-2.04,4.829-3.058,2.318-.767,4.63-1.527,6.954-2.288q4.046-3.51,8.054-7.017,4.882.207,9.788.41,4.119-4.507,8.19-8.988,3.838,0,7.675-.016,1.184-2.147,2.354-4.284,2.738-2.685,5.448-5.372,1.493,5.463,2.97,10.925t2.97,10.92q-14.534,3.51-29.07,7.025T7899.579,4798.652Z" transform="translate(-775.744 -729.972)" fill="#ee0790" fill-rule="evenodd"/>
    <path id="Path_2024" data-name="Path 2024" d="M7870.147,4683.08c1.529-.57,3.073-1.142,4.621-1.718h.013l0-.005c1.877-.262,3.776-.519,5.666-.786q3.182-2.61,6.362-5.225c0-.005.012-.006.016-.018h.018q4.615-.874,9.232-1.756,3.1-2.818,6.19-5.636a.025.025,0,0,1,.016-.011.132.132,0,0,1,.031-.008q4.909-.269,9.84-.549c1.615-1.958,3.225-3.905,4.833-5.863l.005-.005a.017.017,0,0,0,.012-.006c2.116-1.542,4.235-3.075,6.35-4.623a2.553,2.553,0,0,0,.116.229c-2.109,1.543-4.223,3.074-6.341,4.612q-2.421,2.936-4.848,5.885a.065.065,0,0,0-.02.024h-.032q-4.937.269-9.852.556c-2.058,1.872-4.126,3.757-6.191,5.631-.006,0-.009.011-.015.017h-.026c-3.082.585-6.15,1.174-9.227,1.752q-3.178,2.618-6.37,5.242c-.007,0-.012.006-.017.011a.028.028,0,0,1-.021,0c-1.9.269-3.8.53-5.684.792-1.542.571-3.084,1.147-4.616,1.711C7870.193,4683.247,7870.169,4683.161,7870.147,4683.08Z" transform="translate(-751.391 -638.922)" fill="#0d6499"/>
    <path id="Path_2025" data-name="Path 2025" d="M9330.612,5301.662a3.147,3.147,0,0,0-.274-.207,4.143,4.143,0,0,0-.989-.493,117.426,117.426,0,0,1-20.008-9.165q-1.362-.784-2.7-1.606c-.372-.227-.744-.457-1.112-.688q-.091-6.63-.035-13.259.037-4.77.153-9.536.031-1.359.069-2.719.2-7.133.567-14.26.142,7.128.287,14.26.021,1.07.043,2.141l.155,7.765a1.2,1.2,0,0,0,.92,1.187c-.014.388-.025.775-.04,1.163q-.189,5.509-.38,11.017c-.058,1.659,2.5,1.653,2.557,0q.189-5.509.38-11.017.209-6.127.422-12.255c0-.118.009-.237.013-.355q.425-12.289.849-24.576.209-6.127.422-12.255.076-2.171.15-4.344c.057-1.66-2.5-1.654-2.557,0q-.076,2.172-.15,4.344-.209,6.127-.422,12.255l-.193,5.628-.114-5.628q-.064-3.157-.127-6.314a1.212,1.212,0,0,0-1.01-1.21q.192-2.366.4-4.73.466-5.272,1.025-10.535c.176-1.648-2.383-1.631-2.556,0q-.56,5.262-1.027,10.535-.548,6.123-.968,12.255-.858,12.453-1.206,24.931-.059,2.114-.1,4.227-.086,4.013-.117,8.029-.047,5.795.016,11.592-3.741-2.489-7.291-5.261-1.15-.9-2.275-1.828a3.059,3.059,0,0,0,1.033-.24,2.516,2.516,0,0,0,1.547-2.487q-.015-.888-.028-1.775-.034-2.077-.065-4.154-.026-1.705-.054-3.413.116,1.655.257,3.31.168,1.994.38,3.985a2.349,2.349,0,0,0,.045.272,2.205,2.205,0,0,0,2.181,1.692q-.105,2.1-.209,4.2c-.082,1.657,2.476,1.648,2.557,0l.292-5.889.359-7.257.249-5,1.238-24.931.608-12.255.267-5.366c.083-1.659-2.474-1.65-2.557,0q-.054,1.132-.112,2.263c-.823-1.527-3.4-1.823-3.715.268q-.214,1.416-.407,2.834-.841,6.114-1.311,12.255-.313,4.024-.463,8.057-.063-4.028-.127-8.057-.1-6.127-.194-12.255c-.012-.761-.023-1.519-.036-2.279a2.629,2.629,0,0,0-1.126-2.214,2.843,2.843,0,0,0-.8-.385,2.727,2.727,0,0,0-3.7,2.6c0,.243.007.487.011.729.009.516.017,1.033.025,1.55.009.569.019,1.137.026,1.706.011.641.02,1.279.031,1.92,0,0,0,0,0,0q.038,2.515.078,5.03.029,1.8.058,3.6.111,7.052.224,14.1h0q.083,5.414.171,10.828t.171,10.825c.007.477.016.954.022,1.431q.015.888.027,1.775a2.773,2.773,0,0,0,.476,1.563,4.4,4.4,0,0,0-3.941,2.157,3.64,3.64,0,0,0-.342.756s0,.005,0,.008a3.062,3.062,0,0,0-.1,1.512v.009a2.983,2.983,0,0,0,.334.885c.024.043.049.085.076.129a3.925,3.925,0,0,0,.834.936c.108.09.215.178.324.267h0l.089.074h0q3.053,2.514,6.232,4.824h0a127.242,127.242,0,0,0,32.978,17.262,3.239,3.239,0,0,0,3.2-.424A4.216,4.216,0,0,0,9330.612,5301.662Zm-29.462-73.4q-.27,5.4-.536,10.8-.548,11.024-1.095,22.049a199.639,199.639,0,0,1,.488-22.049Q9300.428,5233.645,9301.15,5228.257Z" transform="translate(-1969.023 -1118.817)" fill="#040814"/>
    <path id="Path_2026" data-name="Path 2026" d="M7913.861,4962.226q15.371-3.72,30.763-7.439t30.777-7.453c-.039-.14-.076-.28-.114-.42q-15.39,3.728-30.769,7.446t-30.748,7.438C7913.8,4961.944,7913.836,4962.086,7913.861,4962.226Z" transform="translate(-788.897 -888.294)" fill="#0d6499" fill-rule="evenodd"/>
    <path id="Path_2027" data-name="Path 2027" d="M8267.682,4646.856q2.89,10.585,5.8,21.153t5.807,21.147l.331-.084q-2.906-10.567-5.811-21.141T8268,4646.784C8267.891,4646.807,8267.787,4646.834,8267.682,4646.856Z" transform="translate(-1093.177 -630.253)" fill="#0d6499" fill-rule="evenodd"/>
    <g id="Group_298" data-name="Group 298" transform="translate(7111.185 4010.986)">
      <path id="Path_2028" data-name="Path 2028" d="M7816.156,4608.829l31.767-1.589.429,1.412-31.891,1.6Z" transform="translate(-7816.156 -4607.239)" fill="#0ed8d0"/>
      <path id="Path_2029" data-name="Path 2029" d="M7823.654,4641.739l32.105-1.785.427,1.41-32.229,1.792Z" transform="translate(-7822.603 -4635.366)" fill="#0ed8d0"/>
      <path id="Path_2030" data-name="Path 2030" d="M7832.018,4673.757l32.245-2.9.425,1.4-32.366,2.915Z" transform="translate(-7829.793 -4661.933)" fill="#0ed8d0"/>
    </g>
    <g id="Group_299" data-name="Group 299" transform="translate(7298.046 4043.096)">
      <path id="Path_2031" data-name="Path 2031" d="M9192.426,5303.6h231.434a121.221,121.221,0,0,0-9.211-20.96H9201.637A121.146,121.146,0,0,0,9192.426,5303.6Z" transform="translate(-9186.285 -5220.032)" fill="#ee0790"/>
      <path id="Path_2032" data-name="Path 2032" d="M9148.638,5661.378a123.233,123.233,0,0,0,.775,13.819h242.163a123,123,0,0,0,.776-13.819q0-3.6-.208-7.142h-243.3Q9148.641,5657.781,9148.638,5661.378Z" transform="translate(-9148.638 -5539.521)" fill="#ee0790"/>
      <path id="Path_2033" data-name="Path 2033" d="M9152.973,5489.4h242.5a121.372,121.372,0,0,0-3.971-20.96H9156.943A121.279,121.279,0,0,0,9152.973,5489.4Z" transform="translate(-9152.364 -5379.776)" fill="#ee0790"/>
      <path id="Path_2034" data-name="Path 2034" d="M9516.648,4836.214a121.408,121.408,0,0,0-81.707,31.453h163.415A121.408,121.408,0,0,0,9516.648,4836.214Z" transform="translate(-9394.791 -4836.214)" fill="#ee0790"/>
      <path id="Path_2035" data-name="Path 2035" d="M9296.026,5096.836a122.413,122.413,0,0,0-16.487,20.96h207a122.407,122.407,0,0,0-16.486-20.96Z" transform="translate(-9261.183 -5060.288)" fill="#ee0790"/>
    </g>
    <circle id="Ellipse_14" data-name="Ellipse 14" cx="87.72" cy="87.72" r="87.72" transform="translate(6996.197 3969.654)" fill="#090c4b" style="mix-blend-mode: screen;isolation: isolate"/>
    <path id="Path_2036" data-name="Path 2036" d="M9026.294,4040.355a7.255,7.255,0,0,0-1.041,1.273,8.01,8.01,0,0,0-.713,1.458,9.564,9.564,0,0,0-.408,1.56,10.479,10.479,0,0,0-.13,1.6,11.353,11.353,0,0,0,.113,1.59,13.533,13.533,0,0,0,.349,1.556c.146.514.321,1.02.517,1.52s.424.99.662,1.477a27.913,27.913,0,0,0,1.672,2.829,28.474,28.474,0,0,1,1.683,2.917,21.714,21.714,0,0,1,1.3,3.214,14.627,14.627,0,0,1,.406,1.711c.042.292.088.581.105.876.01.147.023.292.026.44s0,.294,0,.442l-.218.056-.877-1.46c-.294-.475-.588-.942-.885-1.4l-1.813-2.77a26.355,26.355,0,0,1-1.669-2.939q-.368-.779-.713-1.576c-.227-.534-.452-1.069-.663-1.614s-.4-1.1-.572-1.663-.307-1.139-.417-1.721a14.639,14.639,0,0,1-.2-1.771,12.732,12.732,0,0,1,.068-1.781,11.58,11.58,0,0,1,.358-1.735,9.712,9.712,0,0,1,.656-1.637,8.569,8.569,0,0,1,.975-1.456,7.7,7.7,0,0,1,1.281-1.164Z" transform="translate(-1742.408 -108.717)" fill="#06e6ca"/>
    <path id="Path_2037" data-name="Path 2037" d="M9077.87,4268.055c.3.89.552,1.786.811,2.682s.486,1.795.7,2.7c.105.451.262.895.395,1.342a4.612,4.612,0,0,1,.192,1.369,7.65,7.65,0,0,1-.144,1.414,5.519,5.519,0,0,1-.492,1.46l-.223.03a5.477,5.477,0,0,1-.856-1.281,7.567,7.567,0,0,1-.509-1.327,4.648,4.648,0,0,1-.172-1.372c.011-.466.046-.936.03-1.4q-.048-1.389-.031-2.786c.015-.932.025-1.863.08-2.8Z" transform="translate(-1789.485 -304.635)" fill="#06e6ca"/>
    <path id="Path_2038" data-name="Path 2038" d="M9063.8,4392.947c-.337,1.251-.712,2.485-1.085,3.721s-.771,2.46-1.187,3.677c-.1.3-.2.614-.286.924s-.184.632-.242.892a3.859,3.859,0,0,0-.105.635c0,.08-.006.141,0,.209a1.35,1.35,0,0,0,.025.228,2.017,2.017,0,0,0,.207.564,3.286,3.286,0,0,0,.425.617c.354.429.859.85,1.34,1.384l-.082.208a4.617,4.617,0,0,1-2.129-.267,3.5,3.5,0,0,1-1.036-.626,3.293,3.293,0,0,1-.812-1.057,2.914,2.914,0,0,1-.227-.7,2.743,2.743,0,0,1-.037-.75,3.481,3.481,0,0,1,.355-1.227c.168-.34.332-.6.491-.886s.318-.562.464-.849q.875-1.72,1.808-3.415c.626-1.129,1.248-2.259,1.911-3.372Z" transform="translate(-1773.142 -411.938)" fill="#06e6ca"/>
    <path id="Path_2039" data-name="Path 2039" d="M9175.74,4637.311a13.146,13.146,0,0,0,4.869.42,12.847,12.847,0,0,0,4.531-1.325,9.727,9.727,0,0,0,1.9-1.326c.583-.5,1.15-1,1.727-1.513s1.137-1.051,1.689-1.632,1.1-1.2,1.691-1.859l.21.08a6.972,6.972,0,0,1-.562,2.629,9.235,9.235,0,0,1-1.4,2.328,7.934,7.934,0,0,1-2.068,1.779,15.7,15.7,0,0,1-2.464,1.156,12.665,12.665,0,0,1-5.234.805,12.323,12.323,0,0,1-4.973-1.333Z" transform="translate(-1873.823 -615.887)" fill="#06e6ca"/>
    <path id="Path_2040" data-name="Path 2040" d="M9316.512,4553.1c.206-.618.457-1.209.714-1.8s.548-1.163.86-1.722c.157-.278.274-.587.414-.882a2.44,2.44,0,0,1,.25-.41,2.237,2.237,0,0,1,.335-.342,3.794,3.794,0,0,1,.857-.525,3.278,3.278,0,0,1,1.128-.283l.171.146a3.605,3.605,0,0,1-.08,1.151,3.967,3.967,0,0,1-.331.923,2.1,2.1,0,0,1-.584.714c-.246.2-.511.381-.734.6q-.669.653-1.376,1.288c-.475.421-.94.854-1.438,1.269Z" transform="translate(-1994.924 -544.58)" fill="#06e6ca"/>
  </g>
</svg>
