<svg xmlns="http://www.w3.org/2000/svg" xmlns:xlink="http://www.w3.org/1999/xlink" width="99.454" height="77.625" viewBox="0 0 99.454 77.625">
  <defs>
    <filter id="Path_1984" x="0" y="0" width="99.454" height="77.625" filterUnits="userSpaceOnUse">
      <feOffset input="SourceAlpha"/>
      <feGaussianBlur stdDeviation="3" result="blur"/>
      <feFlood flood-color="#f21289"/>
      <feComposite operator="in" in2="blur"/>
      <feComposite in="SourceGraphic"/>
    </filter>
  </defs>
  <g transform="matrix(1, 0, 0, 1, 0, 0)" filter="url(#Path_1984)">
    <path id="Path_1984-2" data-name="Path 1984" d="M-3206.046,4021.278V4013.6a1.045,1.045,0,0,0-1.045-1.045h-7.923a1.045,1.045,0,0,0-1.045,1.045v7.681a1.045,1.045,0,0,0,1.045,1.045h7.923A1.045,1.045,0,0,0-3206.046,4021.278Zm-2.09-1.045h-5.833v-5.592h5.833Zm3.937,2.089h7.923a1.045,1.045,0,0,0,1.045-1.045V4013.6a1.045,1.045,0,0,0-1.045-1.045h-7.923a1.045,1.045,0,0,0-1.045,1.045v7.681A1.045,1.045,0,0,0-3204.2,4022.323Zm1.045-7.681h5.833v5.592h-5.833Zm9.77,7.681h7.923a1.045,1.045,0,0,0,1.045-1.045V4013.6a1.045,1.045,0,0,0-1.045-1.045h-7.923a1.045,1.045,0,0,0-1.045,1.045v7.681A1.045,1.045,0,0,0-3193.384,4022.323Zm1.045-7.681h5.833v5.592h-5.833Zm10.015,7.681h7.923a1.045,1.045,0,0,0,1.045-1.045V4013.6a1.045,1.045,0,0,0-1.045-1.045h-7.923a1.045,1.045,0,0,0-1.045,1.045v7.681A1.045,1.045,0,0,0-3182.324,4022.323Zm1.045-7.681h5.833v5.592h-5.833Zm-22.919-3.254h7.923a1.045,1.045,0,0,0,1.045-1.045v-7.681a1.045,1.045,0,0,0-1.045-1.045h-7.923a1.045,1.045,0,0,0-1.045,1.045v7.681A1.045,1.045,0,0,0-3204.2,4011.387Zm1.045-7.681h5.833v5.592h-5.833Zm9.77,7.681h7.923a1.045,1.045,0,0,0,1.045-1.045v-7.681a1.045,1.045,0,0,0-1.045-1.045h-7.923a1.045,1.045,0,0,0-1.045,1.045v7.681A1.045,1.045,0,0,0-3193.384,4011.387Zm1.045-7.681h5.833v5.592h-5.833Zm10.015,7.681h7.923a1.045,1.045,0,0,0,1.045-1.045v-7.681a1.045,1.045,0,0,0-1.045-1.045h-7.923a1.045,1.045,0,0,0-1.045,1.045v7.681A1.045,1.045,0,0,0-3182.324,4011.387Zm1.045-7.681h5.833v5.592h-5.833Zm-1.045-3.254h7.923a1.045,1.045,0,0,0,1.045-1.045v-7.681a1.045,1.045,0,0,0-1.045-1.045h-7.923a1.045,1.045,0,0,0-1.045,1.045v7.681A1.045,1.045,0,0,0-3182.324,4000.452Zm1.045-7.681h5.833v5.592h-5.833Zm9.77,29.552h7.923a1.044,1.044,0,0,0,1.045-1.045V4013.6a1.045,1.045,0,0,0-1.045-1.045h-7.923a1.045,1.045,0,0,0-1.045,1.045v7.681A1.045,1.045,0,0,0-3171.509,4022.323Zm1.045-7.681h5.833v5.592h-5.833Zm34.475,4.306a1.045,1.045,0,0,0-.831-.465l-9.976-.369-4-6.546a1.045,1.045,0,0,0-.851-.5,1.041,1.041,0,0,0-.887.432l-1.953,2.7c-1.391,1.926-1.171,3.983-.977,5.8a10.117,10.117,0,0,1-.018,3.447l-3.837,1.668h-47a1.045,1.045,0,0,0-1.045,1.045v3.921a19.4,19.4,0,0,0,4.942,12.959,17.6,17.6,0,0,0,12.356,5.971c1.234.057,2.729.093,4.382.093,7.1,0,17.111-.671,21.757-3.264a31.6,31.6,0,0,0,13.108-13.9l1.412-2.919,4.47-.958a12.134,12.134,0,0,0,8.856-7.636l.2-.539A1.045,1.045,0,0,0-3135.99,4018.947Zm-9.387,7.078-4.969,1.065a1.044,1.044,0,0,0-.721.566l-1.635,3.378a29.519,29.519,0,0,1-12.246,12.983c-4.931,2.752-17.667,3.246-25.025,2.908a15.529,15.529,0,0,1-10.9-5.278,17.312,17.312,0,0,1-4.409-11.565v-2.877h46.174a1.051,1.051,0,0,0,.417-.086l4.488-1.951a1.044,1.044,0,0,0,.574-.628,10.855,10.855,0,0,0,.237-4.76c-.176-1.65-.329-3.075.594-4.352l1.033-1.43,3.474,5.684a1.044,1.044,0,0,0,.853.5l9.047.335A10.046,10.046,0,0,1-3145.377,4026.025Z" transform="translate(3225.66 -3981.08)" fill="#fff" stroke="#f21289" stroke-width="1.2"/>
  </g>
</svg>
