<?xml version="1.0" encoding="utf-8"?>
<!-- Generator: Adobe Illustrator 25.2.1, SVG Export Plug-In . SVG Version: 6.00 Build 0)  -->
<svg version="1.1" id="Layer_1" xmlns="http://www.w3.org/2000/svg" xmlns:xlink="http://www.w3.org/1999/xlink" x="0px" y="0px"
	 viewBox="0 0 195 44" enable-background="new 0 0 195 44" xml:space="preserve">
<rect id="bgrec" x="120" y="10" fill="#A52BFF" width="75" height="34"/>
<g id="brandoo">
	<path fill="#FFFFFF" d="M1.3,27.9V16.8c0-0.3,0.2-0.5,0.5-0.5h2.6c0.3,0,0.5,0.2,0.5,0.5v4.1C4.9,21,5,21,5,21
		c1.3-0.9,2.8-1.3,4.5-1.3c4.6,0,8.3,3.7,8.3,8.3c0,4.6-3.7,8.3-8.3,8.3C5,36.3,1.3,32.5,1.3,27.9z M14.3,27.9c0-2.9-2.1-5-4.7-5
		c-2.7,0-4.7,2.2-4.7,5c0,3,2.1,5.1,4.7,5.1C12.1,33,14.3,30.9,14.3,27.9z"/>
	<path fill="#FFFFFF" d="M20,35.5v-9.4c0-3.4,2.8-6.2,6.2-6.2h4.4c0.2,0,0.4,0.2,0.3,0.4l-0.5,2.4c-0.1,0.3-0.4,0.4-0.6,0.4h-3.6
		c-1.4,0-2.6,1.2-2.6,2.6v9.8c0,0.3-0.2,0.5-0.5,0.5h-2.6C20.2,36,20,35.8,20,35.5z"/>
	<path fill="#FFFFFF" d="M29.7,31.1c0-2.7,2.2-4.7,4.9-4.7h6.6c0.1,0,0.2-0.1,0.2-0.2v-1.7c0-0.7-0.6-1.3-1.3-1.3h-6.2
		c-0.3,0-0.5-0.2-0.4-0.5l0.5-2.3c0-0.2,0.3-0.4,0.5-0.4H40c2.7,0,4.9,2.2,4.9,4.9v6.2c0,2.7-2.2,4.9-4.9,4.9h-5.4
		C31.9,36,29.7,33.8,29.7,31.1z M39.9,32.8c0.8,0,1.4-0.5,1.4-1.6v-1c0-0.3-0.2-0.5-0.5-0.5h-6.1c-0.8,0-1.4,0.7-1.4,1.6
		c0,1.1,0.7,1.6,1.4,1.6H39.9z"/>
	<path fill="#FFFFFF" d="M47.4,35.5V20.4c0-0.3,0.2-0.5,0.5-0.5h7.7c3.4,0,6.2,2.8,6.2,6.2v9.4c0,0.3-0.2,0.5-0.5,0.5h-2.6
		c-0.3,0-0.5-0.2-0.5-0.5v-9.8c0-1.4-1.2-2.6-2.6-2.6h-4.4c-0.1,0-0.2,0.1-0.2,0.2v12.2c0,0.3-0.2,0.5-0.5,0.5H48
		C47.7,36,47.4,35.8,47.4,35.5z"/>
	<path fill="#FFFFFF" d="M64,28c0-4.6,3.7-8.3,8.3-8.3c1.7,0,3.2,0.5,4.5,1.3c0.1,0,0.2,0,0.2-0.1v-4.1c0-0.3,0.2-0.5,0.5-0.5h2.6
		c0.3,0,0.5,0.2,0.5,0.5v11.1c0,4.6-3.7,8.3-8.3,8.3C67.7,36.3,64,32.5,64,28z M77,27.9c0-3-2.1-5-4.7-5c-2.7,0-4.7,2.2-4.7,5
		c0,3,2.1,5.1,4.7,5.1C74.9,33,77,30.9,77,27.9z"/>
	<path fill="#FFFFFF" d="M82.8,27.9c0-4.6,3.7-8.3,8.3-8.3c4.6,0,8.3,3.7,8.3,8.3c0,4.6-3.7,8.3-8.3,8.3
		C86.5,36.3,82.8,32.5,82.8,27.9z M95.8,27.9c0-2.9-2.1-5-4.7-5s-4.7,2.1-4.7,5c0,3,2.1,5.1,4.7,5.1C93.6,33,95.8,30.9,95.8,27.9z"
		/>
	<path fill="#FFFFFF" d="M101.2,27.9c0-4.6,3.7-8.3,8.3-8.3c4.6,0,8.3,3.7,8.3,8.3c0,4.6-3.7,8.3-8.3,8.3
		C104.9,36.3,101.2,32.5,101.2,27.9z M114.2,27.9c0-2.9-2.1-5-4.7-5s-4.7,2.1-4.7,5c0,3,2.1,5.1,4.7,5.1
		C112,33,114.2,30.9,114.2,27.9z"/>
</g>
<g id="dev">
	<path fill="#FFFFFF" d="M126.4,35.5v-2.2c0-0.3,0.2-0.5,0.5-0.5h2.6c0.3,0,0.5,0.2,0.5,0.5v2.2c0,0.3-0.2,0.5-0.5,0.5h-2.6
		C126.6,36,126.4,35.8,126.4,35.5z"/>
	<path fill="#FFFFFF" d="M132.2,28c0-4.6,3.7-8.3,8.3-8.3c1.7,0,3.2,0.5,4.5,1.3c0.1,0,0.2,0,0.2-0.1v-4.1c0-0.3,0.2-0.5,0.5-0.5
		h2.6c0.3,0,0.5,0.2,0.5,0.5v11.1c0,4.6-3.7,8.3-8.3,8.3C135.9,36.3,132.2,32.5,132.2,28z M145.1,27.9c0-3-2.1-5-4.7-5
		c-2.7,0-4.7,2.2-4.7,5c0,3,2.1,5.1,4.7,5.1C143,33,145.1,30.9,145.1,27.9z"/>
	<path fill="#FFFFFF" d="M151.3,31.1v-6.2c0-2.7,2.2-4.9,4.9-4.9h4.7c2.7,0,4.9,2.2,4.9,4.9c0,2.7-2.2,4.8-4.9,4.8H155
		c-0.1,0-0.2,0.1-0.2,0.2v1.5c0,0.9,0.6,1.5,1.5,1.5h5.3c0.3,0,0.5,0.2,0.5,0.5v2.2c0,0.3-0.3,0.5-0.5,0.5h-5.5
		C153.5,36,151.3,33.8,151.3,31.1z M160.8,26.4c0.7,0,1.3-0.7,1.3-1.6c0-0.9-0.6-1.6-1.5-1.6h-4.3c-0.9,0-1.5,0.6-1.5,1.5v1.2
		c0,0.3,0.3,0.5,0.5,0.5H160.8z"/>
	<path fill="#FFFFFF" d="M172.7,35.7l-5.9-15.3c-0.1-0.3,0.1-0.5,0.3-0.5h2.8c0.2,0,0.4,0.1,0.5,0.4l4.1,10.5c0,0.1,0.1,0.1,0.2,0
		l4.1-10.5c0.1-0.2,0.3-0.4,0.5-0.4h2.8c0.3,0,0.4,0.3,0.3,0.5l-5.9,15.3c-0.1,0.2-0.3,0.3-0.5,0.3h-2.9
		C172.9,36,172.8,35.9,172.7,35.7z"/>
</g>
</svg>
