<svg xmlns="http://www.w3.org/2000/svg" width="100.07" height="100.077" viewBox="0 0 100.07 100.077">
  <g id="Group_850" data-name="Group 850" transform="translate(-127.631 -119.418)">
    <path id="Path_2816" data-name="Path 2816" d="M227.624,126.636l-12.509,81.525a6.255,6.255,0,0,1-8.564,4.828l-24.7-10.207-11.867,14.427A6.255,6.255,0,0,1,158.9,213.24V193.3l-27.4-11.333a6.258,6.258,0,0,1-.742-11.2l87.562-50.5A6.26,6.26,0,0,1,227.624,126.636Zm-6.179-.959L133.882,176.2l22.191,9.14,49.894-42.522a1.168,1.168,0,0,1,1.66,1.635l-38.994,46.091,40.3,16.654Zm-45.632,74.6-10.658-4.395V213.24Z" transform="translate(0 0)"/>
  </g>
</svg>
