<svg xmlns="http://www.w3.org/2000/svg" xmlns:xlink="http://www.w3.org/1999/xlink" width="103.61" height="65.394" viewBox="0 0 103.61 65.394">
  <defs>
    <filter id="Path_1509" x="0" y="0" width="103.61" height="65.394" filterUnits="userSpaceOnUse">
      <feOffset input="SourceAlpha"/>
      <feGaussianBlur stdDeviation="3" result="blur"/>
      <feFlood flood-color="#f21289"/>
      <feComposite operator="in" in2="blur"/>
      <feComposite in="SourceGraphic"/>
    </filter>
  </defs>
  <g transform="matrix(1, 0, 0, 1, 0, 0)" filter="url(#Path_1509)">
    <path id="Path_1509-2" data-name="Path 1509" d="M-3251.653-2423.452a5.661,5.661,0,0,0-2.669-3.567l-21.055-12.263a.794.794,0,0,1-.4-.67,3.539,3.539,0,0,1,1.118-2.538l.023-.03a4.8,4.8,0,0,1,1.076-.972,8.772,8.772,0,0,0,2.117-2.068,5.907,5.907,0,0,0,.942-3.436,6.406,6.406,0,0,0-6.4-6.4,6.407,6.407,0,0,0-6.4,6.4v.946h1.892V-2449a4.512,4.512,0,0,1,4.508-4.507,4.512,4.512,0,0,1,4.507,4.507,4.015,4.015,0,0,1-.574,2.315,6.855,6.855,0,0,1-1.712,1.664,6.561,6.561,0,0,0-1.453,1.34l-.024.031a5.318,5.318,0,0,0-1.512,3.743,2.673,2.673,0,0,0,1.336,2.257l21.055,12.263a3.784,3.784,0,0,1,1.784,2.385,3.783,3.783,0,0,1-.473,2.939l-.832,1.325a1.99,1.99,0,0,1-1.7.938h-21.719a6.333,6.333,0,0,0-2.951-3.859l-11.514-6.706,12.552-7.139-.935-1.645-13.508,7.683-10.667-6.213a1.043,1.043,0,0,1-.521-.88c-.032-1.256.415-1.834,1.306-2.987l.027-.035a5.591,5.591,0,0,1,1.257-1.138,9.913,9.913,0,0,0,2.391-2.335,6.622,6.622,0,0,0,1.051-3.848,7.188,7.188,0,0,0-7.18-7.18,7.189,7.189,0,0,0-7.181,7.18v.946h1.892v-.946a5.3,5.3,0,0,1,5.289-5.288,5.294,5.294,0,0,1,5.288,5.288,4.723,4.723,0,0,1-.683,2.727,8.055,8.055,0,0,1-1.987,1.931,7.38,7.38,0,0,0-1.634,1.505l-.027.036a5.9,5.9,0,0,0-1.7,4.193,2.923,2.923,0,0,0,1.46,2.466l9.718,5.66-2.992,1.7a5.69,5.69,0,0,0-2.243,7.594l.564,1.084a3.883,3.883,0,0,0,3.455,2.1h17.8a4.464,4.464,0,0,1-.684,2.16l-.951,1.515a2.409,2.409,0,0,1-2.053,1.136h-47.094a2.418,2.418,0,0,1-2.151-1.306l-.644-1.239a4.484,4.484,0,0,1,1.767-5.984l20.92-11.9-.935-1.645-20.92,11.9a6.37,6.37,0,0,0-2.51,8.5l.645,1.24a4.3,4.3,0,0,0,3.829,2.324h47.094a4.291,4.291,0,0,0,3.656-2.023l.951-1.515a6.343,6.343,0,0,0,.975-3.165h21.5a3.871,3.871,0,0,0,3.3-1.825l.832-1.325A5.659,5.659,0,0,0-3251.653-2423.452Zm-47.806,4.577-.563-1.083a3.8,3.8,0,0,1,1.5-5.077l3.948-2.245,12.463,7.259a4.454,4.454,0,0,1,1.915,2.224h-17.485A2,2,0,0,1-3299.46-2418.875Z" transform="translate(3345.48 2465)" fill="#fff" stroke="#f21289" stroke-width="1.2"/>
  </g>
</svg>
