<svg id="Group_153" data-name="Group 153" xmlns="http://www.w3.org/2000/svg" width="16.857" height="27.683" viewBox="0 0 16.857 27.683">
  <path id="Path_1415" data-name="Path 1415" d="M446.336,1085.916a3.081,3.081,0,0,0,0,4.369,3.132,3.132,0,0,0,4.362.01.677.677,0,1,0-.938-.977,1.792,1.792,0,0,1-2.465.009,1.727,1.727,0,0,1,0-2.456l8.991-9.067a.678.678,0,0,0,0-.954l-1.948-1.964a.677.677,0,1,0-.962.954l1.475,1.488Zm15.95-8.588a1.026,1.026,0,0,0-.037-.253v-.239a.716.716,0,0,0-.115-.391.679.679,0,0,1-.02-.071,1.352,1.352,0,0,0-.046-.16.865.865,0,0,0-.033-.089.65.65,0,0,0-.046-.12c-.022-.043-.052-.1-.088-.158-.023-.04-.051-.087-.079-.139a.711.711,0,0,0-.235-.313,1.714,1.714,0,0,0-.255-.25l-10.618-10.77a3.091,3.091,0,0,0-4.384,4.359l4.349,4.387a.677.677,0,0,0,.962-.954l-4.342-4.379a1.727,1.727,0,0,1,0-2.458,1.8,1.8,0,0,1,2.456,0l10.654,10.806a.661.661,0,0,0,.107.088c.017.016.036.042.055.064s.048.054.07.079c.033.062.065.117.093.165l.007.01a.729.729,0,0,0,.055.136,1.832,1.832,0,0,0,.1.308l0,.007v.146a.881.881,0,0,0,.022.191.863.863,0,0,0-.022.189v.147a1.736,1.736,0,0,0-.1.3.724.724,0,0,0-.056.132.124.124,0,0,0-.018.026,2.452,2.452,0,0,0-.128.219l-.021.025a.651.651,0,0,1-.063.069.6.6,0,0,0-.1.083l-8.577,8.7a.677.677,0,1,0,.965.951l8.537-8.658a1.75,1.75,0,0,0,.263-.259l0,0a.745.745,0,0,0,.236-.356l.025-.039a1.585,1.585,0,0,0,.133-.242.7.7,0,0,0,.088-.219c.01-.034.018-.066.026-.1a.359.359,0,0,1,.034-.1c.007-.014.013-.028.019-.042a.8.8,0,0,0,.09-.374v-.2A1.034,1.034,0,0,0,462.286,1077.328Z" transform="translate(-445.429 -1063.49)" fill="#01fe93"/>
</svg>
