<svg xmlns="http://www.w3.org/2000/svg" width="624.144" height="465.911" viewBox="0 0 624.144 465.911">
  <g id="Group_293" data-name="Group 293" transform="translate(-1392.208 -493.959)">
    <g id="Group_280" data-name="Group 280" transform="matrix(-0.259, 0.966, -0.966, -0.259, 1912.289, 572.136)">
      <path id="Path_1867" data-name="Path 1867" d="M3756.2,2374.326H3442.253a164.407,164.407,0,0,0,12.495,28.433H3743.7A164.369,164.369,0,0,0,3756.2,2374.326Z" transform="translate(-3433.923 -2303.635)" fill="#ee0790"/>
      <path id="Path_1868" data-name="Path 1868" d="M3711.164,1869.534a167,167,0,0,0-1.052-18.745h-328.5a167.226,167.226,0,0,0-1.052,18.745q0,4.878.282,9.687h330.038Q3711.159,1874.413,3711.164,1869.534Z" transform="translate(-3380.561 -1850.789)" fill="#ee0790"/>
      <path id="Path_1869" data-name="Path 1869" d="M3715.622,2112.557H3386.669a164.645,164.645,0,0,0,5.385,28.433h318.184A164.621,164.621,0,0,0,3715.622,2112.557Z" transform="translate(-3385.844 -2077.212)" fill="#ee0790"/>
      <path id="Path_1870" data-name="Path 1870" d="M3894.763,2940.529a164.691,164.691,0,0,0,110.837-42.666H3783.926A164.691,164.691,0,0,0,3894.763,2940.529Z" transform="translate(-3729.462 -2756.482)" fill="#ee0790"/>
      <path id="Path_1871" data-name="Path 1871" d="M3823.419,2664.528a166.03,166.03,0,0,0,22.365-28.433h-280.8a166.03,166.03,0,0,0,22.365,28.433Z" transform="translate(-3540.082 -2530.06)" fill="#ee0790"/>
    </g>
    <g id="Group_281" data-name="Group 281" transform="matrix(-0.259, 0.966, -0.966, -0.259, 2008.419, 636.503)">
      <path id="Path_1872" data-name="Path 1872" d="M3703.684,1539.778h238.811a125.01,125.01,0,0,0-9.5-21.628h-219.8A125.046,125.046,0,0,0,3703.684,1539.778Z" transform="translate(-3697.348 -1453.55)" fill="#0ed8d0"/>
      <path id="Path_1873" data-name="Path 1873" d="M3656.756,1923.765a127.192,127.192,0,0,0,.8,14.259h249.883a127.193,127.193,0,0,0,.8-14.259q0-3.711-.215-7.369H3656.971Q3656.759,1920.054,3656.756,1923.765Z" transform="translate(-3656.756 -1798.023)" fill="#0ed8d0"/>
      <path id="Path_1874" data-name="Path 1874" d="M3661.4,1738.9h250.229a125.189,125.189,0,0,0-4.1-21.628H3665.5A125.235,125.235,0,0,0,3661.4,1738.9Z" transform="translate(-3660.775 -1625.787)" fill="#0ed8d0"/>
      <path id="Path_1875" data-name="Path 1875" d="M4047.9,1039.719a125.277,125.277,0,0,0-84.312,32.456h168.624A125.278,125.278,0,0,0,4047.9,1039.719Z" transform="translate(-3922.158 -1039.719)" fill="#0ed8d0"/>
      <path id="Path_1876" data-name="Path 1876" d="M3814.055,1319.028a126.265,126.265,0,0,0-17.012,21.628h213.6a126.268,126.268,0,0,0-17.013-21.628Z" transform="translate(-3778.101 -1281.314)" fill="#0ed8d0"/>
    </g>
    <g id="Group_291" data-name="Group 291" transform="translate(1392.208 493.959)">
      <path id="Path_1877" data-name="Path 1877" d="M3843.528,844.9l-31.636-1.2.29,8.925,31.64,1.2Z" transform="translate(-3430.023 -788.505)" fill="#dbdde4" fill-rule="evenodd"/>
      <path id="Path_1878" data-name="Path 1878" d="M3421.688,828.947l-31.644-1.2.293,8.926,31.647,1.2Z" transform="translate(-3074.751 -775.073)" fill="#dbdde4" fill-rule="evenodd"/>
      <path id="Path_1879" data-name="Path 1879" d="M3033.917,814.292l-31.644-1.2.294,8.924,31.644,1.2Z" transform="translate(-2748.176 -762.729)" fill="#dbdde4" fill-rule="evenodd"/>
      <path id="Path_1880" data-name="Path 1880" d="M3486.589,557.13l8.382-10.088c11.511-8.229,8.356,6.237,17.315-1.056.031-.023,9.245-8.246,12.41-.851.671,5.439,8.521,7.037,8.955,3.3,4.1-4.649,15.683-2.967,16.808,4.207.538,3.454-4.394,9.651,4.229,8.507,2.319-.307,6.426,2.458,7.289,4.452,1.014,2.34.766,2.9-2.658,5.587-.961.755-2.7,2.661-2,4.6.451,1.245,1.907,2.511,5.233,3.5,8.719,2.588,11.43,6,6.567,13.129-3.135,4.611,3.047-1.133,6.114,6.081,4.2,9.872-11.235,15.717-18.719,16.508-12.589,1.329-24.309-.33-30.88-11.45-.442-.751-1.911-3.284-2.342-3.751-5.957,6.693-1.644,10.768-13.65,10.825-10.809.053-22.513-4.4-14.748-10.373,7.155-5.5-15.557-4.542-12.616-15.843,1.32-5.076,9.7,2.963,9.466-4.184-.4-12.252-25.465-4.974-15.179-19.628C3478.31,558.109,3482.764,553.8,3486.589,557.13Z" transform="translate(-3145.532 -534.462)" fill="#ee0790" fill-rule="evenodd"/>
      <path id="Path_1881" data-name="Path 1881" d="M3573.768,913.368l-14.386-15.8c-19.237-6.436-73.6-2.532-77.368,24.809-2.65,19.249,5.355,74.679,26.076,86.086,24.367,1.562,67.425-12.12,66.476-40.955C3573.981,949.892,3574.375,931.621,3573.768,913.368Z" transform="translate(-3151.792 -831.602)" fill="#00226a" fill-rule="evenodd"/>
      <g id="Group_282" data-name="Group 282" transform="translate(340.469 161.07)">
        <path id="Path_1882" data-name="Path 1882" d="M5049.961,1686.042l30.332,212.434-7.308,6.583-30.328-212.434Z" transform="translate(-4807.021 -1658.98)" fill="#00226a" fill-rule="evenodd"/>
        <path id="Path_1883" data-name="Path 1883" d="M3720.589,1514.57l-29.023,190.719-6.884,3.5,27.338-189.537Z" transform="translate(-3663.358 -1514.57)" fill="#00226a" fill-rule="evenodd"/>
        <path id="Path_1884" data-name="Path 1884" d="M3732.07,2150.354l10.076-7.256,208.172,33.835-12.411,8.7Z" transform="translate(-3703.268 -2043.905)" fill="#00226a" fill-rule="evenodd"/>
        <path id="Path_1885" data-name="Path 1885" d="M3601.332,1538.693l-30.267,189.787-21.5-.812,30.263-189.789Z" transform="translate(-3549.566 -1534.2)" fill="#00184b" fill-rule="evenodd"/>
        <path id="Path_1886" data-name="Path 1886" d="M4912.4,1729.951,4942.038,1941l21.507.811-29.642-211.04Z" transform="translate(-4697.321 -1695.96)" fill="#00184b" fill-rule="evenodd"/>
        <path id="Path_1887" data-name="Path 1887" d="M3706.054,2179.735l209.816,34.02-2.258,20.528L3703.8,2200.259Z" transform="translate(-3679.455 -2074.76)" fill="#00184b" fill-rule="evenodd"/>
      </g>
      <g id="Group_285" data-name="Group 285" transform="translate(157.343 247.647)">
        <g id="Group_283" data-name="Group 283" transform="translate(98.701 111.843)">
          <path id="Path_1888" data-name="Path 1888" d="M3019.25,2892.324c-9.45,7.369-3.272,13.623,7.857,14.974,12.99,13.141,32.726,9.737,35.564,7.74-.019-2.024-4.744-5.511-8.375-7.975-6.857-4.659-11.567-8.188-15.3-11.226C3032.789,2890.774,3026.874,2886.371,3019.25,2892.324Z" transform="translate(-3014.61 -2870.9)" fill="#d3894f" fill-rule="evenodd"/>
          <path id="Path_1889" data-name="Path 1889" d="M3083.38,2771.844l-16.446.423c2.125-.4.828,4.821-3.135,22.437.667,3.6,8.936,4.708,10.633,2.954C3077.045,2795.909,3077.454,2780.743,3083.38,2771.844Z" transform="translate(-3056.037 -2771.844)" fill="#925c5e" fill-rule="evenodd"/>
        </g>
        <path id="Path_1890" data-name="Path 1890" d="M2592.428,2192.53l-88.3,12.107c-1.922-3.883.469-1.606.233-2.5,1.35-1.558,1.385-3.943,2.475-6.323.808-1.77,1.613-3.545,2.582-5.646,7.823-17.115,1.159-21.157,17.871-28.693,12.536-5.658,60.137-13.172,74.962-12.556,3.631-.807,3.719-.15,6.522-.2,45.049-.82,40.457,24.573,24.824,55.832-4.676,9.357-17.761,47.87-23.676,55.507-7.281,4.618-19.329.44-19.619-2.509C2588.709,2241.74,2605.888,2203.9,2592.428,2192.53Z" transform="translate(-2485.354 -2135.046)" fill="#494f68" fill-rule="evenodd"/>
        <g id="Group_284" data-name="Group 284">
          <path id="Path_1891" data-name="Path 1891" d="M2827.237,2834.268c-11.03,2.05-9.829,15.841.305,19.611,10.019,18,32.837,20.713,36.609,19.51.637-2.141-3.288-7.431-6.625-11.081-4.432-4.851-9.39-10.721-14.166-15.879C2828.4,2830.282,2850.971,2829.854,2827.237,2834.268Z" transform="translate(-2751.543 -2710.554)" fill="#d3894f" fill-rule="evenodd"/>
          <path id="Path_1892" data-name="Path 1892" d="M2881.738,2751.041l-17.723-1.311c1.647.82-4.87,5.759-13.577,19.976.171,2.954,8.615,5.687,11.8,4.548C2867.181,2771.4,2870.934,2756.805,2881.738,2751.041Z" transform="translate(-2777.646 -2641.377)" fill="#925c5e" fill-rule="evenodd"/>
          <path id="Path_1893" data-name="Path 1893" d="M2453.661,2067.7l-64.462,25.833c4.626,16.008,21.693,21.815,32.986,22.532,22.742,1.448,38.432,2.473,63.775,1.243,1.85-.088.648.241,2.121.944-7.784,4.243-22.219,47.2-24.733,62.7-.7,4.344,15.935,10.627,20.286,10.593,6.887-12.174,53.733-81.083,54.259-90.162C2539.366,2076.052,2383.57,2053.146,2453.661,2067.7Z" transform="translate(-2389.199 -2063.159)" fill="#616987" fill-rule="evenodd"/>
        </g>
      </g>
      <path id="Path_1894" data-name="Path 1894" d="M3692.265,752.284c37.418-55.023-44.607-57.2-27.624-15.141C3665.839,740.1,3686.438,757.438,3692.265,752.284Z" transform="translate(-3304.034 -674.236)" fill="#004b7a" fill-rule="evenodd"/>
      <path id="Path_1895" data-name="Path 1895" d="M3678.114,790.342c.1,6.142,3.368,12.4,8.886,17.666a20.1,20.1,0,0,0,1.492,1.5l.5.429c.171.147.293.256.507.431,4.656,3.982,12.2,7.18,17.257,2.353,3.318-3.169,4.554-7.8,6.129-11.951,4.092-10.789,4.275-27.105-14.306-29.079C3685.982,770.348,3677.927,779.261,3678.114,790.342Z" transform="translate(-3317.355 -727.744)" fill="#004b7a" fill-rule="evenodd"/>
      <path id="Path_1896" data-name="Path 1896" d="M2585.215,1194.8l-40.079,16.034-.172,1.01c-2.368,13.949,9.371,80.356,10.7,92.965.038.389.267,1.076.351,1.587l.092.534c2.551,15.412,7.921,23.272,26.121,17.4,12.643-4.073,28.928-79.464,36.231-92.313,3.433-6.035.988-6.335-4-14-1.788-2.742-23.665-21.615-25.671-22.484A9.212,9.212,0,0,0,2585.215,1194.8Z" transform="translate(-2362.773 -1084.196)" fill="#616987" stroke="#000004" stroke-miterlimit="22.926" stroke-width="0.567" fill-rule="evenodd"/>
      <path id="Path_1897" data-name="Path 1897" d="M2634.038,751.1l1.831-36.622c1.647-2.767-.012-7.176-1.164-10.147a4.565,4.565,0,0,0-2.826-1.97c-21.838-.2-61.125,12.475-74.218,26.884-13.5,14.864-42.879,50.732-41.19,77.669,22.266,25,37.067,29.426,29.039,28.814.557.5,13.429-10.782,15.279-12.616,8.7-8.652,19.416-15.2,28.188-22.691,6.445-5.5,14.29-11.817,20.423-17.26,8.936-7.929,10.8-16.325,19.593-23.724C2631.266,757.535,2632.974,753.782,2634.038,751.1Z" transform="translate(-2338.984 -669.472)" fill="#0ed8d0" fill-rule="evenodd"/>
      <g id="Group_286" data-name="Group 286" transform="translate(294.964)">
        <path id="Path_1898" data-name="Path 1898" d="M3328.319,588.371l3.3,7.462c-1.361,4.634-.2,10.467-3.722,15.892-.011,1.214-1.579,4.947-3.84,9.523-4.985,10.09-15.805,22.454-18.136,23a5.678,5.678,0,0,0-.907.261c-6.171,1.623-13.41-7.024-20.557-14.627-16.011-17.027-11.464-37.458,6.377-39.231C3306.759,589.062,3317.7,580.883,3328.319,588.371Z" transform="translate(-3272.508 -570.851)" fill="#004b7a" fill-rule="evenodd"/>
        <path id="Path_1899" data-name="Path 1899" d="M3261.234,526.254c-.263-.3,4.8-12.427,5.259-14.121.6-2.22-.538-5.982.278-8.871a3.692,3.692,0,0,1,.241-.724c2.895-12.231,27.979-9.243,37.875-4.148,2.109,1.085,7.884,4.605,10.675,5.4,6.225,1.76,15.694,9.9,5.526,17.048-7.635,5.359-18.551-7.206-21.522-8.3-1.029-.6-2.772-.36-3.863-.4-2.33,7.036-.442,5.223-1.19,9.378-.149.833-4.6.7-8.318,3-3.86,2.389-3.974,6.354-2.875,10.059a77.365,77.365,0,0,1,2.727,18.017c-3.482-.133-14.828-2.006-11.323-8.038.194-.343,3.215-6.318,3.223-6.363.24-1,4.851-11.4,1.43-12.281-.523-2.479-8.581-4.4-8.936-2.688-3.288.694-4.4,13.819-4.195,15.477C3265.277,535.164,3261.253,531.779,3261.234,526.254Z" transform="translate(-3261.225 -493.959)" fill="#0c2143" fill-rule="evenodd"/>
      </g>
      <path id="Path_1900" data-name="Path 1900" d="M2532.2,1172.771c8.967-42.633,41.678-150.739,110.217-135.486l.423.374c.2.173-4.18,15.417-3.86,16.116,1.987,4.342,8.7,10.046,13.993,11.073,3.943.767,6.541,10.651,9.008,14.1,14.642,20.511,9.8,15.776,11.1,43.583.328,6.943-4.5,22.389-12.33,25.324l-1.93.726c-7.4,2.767-6.587,3.86-15.351,5.8-11.037,2.441-19.466,5.612-30.854,2.53-9.657-2.608-23.082-2.057-33.177-1.254-11.892.948-25.439,15.56-37.483,17.021-1.018.124-9.916,1.207-10.229,1.09A.749.749,0,0,1,2532.2,1172.771Z" transform="translate(-2351.841 -950.307)" fill="#0d6499" fill-rule="evenodd"/>
      <path id="Path_1901" data-name="Path 1901" d="M2019.891,2465.549l9.287.354,1.03,31.277-9.283-.349Z" transform="translate(-1920.831 -2154.398)" fill="#00226a" fill-rule="evenodd"/>
      <path id="Path_1902" data-name="Path 1902" d="M2064.411,2650.384l-3.753,6.8,79.123,41.756,3.753-6.8Z" transform="translate(-1955.165 -2310.062)" fill="#00184b" fill-rule="evenodd"/>
      <path id="Path_1903" data-name="Path 1903" d="M2041.3,2643.51l-7.1,6.478,75.789,76.475,7.105-6.478Z" transform="translate(-1932.88 -2304.272)" fill="#00184b" fill-rule="evenodd"/>
      <g id="Group_287" data-name="Group 287" transform="translate(115.322 376.512)">
        <path id="Path_1904" data-name="Path 1904" d="M2146.725,2919.524l-13.7,8.034c-17.429,3.919-9.359,14.865,2.3,19.99,8.292,19.548,31.675,23.515,35.744,22.424.908-2.241-2.712-7.927-5.584-12.058C2156.172,2944.522,2141.279,2926.688,2146.725,2919.524Z" transform="translate(-2122.938 -2913.239)" fill="#616987" fill-rule="evenodd"/>
        <path id="Path_1905" data-name="Path 1905" d="M2231.718,2879.7l-28.753,1.047c.71.272.583-.562-4.947,17.929,2.04.078,9.577,3.688,11.369,4.735C2214.7,2900.607,2220.177,2885.318,2231.718,2879.7Z" transform="translate(-2186.17 -2879.698)" fill="#004b7a" fill-rule="evenodd"/>
      </g>
      <path id="Path_1906" data-name="Path 1906" d="M1904.883,1218.676c48.9,19.235,41.945,17.761,62.631,60.549-5.869,4.039-7.711,11.371-19.447,18.642-1.647,1.02-3.291,2.138-4.9,3.272C1925.073,1280.163,1905.261,1230.251,1904.883,1218.676Z" transform="translate(-1823.974 -1104.303)" fill="#d30b8c" fill-rule="evenodd"/>
      <path id="Path_1907" data-name="Path 1907" d="M2006.039,2946.869l-15.393,9.031c-18.184,6.085-9.707,17.687,2.574,22.469,9.325,21.977,35.614,26.436,40.183,25.206,1.022-2.517-3.043-8.907-6.274-13.552C2016.665,2974.967,1999.914,2954.922,2006.039,2946.869Z" transform="translate(-1887.361 -2559.756)" fill="#616987" fill-rule="evenodd"/>
      <path id="Path_1908" data-name="Path 1908" d="M2092.981,2900.722l-23.162.174c1.22.618-5.935,2.275-14.729,21.157-.686,3.446,8.1,7.243,12.788,5.323C2073.847,2924.229,2080,2907.043,2092.981,2900.722Z" transform="translate(-1950.444 -2520.892)" fill="#004b7a" fill-rule="evenodd"/>
      <path id="Path_1909" data-name="Path 1909" d="M1556.236,1751.908l-119.248-106.527c-3.7,1.4-.519.395-4.176,1.119-2.8.549-5.431,1.5-8.688,2.3-18.059,4.448-35.092-4.794-31.411,17.22,2.067,12.357,14.992,103.293,26.083,106.828,7.563,2.41,6.281,1.642,21.819,3.959,22.979,3.427,47.193,5.009,70.629,5.887,8.742.328,30.156-11.143,35.827-18.7C1548.368,1762.265,1555.661,1752.007,1556.236,1751.908Z" transform="translate(-1392.208 -1463.666)" fill="#00184b" fill-rule="evenodd"/>
      <path id="Path_1910" data-name="Path 1910" d="M2026.646,1299.412l-5.706-12.332c1.949,4.245,11.026,24.3,16.964,17.319,3.25,4.359,6.682,31.441,4.813,38.657-.164,16.451-.789,46.865-3.4,61.348-.408,2.279-.736,13.444-3.459,13.951.435,3.749-16.506,5.934-18.612,8.885-.29-.1-2.082-.107-2.212-.345,10.473-17.241,14.024-72.765,12.693-94.761C2027.489,1328.241,2026.65,1302.16,2026.646,1299.412Z" transform="translate(-1916.74 -1161.911)" fill="#d30b8c" fill-rule="evenodd"/>
      <path id="Path_1911" data-name="Path 1911" d="M2124.606,1663.458c-.129,10.625-.458,25.354-1.281,38.2-.336-.164-.675-.33-1-.494C2104.5,1692.26,2113.81,1675.311,2124.606,1663.458Z" transform="translate(-1998.671 -1478.891)" fill="#6096bb" fill-rule="evenodd"/>
      <path id="Path_1912" data-name="Path 1912" d="M1886.833,2134.376l-103.192-21.169c-.332-5.032,1.262-1.588,1.4-2.664,2.22-1.186,3.352-3.8,5.656-6,1.712-1.636,3.421-3.27,5.458-5.213,16.541-15.8,11.041-22.851,32.99-24.624,16.468-1.333,72.551,9,88.653,15.464,4.382.53,4.18,1.287,7.308,2.324,50.171,16.7,25.778,43.939-2,75.871-8.905,10.236-34.912,46.031-48.859,45.505-15.671-.593-20.382-5.177-15.748-21.741C1863.583,2173.946,1896.467,2152.151,1886.833,2134.376Z" transform="translate(-1721.828 -1825.139)" fill="#192023" fill-rule="evenodd"/>
      <path id="Path_1913" data-name="Path 1913" d="M1674.147,2061.45l-78.715,27.29c3.284,19.312,22.441,27.144,35.545,28.608,26.369,2.946,44.553,5.019,74.313,4.916,2.177-.007.732.323,2.361,1.238-9.653,4.632-32.211,55-37.2,73.322-1.4,5.136,17.2,13.517,22.285,13.709,9.66-14.125,73.508-93.651,75.335-104.437C1773.144,2076.015,1594.212,2040.344,1674.147,2061.45Z" transform="translate(-1563.36 -1808.714)" fill="#22292b" fill-rule="evenodd"/>
      <path id="Path_1914" data-name="Path 1914" d="M1997.8,814.4c10.622,5.841,4.786,13.309,3.306,24.455-1.644,12.362-8.333,34.285-21.323,36.436-2.216.362-8.91-.892-10.515-4.069-1.568,2.027-10.709,11.749-10.725,11.8-.145.005-27.937-16.6-22.079-27.954,10.073-19.514,10-35.078,28.73-45.825C1974.906,803.669,1988,809.012,1997.8,814.4Z" transform="translate(-1849.889 -757.497)" fill="#004b7a" fill-rule="evenodd"/>
      <path id="Path_1915" data-name="Path 1915" d="M1875.478,1344.3l-5.091-10.969c1.735,3.778,2.479,1.962,8.783-4.2,1.945-.515,4.79,11.659,7.117,23.16,5.313,26.264,2.277,65.37-3.44,85.236-.579,2.012-1.418,11.93-4.172,12.366.236,3.328-32.639,8.718-34.9,11.329-.29-.09,13.715-3.627,13.589-3.84C1810.65,1464.048,1874.62,1359.422,1875.478,1344.3Z" transform="translate(-1769.592 -1197.311)" fill="#e7dbdd" fill-rule="evenodd"/>
      <path id="Path_1916" data-name="Path 1916" d="M2075.676,935.768a1.156,1.156,0,0,1-.713-1.459,1.144,1.144,0,0,1,1.453-.709l26.232,9.064,11.052,3.051a1.149,1.149,0,0,1,.843,1.066h.008a10.56,10.56,0,0,1-2.865,7.025,11.011,11.011,0,0,1-6.659,3.751c-2.021.242-3.638.166-4.779-.807s-1.591-2.683-1.17-5.616a31.942,31.942,0,0,1,1.25-4.185c.309-.893.606-1.757.786-2.39l-25.438-8.791Zm36.544,11.911-8.913-2.458c-.207.69-.5,1.562-.809,2.462a31.359,31.359,0,0,0-1.152,3.772c-.293,2.053-.129,3.12.389,3.56s1.587.437,3.021.265a8.7,8.7,0,0,0,5.225-3A8.872,8.872,0,0,0,2112.22,947.679Z" transform="translate(-1967.162 -864.164)" fill="#000004"/>
      <path id="Path_1917" data-name="Path 1917" d="M2324.385,1013.8a23.08,23.08,0,0,0-.687,2.26,25.044,25.044,0,0,1-1.686,4.916l-.042.075c-1.033,1.922-2.456,2.994-4.55,1.89h0c-.969-.509-1.453-2.117-1.64-3.976a27.771,27.771,0,0,1,.125-6.426,1.152,1.152,0,0,1,1.221-.9v0l6.3.583a1.141,1.141,0,0,1,1.037,1.242,1.4,1.4,0,0,1-.08.339Zm-2.891,1.671c.107-.387.2-.757.3-1.1l-3.776-.349a29.288,29.288,0,0,0,.034,4.718,5.886,5.886,0,0,0,.434,2.182h0c.569.3,1.061-.181,1.477-.961l.027-.054A22.873,22.873,0,0,0,2321.493,1015.468Z" transform="translate(-2169.918 -929.933)" fill="#000004"/>
      <path id="Path_1918" data-name="Path 1918" d="M1589.085,1071.11l1.983-4.161c-.03,0-34.447,18.35-37.753,20.645-36.56,25.316-38.032,114.9-22.937,154.782,4.024,10.643-1.712,18.614,19.477,24.747,9.981,2.893,24.443,7.465,34.531,7.846,1.906-.839,25.091-118.022,28.806-146.032,1.262-9.5,4.706-19.964-4.39-28.759C1603.872,1095.412,1590.68,1076.463,1589.085,1071.11Z" transform="translate(-1500.979 -976.521)" fill="#ee0790" fill-rule="evenodd"/>
      <g id="Group_288" data-name="Group 288" transform="translate(77.092 134.219)">
        <path id="Path_1919" data-name="Path 1919" d="M2189.5,1491.7,1880.693,1460.7l311.856-116.271,234.912,22.833Z" transform="translate(-1880.693 -1344.427)" fill="#004b7a" fill-rule="evenodd"/>
        <path id="Path_1920" data-name="Path 1920" d="M3585.768,2348.534,3611.1,2521.76h-8.253l-24.4-166.847Z" transform="translate(-3310.51 -2190.068)" fill="#00226a" fill-rule="evenodd"/>
        <path id="Path_1921" data-name="Path 1921" d="M2245.2,2180.809l-29.294,183.468-8.585,4.491,29.291-183.464Z" transform="translate(-2155.776 -2048.813)" fill="#00226a" fill-rule="evenodd"/>
        <path id="Path_1922" data-name="Path 1922" d="M2266.361,2797.465l10.092-7.025,208.3,33.064-12.421,8.421Z" transform="translate(-2205.496 -2562.234)" fill="#00226a" fill-rule="evenodd"/>
        <path id="Path_1923" data-name="Path 1923" d="M1897.707,2035.147l310.365,37.86.656,19.849L1898.363,2055Z" transform="translate(-1895.022 -1926.139)" fill="#00184b" fill-rule="evenodd"/>
        <path id="Path_1924" data-name="Path 1924" d="M2135.116,2204.062l-30.488,184.08-21.518-.814,30.484-184.08Z" transform="translate(-2051.165 -2067.711)" fill="#00184b" fill-rule="evenodd"/>
        <path id="Path_1925" data-name="Path 1925" d="M3444.2,2272.642l24.924,185.2h21.4l-24.809-184.39Z" transform="translate(-3197.452 -2126.153)" fill="#00184b" fill-rule="evenodd"/>
        <path id="Path_1926" data-name="Path 1926" d="M2240.2,2825.88l209.953,33.245-2.285,19.91-209.953-33.246Z" transform="translate(-2181.542 -2592.08)" fill="#00184b" fill-rule="evenodd"/>
      </g>
      <path id="Path_1927" data-name="Path 1927" d="M2188.723,1614.448c1.861,1.5,3.311,7.862,13.074,12.052,15.45,6.627,43.692,5.66,55.545,7.5,8.093,1.261,21.987,15.456,24.748,26.178-11.885,1.072-37.814-18.385-58.409-17.248-18.314,1.011-26.03,3.595-44.191.769-3.909-.606-5.339-6.152-9.214-11.7.435-.284.87-.559,1.3-.827C2181.646,1624.944,2184.433,1618.658,2188.723,1614.448Z" transform="translate(-2047.483 -1437.615)" fill="#002158" fill-rule="evenodd"/>
      <path id="Path_1928" data-name="Path 1928" d="M1564.179,2645.769l5.45,8.593-86.361,46.9,1.243,17.25-7.708-.267-1.381-19.2c.294-2.777-.114-4.853,3.2-6.817Z" transform="translate(-1462.29 -2306.176)" fill="#00226a" fill-rule="evenodd"/>
      <path id="Path_1929" data-name="Path 1929" d="M1429.655,3026.146a9.766,9.766,0,0,1,9.287,9.272,8.232,8.232,0,0,1-8.7,8.591,9.765,9.765,0,0,1-9.287-9.271A8.235,8.235,0,0,1,1429.655,3026.146Z" transform="translate(-1416.411 -2626.517)" fill="#00226a" fill-rule="evenodd"/>
      <path id="Path_1930" data-name="Path 1930" d="M1833.3,2654.9l8.791,3.751-36.77,75.181c-1.956,4-1.8,1.707-1.476,6.657l1.205,16.339-7.708-.26-1.5-20.759c.221-2.275-.008-2.582,1.594-7.588Z" transform="translate(-1732.145 -2313.868)" fill="#00226a" fill-rule="evenodd"/>
      <path id="Path_1931" data-name="Path 1931" d="M3946.863,1610.038l-35,10.825,73.314,2.775,26.605-10.065Z" transform="translate(-3514.22 -1433.901)" fill="#00226a" fill-rule="evenodd"/>
      <path id="Path_1932" data-name="Path 1932" d="M4000.626,684.156,3944.1,677.23l-3.055.586-10.309,131.041,3.092,1.547,59.493-12.683Z" transform="translate(-3530.116 -648.307)" fill="#ced0da" fill-rule="evenodd"/>
      <path id="Path_1933" data-name="Path 1933" d="M4018.684,683.258l-59.909-6.352-10.61,133.325,62.94-13.417Z" transform="translate(-3544.79 -648.034)" fill="#00184b" fill-rule="evenodd"/>
      <path id="Path_1934" data-name="Path 1934" d="M4192.559,808.249l13.2.5,4.374,133.007-13.207-.5Z" transform="translate(-3750.614 -758.649)" fill="#a9adbb" fill-rule="evenodd"/>
      <path id="Path_1935" data-name="Path 1935" d="M1955.046,700.339l1.838,14.449c.507,2.961.564,4.419,3.448,4.81a18.44,18.44,0,0,0,4.336-.145c3.036-.284,1.911-.868.736-3.732-2.04-4.977-1.2-11.651,4.8-10.267,10.164,2.342,6.072,25.17,3.574,31.541-3.822,9.744,18.932,26.544,29.881,24.8,5.477-.872,6.633-3.749,7.411-3.993,1.518-2.527-4.18-9.352-3.356-13.658-.313.788-1.693,1.293-2.239,1.726-3.146.818-6.792-1.613-6.769-4.79a84.624,84.624,0,0,1,9.256-.338,12.143,12.143,0,0,1,2.647.276c1.51.536,1.468-.629,1.712-2.153.488-3.154-2.121-7.309-7.006-4.981-7,3.335-12.136,3.909-14.969-.015-3.9-5.4-6.518-6.676-9.131-14.054-.744-1.136.484-8.574,3.718-10.017,7.041-3.147,3.112-15.116,9.535-14.87,3.2.12,6.663,5.455,18.325,7.271,1.552.242,6.156,1.449,6.842-.616.629-.189-.168-5.631,2.99-9.369,5.236-6.192,2.875-11.365-8.5-19.817-8.577-6.377-29.4-6.535-39.428-9.775C1962.944,658.823,1951.064,669.432,1955.046,700.339Z" transform="translate(-1865.559 -635.383)" fill="#00184b" fill-rule="evenodd"/>
      <path id="Path_1936" data-name="Path 1936" d="M1748.683,3244a9.626,9.626,0,0,1,9.279,9.012,8.115,8.115,0,0,1-8.707,8.326,9.632,9.632,0,0,1-9.283-9.006A8.122,8.122,0,0,1,1748.683,3244Z" transform="translate(-1685.085 -2809.985)" fill="#00226a" fill-rule="evenodd"/>
      <path id="Path_1937" data-name="Path 1937" d="M2526.586,2928.235l8.924.336.531,16.1-8.925-.335Z" transform="translate(-2347.561 -2544.063)" fill="#00226a" fill-rule="evenodd"/>
      <g id="Group_289" data-name="Group 289" transform="translate(336.227 177.719)">
        <path id="Path_1938" data-name="Path 1938" d="M3553.879,1685.255c.251,3.152-2.777,6.043-8.437,5.759-3.124-.156-8.535-1.523-9.039-6.826l-3.775-23.085,23.2.877Z" transform="translate(-3531.059 -1654.626)" fill="#ee0790" fill-rule="evenodd"/>
        <path id="Path_1939" data-name="Path 1939" d="M3547.275,1625.556c1.426.927,2.277,2.006,2.315,3.133a2.381,2.381,0,0,1-.168.947,2.688,2.688,0,0,1,.233.963c.1,3.064-5.847,5.32-13.269,5.038s-13.539-2.99-13.634-6.053a2.382,2.382,0,0,1,.16-.949,2.628,2.628,0,0,1-.225-.965c-.038-1.125.74-2.143,2.117-2.965a1.955,1.955,0,0,1-.145-.65c-.08-2.431,4.938-4.2,11.213-3.968s11.422,2.4,11.5,4.827A1.837,1.837,0,0,1,3547.275,1625.556Z" transform="translate(-3522.686 -1620.065)" fill="#c3c8d1" fill-rule="evenodd"/>
      </g>
      <path id="Path_1940" data-name="Path 1940" d="M3128.043,833.412l15.629-28.941,24.317-5.984,10.084,10.765c3.368,9.541,2.471,15.351,1.594,23.987-.389,3.869-1.781,13.08-4.523,19.472-4.855,11.31-12.883,3.356-16.2,2.105-8.8-3.324-5.21,1.262-7.818,7.788-.156,2.416-.809,3.036-1.243,4.873-1.041,4.4-11.77-3.12-14.855-8.564-4.39-7.75-9.55-16.211-7.27-25.1C3127.81,832.974,3127.551,833.857,3128.043,833.412Z" transform="translate(-2853.389 -750.427)" fill="#004b7a" fill-rule="evenodd"/>
      <path id="Path_1941" data-name="Path 1941" d="M3506.664,1019.181c.175-.738.347-1.436.5-2.1,1.095-4.636,1.652-9.384,2.6-13.388,1.083-4.583,2.513-21.165,4.408-26.169,1.941-5.143-3.367-8.316-.312-14.662,7.4-15.32-18.92-1.257-18.68,13.47.042,2.721,2.479,7.567,4.592,9.975,3.181,4.962-2.4,10.215-3.547,16.556-.137.772-1.239,3.51-1.529,4.708-.625,2.645-1.278,5.025-1.968,7.188A47.311,47.311,0,0,1,3506.664,1019.181Z" transform="translate(-3161.229 -883.274)" fill="#004b7a" fill-rule="evenodd"/>
      <path id="Path_1942" data-name="Path 1942" d="M2939.752,1184.093c5.469,5.433,32.837,23.873,40.416,27.2,8.512,3.735,15.007,4.062,20.019,2,10.053-4.119,20.038-41.138,23.31-54.977.752-3.186,1.251-6.426,1.8-9.437-4.641.028-11.27.745-16,1.276-19.286,48.943-33.443,10.477-51.582-12.469C2930.29,1102.993,2895.038,1139.662,2939.752,1184.093Z" transform="translate(-2677.558 -1024.511)" fill="#0d6499" fill-rule="evenodd"/>
      <path id="Path_1943" data-name="Path 1943" d="M3646.472,1039.759c.9-12.456.9-26.14,4.462-33.44.595-1.213,1.812-3.859,2.769-6.235,1.96-4.872,2.582-4.758,9.359-3.459,9.4,1.8,10.911,6.722,9.722,9.783-1.461,3.747-2.3,2.073-4.386,1.2-1.331-.555-2.91-.282-4.367,4.112-8.9,14.62-5.4,5.084-2.315,24.336.7,4.384,19.562,49.369,11.972,49.591C3643.191,1086.535,3643.336,1083.163,3646.472,1039.759Z" transform="translate(-3289.564 -916.651)" fill="#096491" fill-rule="evenodd"/>
      <path id="Path_1944" data-name="Path 1944" d="M3134.418,745.423l.809-1.93c7.422-8.871,2.566-26.712-43.94-18-24.8,4.642-14.786,33.432-10.7,37.4,3.932,3.831-2.883,11.754,2.788,13.656,5.824,1.953,17.495,5.549,17.655-3.329.061-3.515-3.536-11.644-1.255-14.348,2.853-3.39,5.5-3.678,9.474-.642,4.146,3.165,6.716,9.153,10.82,2.041,2.323-4.014-.16-.3,3.219-6.528.659-1.215-5.8-9.8,1.422-10.95C3128.027,742.261,3133.08,745.474,3134.418,745.423Z" transform="translate(-2809.513 -686.985)" fill="#0c1011" fill-rule="evenodd"/>
      <g id="Group_290" data-name="Group 290" transform="translate(162.091 167.005)">
        <path id="Path_1945" data-name="Path 1945" d="M2462.894,1850.552l-43.608,14.079,72.33,10.515,48.527-15.309Z" transform="translate(-2419.286 -1803.462)" fill="#d4d5dd" fill-rule="evenodd"/>
        <path id="Path_1946" data-name="Path 1946" d="M2964.031,1552.172l-43.166,5.26-31.812,65.608,47.448-14.466Z" transform="translate(-2814.917 -1552.172)" fill="#00184b" fill-rule="evenodd"/>
      </g>
      <path id="Path_1947" data-name="Path 1947" d="M4083.137,1488.059,3847.44,1612.6l1.075,20.624,235.59-127.913Z" transform="translate(-3459.961 -1331.173)" fill="#00226a" fill-rule="evenodd"/>
      <path id="Path_1948" data-name="Path 1948" d="M1783.376,1614.608c19.092,17.822,50.255,17.052,68.756,10.317,14.073-5.12,50.324-18.543,61.907-9.241,9.1,7.313,7.052,16.3,23.035,16.3a21.894,21.894,0,0,1,8.967,1.239c11.27,4.451,14.012,3.81,5.625-6.426a51.513,51.513,0,0,0-3.962-3.941c-7.262-6.972-23.051-14.756-26.312-16.884-12.083-10.355-42.67-5.263-57.445-4.4-22.441,1.3-47,4.313-54.561-20.71-.4-1.321-.8-2.849-1.22-4.529C1799.711,1585.972,1787.674,1599.13,1783.376,1614.608Z" transform="translate(-1721.643 -1405.51)" fill="#004b7a" fill-rule="evenodd"/>
      <path id="Path_1949" data-name="Path 1949" d="M1648.647,1360.625c3.173,3.747,1.022.461,3.536-2.693,10.721-13.471,18.482-21.016,26.636-29.842-.686-2.67-1.846-5.949-2.784-9.87-2.285-9.493-5.435-21.417-10.016-29.806-5.083-9.3-20.846-19.433-30.549-13.627-19.031,11.388-6.217,53.434,4.508,72.825C1642.671,1352.49,1645.909,1355.865,1648.647,1360.625Z" transform="translate(-1588.855 -1150.124)" fill="#f94bbb" fill-rule="evenodd"/>
    </g>
    <path id="Path_1950" data-name="Path 1950" d="M3487.839,2432.839l17.542-8a.393.393,0,0,1,.424.651l-.007.006-16.028,14.239-.6-1.069,15.1-5.047a.8.8,0,0,1,.7,1.413l-.014.009-14.8,10.12-.712-1.753,16.32-3.136a1.107,1.107,0,0,1,.69,2.084l-.017.008-13.526,6.516-.938-2.257a57.876,57.876,0,0,1,8.773-2.469,58.86,58.86,0,0,1,9.064-1.068,1.379,1.379,0,0,1,.906,2.463l-.031.025-9.6,7.454a1.341,1.341,0,0,1-.2.129l-.036.018-5.845,3.01-2.925,1.5-2.931,1.488-.844-3.089,2.668-.193,2.668-.178c1.779-.116,3.558-.243,5.337-.351h.024a1.623,1.623,0,0,1,1.379,2.616l-1.147,1.474-1.429-2.59,3.2-.271.02,0a1.588,1.588,0,0,1,1.4,2.534q-1.354,1.806-2.723,3.6l-.712-2.375,6.626,2.521.042.016a1.449,1.449,0,0,1-.086,2.737,9.039,9.039,0,0,0-5.349,4.61l-.023.048a1.236,1.236,0,0,1-.434.491l-5.443,3.542-.408-2.142,9.048,2.266.053.013a.94.94,0,0,1,.434,1.579,16.327,16.327,0,0,0-3.015,4.153,18.661,18.661,0,0,0-1.691,4.926l-.2,1.3-.109,1.314-.021,1.322.076,1.323a17.513,17.513,0,0,0,1.291,5.164.158.158,0,0,1-.284.137,16.941,16.941,0,0,1-1.808-5.191l-.192-1.376-.091-1.39.016-1.4.115-1.394A19.03,19.03,0,0,1,3499,2479.5a18.075,18.075,0,0,1,3.058-4.789l.487,1.592-9.149-1.815a1.175,1.175,0,0,1-.454-2.109l.046-.033,5.292-3.761-.457.54a11.715,11.715,0,0,1,6.834-6.272l-.044,2.753-6.687-2.351a1.535,1.535,0,0,1-.739-2.339l.027-.036q1.323-1.828,2.653-3.651l1.424,2.533-3.2.316a1.609,1.609,0,0,1-1.445-2.568l.016-.021,1.125-1.49,1.4,2.614c-1.778.135-3.558.25-5.336.376l-2.668.185-2.669.171h-.014a1.632,1.632,0,0,1-.831-3.09l2.943-1.463,2.949-1.452,5.9-2.892-.237.148,9.772-7.227.875,2.488a53.39,53.39,0,0,0-8.659.845,54.317,54.317,0,0,0-8.425,2.226l-.018.006a1.223,1.223,0,0,1-.92-2.263l13.625-6.308.673,2.093-16.372,2.857-.017,0a.964.964,0,0,1-.694-1.756l14.991-9.841.689,1.423-15.2,4.72-.013,0a.625.625,0,0,1-.59-1.073l16.334-13.887.417.656-17.731,7.565a.158.158,0,0,1-.128-.289Z" transform="translate(-1764.003 -1626.126)" fill="#040814"/>
    <path id="Path_1951" data-name="Path 1951" d="M2816.941,1454.056c-2.525,1.344-4.975,2.792-7.364,4.32a2.362,2.362,0,0,0-3.545-1.617q-3.489,1.956-6.893,4.078a2.7,2.7,0,0,0-3.431-.934c-5.595,2.785-11.041,5.87-16.359,9.169a2.281,2.281,0,0,0-1.37-.42,3.64,3.64,0,0,0-4.92-2.249,100.516,100.516,0,0,0-16.56,8.5c-1.347-2.38-5.008-3.409-6.635-.344a61.331,61.331,0,0,1-7.861,11.494q-3.1,2.857-5.966,5.97c-3.3,3.587,1.432,8.809,5.21,5.557a68.441,68.441,0,0,0,5.35-5.158,2.932,2.932,0,0,0,2.334-.122q3.8-1.883,7.4-4.075a2.438,2.438,0,0,0,3.489.268c5.338-4.07,10.856-7.832,16.508-11.38q-3.924,3.551-7.784,7.167c-2.129,1.964.834,5.064,3.043,3.246,4.61-3.793,9.141-7.685,13.65-11.6q3.051-2.305,6.2-4.468c-4.1,4.224-8.136,8.5-11.992,12.93-2.275,2.443,1.11,6.189,3.578,3.816,5.866-5.642,11.429-11.612,16.946-17.616q3.016-2.539,6.173-4.91c-1.825,1.868-3.652,3.729-5.429,5.611-5.027,5.323-9.83,10.875-14.51,16.5l-.012.011,0,0c-.122.146-.246.291-.368.438-1.626,1.96,1.671,4.629,3.418,2.816.542-.562,1.091-1.115,1.633-1.676a2.677,2.677,0,0,0,4.3,2.583,178.772,178.772,0,0,0,17.715-16.4,98.159,98.159,0,0,0,7.7-9.339c2.23-3.047,5.1-6.307,5.982-10.034.169-.714-.569-1.557-1.314-1.087-2.945,1.855-4.97,4.931-7.275,7.494-2.812,3.127-5.66,6.213-8.586,9.236a201.886,201.886,0,0,1-16.111,15.079c7.816-8,15.76-15.87,23.739-23.718a1.617,1.617,0,0,0-1.393-2.726c1.082-1.233,2.179-2.449,3.31-3.628A1.737,1.737,0,0,0,2816.941,1454.056Z" transform="translate(-1130.81 -808.389)" fill="#002158" opacity="0.22"/>
    <path id="Path_1952" data-name="Path 1952" d="M4033.149,2195.012c-.488,3.463-.77,7-1.2,10.48a1.331,1.331,0,0,0,1.858-.43,22.469,22.469,0,0,0,1.7-3.356.924.924,0,0,0,1.419-.226c.02-.033.037-.069.057-.1a60.642,60.642,0,0,0,1.238-8.7Q4035.688,2193.855,4033.149,2195.012Z" transform="translate(-2223.141 -1430.633)" fill="#002158"/>
    <path id="Path_1953" data-name="Path 1953" d="M4077.358,2194.178c.369-2.7.6-5.411.785-8.124-.183.084-.368.164-.551.248a58.236,58.236,0,0,1-.954,7.928.916.916,0,0,0,.711,0Z" transform="translate(-2260.78 -1425.053)" fill="#002158"/>
    <path id="Path_1954" data-name="Path 1954" d="M4092.884,2182.969c-.1,1.041-.215,2.082-.349,3.12a1.025,1.025,0,0,0,1.122-.22,8.273,8.273,0,0,0,.837-.932q-.045-1.882-.023-3.758v0q.023-1.9.1-3.793c-.432.191-.862.389-1.293.583C4093.169,2179.637,4093.043,2181.3,4092.884,2182.969Zm.863-.977a4.975,4.975,0,0,1-.8,1.475c.125-.318.245-.638.353-.972,0,0,0,0,0,0,.008-.021.016-.045.023-.067.064-.194.131-.415.192-.648.111-.038.223-.072.335-.111-.032.1-.065.21-.1.313Z" transform="translate(-2274.168 -1417.751)" fill="#002158"/>
    <path id="Path_1955" data-name="Path 1955" d="M3982.925,2215.064c-.249.163-.5.323-.745.488a.629.629,0,0,0-.818-.064,3.6,3.6,0,0,0-1.421,1.553c-.177.115-.352.23-.53.343q-1.186.75-2.4,1.474c-.362,3.236-1.015,6.484-1.2,9.7a1.431,1.431,0,0,0,.138-.191l.016.009c.475-1.052.933-2.111,1.4-3.166.3-.586.633-1.162.976-1.731-.338.816-.7,1.625-1.111,2.425-.756,1.485,1.495,2.758,2.258,1.263a23.435,23.435,0,0,0,1.426-2.571q.185-.315.373-.628a1.3,1.3,0,0,0,1.084.652c.293-2.07.544-4.146.772-6.223q-.371.9-.733,1.794.135-.642.223-1.3a.542.542,0,0,0,.093-.744c.162-.108.32-.22.479-.332q.206-1.926.384-3.855c-.113.05-.224.1-.337.151A.7.7,0,0,0,3982.925,2215.064Z" transform="translate(-2175.863 -1448.556)" fill="#002158"/>
    <path id="Path_1956" data-name="Path 1956" d="M4115.256,2168.895c0,.091,0,.205,0,.31a.911.911,0,0,0,1.031-.55l1.122-2.785c.27-.109.542-.216.808-.329-.113.336-.24.667-.382.983a.716.716,0,0,0,1.249.7,7.5,7.5,0,0,0,1.219-2.611c.946-.446,1.874-.906,2.75-1.4a1.178,1.178,0,0,0-.893-2.149c-.277.076-.558.17-.836.253a1.015,1.015,0,0,0-1.36-.669c-1.538.575-3.058,1.2-4.569,1.842C4115.284,2164.625,4115.222,2166.76,4115.256,2168.895Z" transform="translate(-2293.295 -1403.591)" fill="#002158"/>
    <path id="Path_1957" data-name="Path 1957" d="M3848.472,718.942a20.477,20.477,0,0,1,4.249,3.66l.9,1.094.839,1.151.758,1.211.687,1.257c.2.432.416.861.632,1.292l.576,1.327c.162.454.312.914.442,1.379.1.472.188.949.257,1.426l.053.724c.012.242.027.482.035.723-.011.485-.032.968-.069,1.447-.066.481-.144.958-.241,1.428-.065.235-.13.468-.206.7s-.151.459-.244.684l-.22-.016c-.075-.234-.133-.466-.189-.695s-.1-.456-.151-.681c-.119-.45-.219-.893-.308-1.332-.118-.438-.219-.872-.311-1.3-.061-.214-.114-.429-.17-.642l-.153-.641c-.123-.422-.23-.846-.319-1.274-.116-.422-.211-.848-.3-1.281l-.318-1.285c-.133-.421-.268-.843-.415-1.262l-.508-1.231-.583-1.2-.642-1.179-.714-1.142a23.445,23.445,0,0,0-3.51-4.16Z" transform="translate(-2068.508 -189.477)" fill="#0ed8d0"/>
    <path id="Path_1958" data-name="Path 1958" d="M3871.39,936c-.081,1.108-.2,2.206-.322,3.305l-.2,1.644c-.073.546-.151,1.092-.231,1.636s-.116,1.1-.172,1.65a6.6,6.6,0,0,1-.366,1.6,10.768,10.768,0,0,1-.691,1.528,7.19,7.19,0,0,1-1.029,1.449l-.215-.051a7.168,7.168,0,0,1-.276-1.755,10.72,10.72,0,0,1,.061-1.676,6.64,6.64,0,0,1,.387-1.6c.194-.518.413-1.03.581-1.554s.344-1.046.522-1.568l.553-1.56c.383-1.037.762-2.075,1.183-3.1Z" transform="translate(-2084.967 -372.24)" fill="#0ed8d0"/>
    <path id="Path_1959" data-name="Path 1959" d="M3217.211,948c.177.616.311,1.233.449,1.849s.247,1.233.338,1.85c.045.308.142.616.213.925a2.115,2.115,0,0,1,.015.926,3.857,3.857,0,0,1-.32.927,3.423,3.423,0,0,1-.667.928h-.221a3.4,3.4,0,0,1-.673-.923,3.84,3.84,0,0,1-.328-.924,2.116,2.116,0,0,1,.008-.926c.07-.309.164-.617.207-.926q.13-.926.325-1.852c.133-.617.263-1.235.435-1.852Z" transform="translate(-1535.939 -382.386)" fill="#0ed8d0"/>
    <path id="Path_1960" data-name="Path 1960" d="M3203.913,983.2c.268.695.493,1.395.722,2.095s.429,1.4.612,2.109c.091.353.232.7.35,1.049a2.9,2.9,0,0,1,.152,1.075,5.022,5.022,0,0,1-.179,1.119,4.024,4.024,0,0,1-.523,1.164l-.219.029a4.031,4.031,0,0,1-.806-.989,5.02,5.02,0,0,1-.463-1.034,2.885,2.885,0,0,1-.131-1.078c.023-.368.07-.739.066-1.1q-.009-1.094.045-2.2c.04-.735.076-1.47.154-2.21Z" transform="translate(-1525.372 -412.026)" fill="#0ed8d0"/>
    <path id="Path_1961" data-name="Path 1961" d="M3370.691,979.342l.131,1.273c.047.425.068.851.1,1.277.014.213.032.426.042.64l.027.641c.017.427.04.855.041,1.283.041,1.712-.006,3.429-.124,5.143s-.321,3.425-.6,5.125-.655,3.386-1.088,5.058l-.335,1.252-.358,1.247c-.114.418-.254.828-.38,1.242s-.259.827-.41,1.248-.323.84-.521,1.26a10.332,10.332,0,0,1-.7,1.24,6.439,6.439,0,0,1-2.191,2.078,6.116,6.116,0,0,1-1.433.566,6.846,6.846,0,0,1-1.472.2,8.069,8.069,0,0,1-2.8-.436,11.486,11.486,0,0,1-2.418-1.178,20.432,20.432,0,0,1-2.1-1.542l.106-.193a28.528,28.528,0,0,0,4.787,1.4,7.645,7.645,0,0,0,2.262.006,4.76,4.76,0,0,0,1.93-.717,8.028,8.028,0,0,0,2.518-3.5c.171-.366.332-.752.492-1.139s.33-.769.474-1.161l.445-1.174.4-1.189q.773-2.391,1.344-4.849c.393-1.634.7-3.291.946-4.958s.441-3.348.542-5.037c.034-.422.046-.845.064-1.268l.026-.635c.008-.212.007-.423.012-.635.006-.424.026-.848.02-1.272l-.007-1.274Z" transform="translate(-1652.276 -408.781)" fill="#0ed8d0"/>
    <path id="Path_1962" data-name="Path 1962" d="M2293.624,1020.057a15.506,15.506,0,0,1,.3,2.108,7.6,7.6,0,0,1-.159,2.232,10.4,10.4,0,0,1-.311,1.177,2.39,2.39,0,0,1-.709,1.02,2.925,2.925,0,0,1-1.141.6,2.046,2.046,0,0,1-1.324-.069l-.071-.209c.211-.406.363-.713.5-1s.25-.536.375-.776a2.607,2.607,0,0,1,.475-.653,3.174,3.174,0,0,0,.545-.686,10.855,10.855,0,0,0,.727-1.767c.212-.637.375-1.311.578-1.987Z" transform="translate(-756.279 -443.063)" fill="#0ed8d0"/>
    <path id="Path_1963" data-name="Path 1963" d="M2346.232,1040.8a9.523,9.523,0,0,1,.2,3.176c-.031.265-.018.546-.035.822a1.789,1.789,0,0,1-.078.4,1.618,1.618,0,0,1-.186.359,2.571,2.571,0,0,1-.6.608,2.479,2.479,0,0,1-.936.409l-.2-.1a3.139,3.139,0,0,1-.193-.5,3.177,3.177,0,0,1-.1-.442,2.766,2.766,0,0,1-.039-.4,2.341,2.341,0,0,1,.012-.373,1.276,1.276,0,0,1,.248-.651l.217-.3a3.048,3.048,0,0,0,.191-.311c.215-.429.431-.867.648-1.317s.417-.915.634-1.394Z" transform="translate(-801.631 -460.521)" fill="#0ed8d0"/>
    <path id="Path_1964" data-name="Path 1964" d="M2343.836,765.661a12.157,12.157,0,0,1,1.67.884,11.5,11.5,0,0,1,1.5,1.185,9.4,9.4,0,0,1,1.254,1.484,7.757,7.757,0,0,1,.875,1.792,6.106,6.106,0,0,1-.149,4.062,11.1,11.1,0,0,1-.9,1.781c-.335.554-.687,1.078-1.02,1.59a14.835,14.835,0,0,0-.89,1.533,13.368,13.368,0,0,0-.666,1.6c-.2.54-.359,1.09-.513,1.64s-.291,1.1-.406,1.668a17.9,17.9,0,0,1-.445,1.9,5.293,5.293,0,0,1-.445,1.022,3.978,3.978,0,0,1-.716.915,3.036,3.036,0,0,1-1.017.644,2.542,2.542,0,0,1-.607.143,2.307,2.307,0,0,1-.613-.03,2.377,2.377,0,0,1-.556-.188,2.04,2.04,0,0,1-.47-.327,1.791,1.791,0,0,1-.34-.447,1.386,1.386,0,0,1-.136-.521l.213-.06a1.3,1.3,0,0,0,1.345.534,1.273,1.273,0,0,0,.311-.1,1.667,1.667,0,0,0,.264-.172,1.959,1.959,0,0,0,.429-.5,2.952,2.952,0,0,0,.286-.642,4.566,4.566,0,0,0,.155-.733c.074-.524.094-1.11.156-1.765a11.351,11.351,0,0,1,1.089-3.828,15.779,15.779,0,0,1,.987-1.728c.365-.554.758-1.081,1.142-1.576a17.319,17.319,0,0,0,2.006-2.924,4.919,4.919,0,0,0,.492-1.557,5.1,5.1,0,0,0-.06-1.647,6.767,6.767,0,0,0-.581-1.614,9.259,9.259,0,0,0-.986-1.472,11.052,11.052,0,0,0-1.273-1.282,11.808,11.808,0,0,0-1.49-1.063Z" transform="translate(-797.583 -228.823)" fill="#0ed8d0"/>
    <path id="Path_1965" data-name="Path 1965" d="M2361.792,806.116a6.107,6.107,0,0,1,.937,1.636,6.62,6.62,0,0,1,.434,1.9c.009.164.03.33.052.5s.033.338.044.509a2.66,2.66,0,0,1-.042.5,2.426,2.426,0,0,1-.172.476,3.75,3.75,0,0,1-.276.437,3.554,3.554,0,0,1-.36.388,3.141,3.141,0,0,1-.449.32,2.465,2.465,0,0,1-.564.22l-.192-.11a4.172,4.172,0,0,1-.15-.557,4.229,4.229,0,0,1-.084-.48,3.34,3.34,0,0,1-.042-.433,2.64,2.64,0,0,1-.006-.4,1.412,1.412,0,0,1,.049-.375,1.558,1.558,0,0,1,.13-.358l.168-.362a3.692,3.692,0,0,0,.128-.379,10.428,10.428,0,0,0,.241-1.611,9.31,9.31,0,0,0-.051-1.734Z" transform="translate(-815.831 -262.893)" fill="#0ed8d0"/>
    <path id="Path_1966" data-name="Path 1966" d="M2178.651,1367.247l1.789,1.818,1.716,1.892,1.654,1.951,1.589,2.008,1.511,2.071,1.443,2.122,1.36,2.179,1.289,2.225c.407.754.815,1.509,1.234,2.26l1.178,2.294.536,1.173c.171.394.348.787.514,1.183q.463,1.2.875,2.427l.365,1.238.35,1.241c.2.837.392,1.676.566,2.516.148.848.285,1.7.4,2.547.083.859.168,1.714.2,2.576l-.216.047c-.356-.788-.657-1.584-.961-2.375-.324-.786-.629-1.573-.923-2.361-.322-.78-.626-1.562-.923-2.345l-.476-1.163-.46-1.167q-.491-1.155-.935-2.324c-.161-.385-.312-.774-.469-1.161l-.447-1.171-.941-2.328c-.338-.766-.686-1.528-1.037-2.29l-1.131-2.247-1.206-2.211-1.265-2.181-1.338-2.14-1.4-2.106-1.47-2.06-1.54-2.013-1.6-1.974Z" transform="translate(-662.193 -735.468)" fill="#0ed8d0"/>
    <path id="Path_1967" data-name="Path 1967" d="M2603.1,1768.128l2.922.928,2.892,1.028,2.863,1.111,2.834,1.192,2.8,1.285,2.76,1.364,2.715,1.456,2.675,1.532c.878.533,1.758,1.066,2.645,1.59l2.613,1.648,1.274.875c.42.3.843.592,1.26.894q1.227.94,2.421,1.921l1.162,1.019,1.15,1.031q1.116,1.07,2.207,2.162c.706.751,1.4,1.509,2.086,2.279.657.8,1.315,1.587,1.931,2.415l-.156.156c-.85-.589-1.658-1.215-2.467-1.836-.824-.6-1.632-1.222-2.431-1.846q-1.228-.9-2.425-1.833l-1.22-.9-1.209-.913q-1.229-.886-2.427-1.809c-.408-.3-.81-.6-1.215-.9l-1.2-.922-2.436-1.805c-.828-.58-1.662-1.151-2.5-1.721l-2.558-1.635-2.6-1.564-2.641-1.507-2.685-1.434-2.719-1.373-2.76-1.3-2.8-1.22-2.828-1.157Z" transform="translate(-1019.733 -1073.083)" fill="#0ed8d0"/>
    <path id="Path_1968" data-name="Path 1968" d="M2528.1,1734.339a8.627,8.627,0,0,1,2.179-.68,9.129,9.129,0,0,1,2.335-.111c.2.02.395.028.6.035s.4.028.6.046a3.661,3.661,0,0,1,.588.133,3.472,3.472,0,0,1,.543.259,5.6,5.6,0,0,1,.493.36,4.961,4.961,0,0,1,.437.44,4.306,4.306,0,0,1,.363.526,3.223,3.223,0,0,1,.143.3,2.32,2.32,0,0,1,.114.331l-.125.182a3.388,3.388,0,0,1-.343.035c-.11.009-.212.009-.314.01a5.193,5.193,0,0,1-.58-.015,4.58,4.58,0,0,1-.532-.051,4.264,4.264,0,0,1-.5-.082,2.309,2.309,0,0,1-.471-.132,2.442,2.442,0,0,1-.446-.207l-.444-.241c-.152-.072-.307-.142-.465-.2a14.448,14.448,0,0,0-1.989-.519,13.289,13.289,0,0,0-2.138-.209Z" transform="translate(-956.629 -1043.935)" fill="#0ed8d0"/>
    <path id="Path_1969" data-name="Path 1969" d="M3816.01,879.853c.048-4.445,11.816-4.08,12.666-3.665C3824.832,877.847,3820.108,878.827,3816.01,879.853Z" transform="translate(-2041.283 -321.711)" fill="#0c1011" fill-rule="evenodd"/>
    <path id="Path_1970" data-name="Path 1970" d="M3708.1,883.926c-.39-3.2-9.292-3.339-10.939-2.927a9.111,9.111,0,0,0-2.071.417C3695.349,882.677,3707.657,884.163,3708.1,883.926Z" transform="translate(-1939.445 -325.818)" fill="#0c1011" fill-rule="evenodd"/>
    <path id="Path_1971" data-name="Path 1971" d="M3718.5,910.768l-1.3-.943c-1.51.024-.862.053-4.054.053-.854,0-4.035-.7-4.6-1.368C3710.437,912.892,3715.315,911.571,3718.5,910.768Z" transform="translate(-1950.78 -349.127)" fill="#0c1011" fill-rule="evenodd"/>
    <path id="Path_1972" data-name="Path 1972" d="M3819.4,907.339l1.285-.959c1.509,0,.861.041,4.055,0,.853-.01,4.025-.753,4.584-1.427C3827.485,909.361,3822.593,908.1,3819.4,907.339Z" transform="translate(-2044.136 -346.133)" fill="#0c1011" fill-rule="evenodd"/>
    <path id="Path_1973" data-name="Path 1973" d="M3366.6,956.233l1.189,1.077c1.5.138.862.04,4.037.381.849.091,3.937,1.129,4.431,1.853C3374.846,954.984,3369.854,955.776,3366.6,956.233Z" transform="translate(-1662.799 -389.017)" fill="#0c1011" fill-rule="evenodd"/>
    <path id="Path_1974" data-name="Path 1974" d="M1970.817,765.372q.186,1.12.277,2.208c.085.73.143,1.452.193,2.17l.086,1.076c.027.358.042.713.063,1.069s.05.711.071,1.066.045.708.054,1.061c.147,2.825.27,5.618.38,8.413s.218,5.589.3,8.416c.02.352.022.707.032,1.062s.019.71.016,1.068c.024.711.03,1.427.027,2.149s.011,1.444-.014,2.178q0,1.094-.093,2.222l0,.041a.123.123,0,0,1-.242.02l-.519-2.094-.467-2.108-.395-2.123-.34-2.132q-.627-4.273-.824-8.6a86.26,86.26,0,0,1,.122-8.635l.166-2.153.221-2.148.294-2.138.348-2.13a.123.123,0,0,1,.243,0Z" transform="translate(-486.069 -228.458)" fill="#040814"/>
    <path id="Path_1975" data-name="Path 1975" d="M1639.239,2032.112q-10.16-2.488-20.411-4.6t-20.576-3.82a.412.412,0,0,0-.135.813h0a128.237,128.237,0,0,1,36.671,12.155l.339-1.181q-8.592-.845-17.1-2.356t-16.857-3.674l-.237,1.6a93.592,93.592,0,0,1,25.571,4.937l.325-1.82-33.658-1.065a1.085,1.085,0,0,0-.138,2.165h.012a258.805,258.805,0,0,1,38.5,6.549l.214-2.435a127.985,127.985,0,0,1-22.623-.628l-.2,2.657,16.456.706a1.426,1.426,0,0,0,.254-2.838l-.022,0-18.41-2.432-.3,3.058q7.345.573,14.613,1.816c2.418.42,4.829.883,7.226,1.411s4.782,1.11,7.151,1.75l.167-3.212-10.159,1.625-5.08.816-5.077.828-.011,0a1.611,1.611,0,0,0,.233,3.2l8.669.14h.014a1.58,1.58,0,0,0,.255-3.143l-3.04-.446-.017,0a1.563,1.563,0,0,0-.651,3.052l10.455,2.95.262-2.936-8.485.937-.021,0a1.437,1.437,0,0,0-.4,2.751l6.392,2.7.45-2.652-10.732.873-.026,0a1.285,1.285,0,0,0-.064,2.556l13.243,1.752.185-2.269-9.551-.075h-.026a1.021,1.021,0,0,0-.3,2l4.581,1.371,4.584,1.36-.04-1.685-5.5,2.111-.023.009a.8.8,0,0,0,.009,1.489l5.5,2.032.116-1.354-4.361.958-.022,0a.625.625,0,0,0,.035,1.228,26.464,26.464,0,0,1,5.147,1.374,26.913,26.913,0,0,1,4.793,2.373l.12-.756a5.337,5.337,0,0,0-2.566,1.707,5.081,5.081,0,0,0-.626,5.745,5.117,5.117,0,0,0,2.066,2.13.158.158,0,0,0,.157-.274,4.785,4.785,0,0,1-1.812-2.061,4.511,4.511,0,0,1,.759-5.068,4.56,4.56,0,0,1,2.244-1.37.415.415,0,0,0,.135-.745l-.015-.011a27.232,27.232,0,0,0-4.862-2.655,27.608,27.608,0,0,0-5.317-1.626l.012,1.233,4.392-.8a.7.7,0,0,0,.143-1.343l-.027-.011-5.437-2.2-.014,1.5,5.565-1.943a.885.885,0,0,0-.01-1.675l-.03-.01-4.541-1.5-4.545-1.486-.326,2,9.546.31a1.139,1.139,0,0,0,.212-2.264l-.027,0-13.2-2.043-.09,2.558,10.747-.678a1.382,1.382,0,0,0,.473-2.642l-.023-.01-6.348-2.805-.424,2.753,8.5-.814a1.5,1.5,0,0,0,.284-2.93l-.022-.006-10.421-3.07-.668,3.049,3.035.478.269-3.142-8.668-.2.222,3.2,5.083-.791,5.082-.8,10.162-1.612h0a1.643,1.643,0,0,0,.165-3.211q-3.634-.966-7.31-1.757c-2.451-.526-4.912-1-7.385-1.4-4.946-.807-9.929-1.387-14.928-1.709h-.019a1.537,1.537,0,0,0-.282,3.06l18.437,2.212.231-2.84-16.463-.519h-.013a1.333,1.333,0,0,0-.185,2.657,131.617,131.617,0,0,0,23.08.446h.009a1.236,1.236,0,0,0,.205-2.434,261.086,261.086,0,0,0-38.9-6.309l-.126,2.166,33.666.765h.009a.934.934,0,0,0,.316-1.821,95.338,95.338,0,0,0-26.094-4.785H1601a.811.811,0,0,0-.229,1.6q8.433,2.1,17.012,3.521t17.227,2.183h.007a.625.625,0,0,0,.332-1.182,129.272,129.272,0,0,0-37.1-11.851l-.132.814q10.327,1.6,20.593,3.577t20.452,4.333a.158.158,0,0,0,.073-.307Z" transform="translate(-168.308 -1288.312)" fill="#f94bbb"/>
    <g id="Group_292" data-name="Group 292" transform="translate(1860.336 646.155)" opacity="0.22">
      <path id="Path_1976" data-name="Path 1976" d="M4388.632,1458.908a514.77,514.77,0,0,1,94.431,4.232,77.166,77.166,0,0,1-27.813,17.192l19.833-.115c-38.951,13.02-75.771,34.036-114.846,46.684-6.993-8.638,8.222-16.917,19.744-28.793,1.88-1.938,25.117.432,26.187-2.047s1.121-5.583-.581-7.68-5.4-2.48-7.023-.323l7.042-8.889-21.185-3.056c-1.985-.286-4.116-.643-5.535-2.06-2.251-2.249-1.579-6.273.57-8.62s5.308-3.436,8.328-4.438" transform="translate(-4358.467 -1458.335)" fill="#002158"/>
    </g>
  </g>
</svg>
