<svg xmlns="http://www.w3.org/2000/svg" width="94.455" height="94.456" viewBox="0 0 94.455 94.456">
  <g id="Group_846" data-name="Group 846" transform="translate(0 0)">
    <path id="Path_2813" data-name="Path 2813" d="M222.087,129.471a84.379,84.379,0,0,1-84.4,84.4,5.753,5.753,0,0,1-5.628-4.479l-4.282-18.584a5.767,5.767,0,0,1,3.337-6.588l20-8.572a5.785,5.785,0,0,1,6.73,1.637l8.139,9.949a64.593,64.593,0,0,0,29.447-29.447l-9.949-8.139a5.773,5.773,0,0,1-1.637-6.73l8.58-20.017a5.769,5.769,0,0,1,6.6-3.337l18.592,4.3A5.722,5.722,0,0,1,222.087,129.471Zm-5.919.134-18.379-4.243L189.3,145.174l13.436,10.973c-8.926,19.041-19.277,29.431-38.4,38.4L153.37,181.107l-19.812,8.485,4.243,18.38A78.448,78.448,0,0,0,216.167,129.6Z" transform="translate(-127.631 -119.419)"/>
  </g>
</svg>
