<svg id="Group_847" data-name="Group 847" xmlns="http://www.w3.org/2000/svg" width="70.842" height="70.842" viewBox="0 0 70.842 70.842">
  <path fill="#01FE93" id="Path_2814" data-name="Path 2814" d="M349.473,185.388v5.9a1.476,1.476,0,0,1-1.48,1.472H318.475v29.517a1.476,1.476,0,0,1-1.472,1.48h-5.9a1.478,1.478,0,0,1-1.48-1.48V192.764H280.1a1.475,1.475,0,0,1-1.472-1.472v-5.9a1.476,1.476,0,0,1,1.472-1.48H309.62V154.391a1.477,1.477,0,0,1,1.48-1.472H317a1.475,1.475,0,0,1,1.472,1.472v29.517h29.518A1.478,1.478,0,0,1,349.473,185.388Z" transform="translate(-278.631 -152.919)"/>
</svg>
