<svg xmlns="http://www.w3.org/2000/svg" width="16.857" height="27.683" viewBox="0 0 16.857 27.683">
  <g id="Group_152" data-name="Group 152" transform="translate(-445.429 -1063.49)">
    <path id="Path_1415" data-name="Path 1415" d="M461.379,1085.916a3.081,3.081,0,0,1,0,4.369,3.132,3.132,0,0,1-4.362.01.677.677,0,1,1,.938-.977,1.792,1.792,0,0,0,2.465.009,1.727,1.727,0,0,0,0-2.456l-8.991-9.067a.678.678,0,0,1,0-.954l1.948-1.964a.677.677,0,1,1,.962.954l-1.475,1.488Zm-15.95-8.588a1.026,1.026,0,0,1,.037-.253v-.239a.716.716,0,0,1,.115-.391.679.679,0,0,0,.02-.071,1.352,1.352,0,0,1,.046-.16.865.865,0,0,1,.033-.089.65.65,0,0,1,.046-.12c.022-.043.052-.1.088-.158.023-.04.051-.087.079-.139a.711.711,0,0,1,.235-.313,1.714,1.714,0,0,1,.255-.25L457,1064.374a3.091,3.091,0,0,1,4.384,4.359l-4.349,4.387a.677.677,0,0,1-.962-.954l4.342-4.379a1.727,1.727,0,0,0,0-2.458,1.8,1.8,0,0,0-2.456,0l-10.654,10.806a.661.661,0,0,1-.107.088c-.017.016-.036.042-.055.064s-.048.054-.07.079c-.033.062-.065.117-.093.165l-.007.01a.729.729,0,0,1-.055.136,1.832,1.832,0,0,1-.1.308l0,.007v.146a.881.881,0,0,1-.022.191.863.863,0,0,1,.022.189v.147a1.736,1.736,0,0,1,.1.3.724.724,0,0,1,.056.132.124.124,0,0,1,.018.026,2.452,2.452,0,0,1,.128.219l.021.025a.651.651,0,0,0,.063.069.6.6,0,0,1,.1.083l8.577,8.7a.677.677,0,1,1-.965.951l-8.537-8.658a1.75,1.75,0,0,1-.263-.259l0,0a.745.745,0,0,1-.236-.356l-.025-.039a1.585,1.585,0,0,1-.133-.242.7.7,0,0,1-.088-.219c-.01-.034-.018-.066-.026-.1a.359.359,0,0,0-.034-.1c-.007-.014-.013-.028-.019-.042a.8.8,0,0,1-.09-.374v-.2A1.034,1.034,0,0,1,445.429,1077.328Z" fill="#01fe93"/>
  </g>
</svg>
