<svg xmlns="http://www.w3.org/2000/svg" xmlns:xlink="http://www.w3.org/1999/xlink" width="85.273" height="85.273" viewBox="0 0 85.273 85.273">
  <defs>
    <filter id="Path_1486" x="0" y="0" width="85.273" height="85.273" filterUnits="userSpaceOnUse">
      <feOffset input="SourceAlpha"/>
      <feGaussianBlur stdDeviation="3" result="blur"/>
      <feFlood flood-color="#f21289"/>
      <feComposite operator="in" in2="blur"/>
      <feComposite in="SourceGraphic"/>
    </filter>
  </defs>
  <g id="Group_165" data-name="Group 165" transform="translate(3662.511 5196.957)">
    <g transform="matrix(1, 0, 0, 1, -3662.51, -5196.96)" filter="url(#Path_1486)">
      <path id="Path_1486-2" data-name="Path 1486" d="M-3590.709-5123.22v-23.544l-13.324,3.807v-3.807l-13.642,3.9-1.36-18.136v-6.739h1.936v-1.936h-3.871v-4.16a6.129,6.129,0,0,0,2.517-.13,8.635,8.635,0,0,0,8.424,6.813,8.54,8.54,0,0,0,6.139-2.569,10.165,10.165,0,0,0,6.89,2.692,10.174,10.174,0,0,0,10.163-10.162,10.187,10.187,0,0,0-2.262-6.392l-1.5,1.219a8.132,8.132,0,0,1,1.83,5.172,8.236,8.236,0,0,1-8.227,8.227,8.229,8.229,0,0,1-6.2-2.823l-.782-.9-.719.948a6.632,6.632,0,0,1-5.325,2.648,6.688,6.688,0,0,1-6.664-6.24l-.089-1.383-1.268.56a4.472,4.472,0,0,1-2.921.343v-1.61h-1.936v7.743h-1.936v-5.854h-1.936v1.77a2.909,2.909,0,0,1-1.936-2.737,2.9,2.9,0,0,1,.869-2.068,2.837,2.837,0,0,1,1.978-.835h.062l.008-1.936h-8.693l-.034.934a4.471,4.471,0,0,1-3.867,4.22v-1.825h-1.936v8.332h-1.936v-5.854h-1.936v1.77a2.909,2.909,0,0,1-1.936-2.737,2.9,2.9,0,0,1,.869-2.068,2.849,2.849,0,0,1,2.031-.835l1.012.009-.036-1.011a4.8,4.8,0,0,1,1.354-3.539,4.8,4.8,0,0,1,3.481-1.478H-3620a4.839,4.839,0,0,1,4.683,3.612l.35,1.341,1.138-.791a6.636,6.636,0,0,1,3.8-1.188,6.678,6.678,0,0,1,4.326,1.591l.906.771.57-1.044a8.231,8.231,0,0,1,7.227-4.292,8.131,8.131,0,0,1,5.172,1.83l1.219-1.5a10.186,10.186,0,0,0-6.392-2.262,10.164,10.164,0,0,0-8.344,4.36,8.62,8.62,0,0,0-4.685-1.386,8.572,8.572,0,0,0-3.847.905,6.778,6.778,0,0,0-6.127-3.879h-17.422a6.717,6.717,0,0,0-4.874,2.07,6.712,6.712,0,0,0-1.868,4.036,4.78,4.78,0,0,0-2.462,1.31,4.818,4.818,0,0,0-1.441,3.443,4.847,4.847,0,0,0,3.871,4.742v2.079h-3.871v1.936h1.936V-5161l-1.667,22.227,1.931.145,1.021-13.625h7.108l2.178,29.036h-11.464l1.011-13.48-1.931-.145-1.021,13.625h-3.941v1.936h66.073v-1.936Zm-1.936-20.978v20.978h-11.389v-17.724Zm-13.324,0v20.978H-3616.2l-1.326-17.675Zm-12.174,20.978h-11.463l2.177-29.036h7.109Zm-8.635-44.521h5.807v5.807h-5.807Zm-.07,7.743h5.947l.436,5.807h-6.818Zm-11.544-7.743v5.807h-5.808v-5.807Zm-6.312,13.55.436-5.807h5.947l.436,5.807Zm6.313-15.486v-4.547a6.455,6.455,0,0,0,5.7-5.178h3.017a4.8,4.8,0,0,0-.971,2.9,4.848,4.848,0,0,0,3.872,4.742v2.079h-3.872v1.936h1.936V-5161l-1.382,18.426h-4.979l-1.381-18.426v-6.739h1.936v-1.936Zm3.463,29.036h4.688l-1.307,17.421h-2.075Z" transform="translate(3662.51 5196.96)" fill="#fff" stroke="#f21289" stroke-width="1.2"/>
    </g>
    <path id="Path_1487" data-name="Path 1487" d="M-3336.275-5018.714a6.112,6.112,0,0,0-1.445-3.907,6.1,6.1,0,0,0-4.67-2.169,6.123,6.123,0,0,0-6.116,6.116,6.055,6.055,0,0,0,2.454,4.894,6.07,6.07,0,0,0,4.341,1.187,4.841,4.841,0,0,0,4.657,3.5,4.849,4.849,0,0,0,4.844-4.844,4.793,4.793,0,0,0-1.533-3.536A4.865,4.865,0,0,0-3336.275-5018.714Zm-.779,7.688a2.905,2.905,0,0,1-2.9-2.76l-.061-1.229-1.181.35a4.149,4.149,0,0,1-3.693-.665,4.137,4.137,0,0,1-1.676-3.343,4.185,4.185,0,0,1,4.18-4.18,4.166,4.166,0,0,1,3.191,1.481,4.184,4.184,0,0,1,.929,3.408l-.207,1.21,1.225-.082a2.89,2.89,0,0,1,2.187.779,2.877,2.877,0,0,1,.92,2.122,2.912,2.912,0,0,1-2.909,2.909Z" transform="translate(-261.347 -139.572)" fill="#fff" stroke="#f21289" stroke-width="1.2"/>
    <path id="Path_1488" data-name="Path 1488" d="M-3348.421-4837.025h1.936v12.647h-1.936Z" transform="translate(-261.42 -300.777)" fill="#fff" stroke="#f21289" stroke-width="1.2"/>
    <path id="Path_1489" data-name="Path 1489" d="M-3281.594-4837.025h1.936v12.647h-1.936Z" transform="translate(-318.794 -300.777)" fill="#fff" stroke="#f21289" stroke-width="1.2"/>
    <path id="Path_1490" data-name="Path 1490" d="M-3254.224-4837.025h1.936v12.647h-1.936Z" transform="translate(-342.292 -300.777)" fill="#fff" stroke="#f21289" stroke-width="1.2"/>
    <path id="Path_1491" data-name="Path 1491" d="M-3375.791-4837.025h1.936v12.647h-1.936Z" transform="translate(-237.921 -300.777)" fill="#fff" stroke="#f21289" stroke-width="1.2"/>
    <path id="Path_1492" data-name="Path 1492" d="M-3243.961-5142.881h1.936v1.936h-1.936Z" transform="translate(-351.104 -38.185)" fill="#fff" stroke="#f21289" stroke-width="1.2"/>
    <path id="Path_1493" data-name="Path 1493" d="M-3577.644-5035h1.936v1.936h-1.936Z" transform="translate(-64.62 -130.806)" fill="#fff" stroke="#f21289" stroke-width="1.2"/>
    <path id="Path_1494" data-name="Path 1494" d="M-3454.48-5035h1.936v1.936h-1.936Z" transform="translate(-170.363 -130.806)" fill="#fff" stroke="#f21289" stroke-width="1.2"/>
  </g>
</svg>
