<svg xmlns="http://www.w3.org/2000/svg" xmlns:xlink="http://www.w3.org/1999/xlink" width="83.424" height="83.44" viewBox="0 0 83.424 83.44">
  <defs>
    <filter id="Path_1470" x="0" y="0" width="83.424" height="83.44" filterUnits="userSpaceOnUse">
      <feOffset input="SourceAlpha"/>
      <feGaussianBlur stdDeviation="3" result="blur"/>
      <feFlood flood-color="#f21289"/>
      <feComposite operator="in" in2="blur"/>
      <feComposite in="SourceGraphic"/>
    </filter>
  </defs>
  <g id="Group_163" data-name="Group 163" transform="translate(3955.208 4515.68)" style="isolation: isolate">
    <g transform="matrix(1, 0, 0, 1, -3955.21, -4515.68)" filter="url(#Path_1470)">
      <path id="Path_1470-2" data-name="Path 1470" d="M-3887.616-4480.932v-1.488h5.284a.949.949,0,0,0,.948-.948v-3.727a.948.948,0,0,0-.474-.821l-31.164-18.021a.948.948,0,0,0-.95,0l-31.164,18.021a.949.949,0,0,0-.474.821v3.727a.949.949,0,0,0,.948.948h5.284v1.488a1.764,1.764,0,0,0,1.626,1.756v25.684h-2.913a.949.949,0,0,0-.948.949v3.929h-3.049a.949.949,0,0,0-.948.948v4.878a.949.949,0,0,0,.948.948h62.327a.949.949,0,0,0,.948-.948v-4.878a.949.949,0,0,0-.948-.948h-3.049v-3.929a.949.949,0,0,0-.948-.949h-2.913v-21.9c0-.018.005-.035.005-.054s0-.035-.005-.054v-3.68A1.764,1.764,0,0,0-3887.616-4480.932Zm-3.523,1.626v2.916h-2.981v-2.916a1.765,1.765,0,0,0-1.626-1.757v-1.355h6.233v1.355A1.765,1.765,0,0,0-3891.139-4479.306Zm-12.016,25.814v-21.9c0-.018.006-.035.006-.054s0-.035-.006-.054v-3.68a1.764,1.764,0,0,0,1.626-1.756v-1.488h3.886v1.488a1.764,1.764,0,0,0,1.626,1.756v25.684Zm-4.878,0v-21h2.981v21Zm-9.029,0v-25.684a1.764,1.764,0,0,0,1.626-1.756v-1.488h3.88v1.488a1.764,1.764,0,0,0,1.626,1.756v25.684Zm-4.878,0v-21h2.981v21Zm-9.035,0v-25.684a1.764,1.764,0,0,0,1.626-1.756v-1.488h3.886v1.488a1.764,1.764,0,0,0,1.626,1.756v25.684Zm13.642-28.928v1.355a1.764,1.764,0,0,0-1.626,1.756v2.918h-2.981v-2.916a1.765,1.765,0,0,0-1.626-1.757v-1.355Zm13.907,0v1.355a1.763,1.763,0,0,0-1.626,1.756v2.918h-2.981v-2.916a1.764,1.764,0,0,0-1.626-1.757v-1.355Zm-40.285-4.127,30.215-17.473,30.215,17.473v2.23h-5.257l-.026,0h-8.131l-.026,0h-5.731l-.026,0h-8.13l-.026,0h-5.726l-.026,0h-8.13l-.026,0h-5.731l-.026,0h-8.13l-.026,0h-5.258Zm12.465,4.127v1.355a1.763,1.763,0,0,0-1.626,1.756v2.918h-2.981v-2.916a1.764,1.764,0,0,0-1.626-1.757v-1.355Zm-4.607,7.926h2.981v21h-2.981Zm52.572,30.757h-60.43v-2.981h60.43Zm-4-4.878h-52.436v-2.981h52.436Zm-6.842-4.878v-21h2.981v21Z" transform="translate(3955.21 4515.68)" fill="#fff" stroke="#f21289" stroke-width="1.2"/>
    </g>
    <path id="Path_1471" data-name="Path 1471" d="M-3735.408-4423.673a4.2,4.2,0,0,0,4.2-4.2,4.2,4.2,0,0,0-4.2-4.2,4.2,4.2,0,0,0-4.2,4.2v0A4.205,4.205,0,0,0-3735.408-4423.673Zm0-6.5a2.3,2.3,0,0,1,2.3,2.3,2.3,2.3,0,0,1-2.3,2.3,2.3,2.3,0,0,1-2.3-2.3A2.306,2.306,0,0,1-3735.408-4430.177Z" transform="translate(-178.088 -63.965)" fill="#fff" stroke="#f21289" stroke-width="1.2"/>
    <path id="Path_1472" data-name="Path 1472" d="M-3646.461-4436.857l8.234,4.761a.948.948,0,0,0,1.3-.346.949.949,0,0,0-.346-1.3l-8.234-4.761a.949.949,0,0,0-1.3.347A.948.948,0,0,0-3646.461-4436.857Z" transform="translate(-258.205 -58.3)" fill="#fff" stroke="#f21289" stroke-width="1.2"/>
  </g>
</svg>
