<svg xmlns="http://www.w3.org/2000/svg" width="95.565" height="95.566" viewBox="0 0 95.565 95.566">
  <g id="Group_160" data-name="Group 160" transform="translate(217.935 269.902)">
    <g id="Group_159" data-name="Group 159" transform="translate(-217.935 -269.902)">
      <path id="Path_1450" data-name="Path 1450" d="M-4173.172-7827.778l-1.88.765-3.326-2-4.837,4.838,2,3.328-.776,1.88-3.77.941v6.84l3.775.942.771,1.881-2,3.327,4.837,4.839,3.326-2,1.76.716.313.825.75,3h6.5v-6.635a10.723,10.723,0,0,1-3.083.47,10.8,10.8,0,0,1-10.79-10.789,10.8,10.8,0,0,1,10.79-10.79,10.723,10.723,0,0,1,3.083.47v-6.635h-6.5Z" transform="translate(4188.846 7859.302)" fill="#ee0790"/>
      <circle id="Ellipse_11" data-name="Ellipse 11" cx="1.541" cy="1.541" r="1.541" transform="translate(84.776 21.579)" fill="#00226a"/>
      <path id="Path_1451" data-name="Path 1451" d="M-4135.624-7637.164a1.543,1.543,0,0,0-1.542,1.542,1.543,1.543,0,0,0,1.542,1.541,1.543,1.543,0,0,0,1.541-1.541A1.543,1.543,0,0,0-4135.624-7637.164Z" transform="translate(4151.038 7708.068)"/>
      <path id="Path_1452" data-name="Path 1452" d="M-4144.107-7782.2a7.715,7.715,0,0,0,7.707,7.708,7.657,7.657,0,0,0,3.083-.659v-14.1a7.658,7.658,0,0,0-3.083-.66A7.716,7.716,0,0,0-4144.107-7782.2Z" transform="translate(4156.438 7826.895)" fill="#0ed8d0"/>
      <path id="Path_1453" data-name="Path 1453" d="M-4081.624-7577a4.63,4.63,0,0,0,4.625,4.624h40.075A4.629,4.629,0,0,0-4032.3-7577v-4.625h-49.324Zm40.076-1.541h3.083v3.083h-3.083Zm-21.579,0h12.331v3.083h-12.331Zm-12.331,0h3.083v3.083h-3.083Z" transform="translate(4107.827 7664.857)" fill="#0ed8d0"/>
      <path id="Path_1454" data-name="Path 1454" d="M-4035.382-7831.688v6.245h-43.159v-58.572h43.159v9.327c.512-.037,1.021-.079,1.542-.079s1.029.042,1.541.079v-12.41h-49.324v64.738h49.324v-9.327c-.512.038-1.02.079-1.541.079S-4034.871-7831.651-4035.382-7831.688Z" transform="translate(4107.827 7902.513)" fill="#00497f"/>
      <path id="Path_1455" data-name="Path 1455" d="M-3931.217-7817.671a18.517,18.517,0,0,0-18.5,18.5,18.343,18.343,0,0,0,2.012,8.343,7.688,7.688,0,0,1,5.367-4.842l6.494-1.624v-.368a7.716,7.716,0,0,1-3.083-6.134v-2.763a7.928,7.928,0,0,1,7.022-7.995,7.75,7.75,0,0,1,5.891,1.995,7.73,7.73,0,0,1,2.5,5.683v3.083a7.715,7.715,0,0,1-3.083,6.133v.368l6.494,1.625a7.69,7.69,0,0,1,5.367,4.842,18.367,18.367,0,0,0,2.012-8.345A18.517,18.517,0,0,0-3931.217-7817.671Z" transform="translate(4005.203 7848.499)" fill="#0ed8d0"/>
      <path id="Path_1456" data-name="Path 1456" d="M-4032.3-7938.016a4.63,4.63,0,0,0-4.624-4.624H-4077a4.63,4.63,0,0,0-4.625,4.624v4.624h49.324Zm-21.579,1.541h-12.332v-3.083h12.332Zm6.165,0h-3.083v-3.083h3.083Z" transform="translate(4107.827 7945.723)" fill="#0ed8d0"/>
      <path id="Path_1457" data-name="Path 1457" d="M-4016.86-7852.65v-6.677h-36.993v52.406h36.993v-3.595a21.606,21.606,0,0,1-16.956-21.067,21.478,21.478,0,0,1,.247-3.083h-17.2v-21.578h30.827v4.529A21.429,21.429,0,0,1-4016.86-7852.65ZM-4036.9-7810h-13.872v-3.083h13.872Zm0-6.166h-13.872v-3.083h13.872Zm0-6.166h-13.872v-3.083h13.872Zm0-9.249v3.083h-13.872v-3.083Z" transform="translate(4086.222 7880.906)" fill="#00497f"/>
      <path id="Path_1458" data-name="Path 1458" d="M-4011.3-7816.144a21.65,21.65,0,0,1,9.88-12.494v-2.919h-24.662v15.413Z" transform="translate(4064.617 7859.302)" fill="#00226a"/>
      <path id="Path_1459" data-name="Path 1459" d="M-3904.643-7771.069l-8.829-2.206v-4.487l.766-.445a4.577,4.577,0,0,0,2.317-3.979v-3.084a4.644,4.644,0,0,0-1.5-3.409,4.615,4.615,0,0,0-3.542-1.2,4.829,4.829,0,0,0-4.207,4.925v2.764a4.577,4.577,0,0,0,2.317,3.979l.766.445v4.487l-8.828,2.206a4.618,4.618,0,0,0-3.5,4.485v1.216a18.447,18.447,0,0,0,13.872,6.3,18.45,18.45,0,0,0,13.873-6.3v-1.216A4.619,4.619,0,0,0-3904.643-7771.069Z" transform="translate(3989 7826.887)" fill="#ee0790"/>
      <path id="Path_1460" data-name="Path 1460" d="M-4121.037-7928.268v-20.55a7.716,7.716,0,0,0-7.707-7.708h-40.076a7.716,7.716,0,0,0-7.707,7.708v16.955h-8.911l-.93,3.725-3.289-1.976-8.244,8.239,1.975,3.292-3.723.93V-7906l3.725.929-1.977,3.293,8.242,8.24,3.289-1.976.931,3.723h8.911v23.121a7.715,7.715,0,0,0,7.707,7.706h40.076a7.715,7.715,0,0,0,7.707-7.706v-17.468a21.6,21.6,0,0,0,16.955-21.066h0A21.606,21.606,0,0,0-4121.037-7928.268Zm-55.49,23.49a7.668,7.668,0,0,1-3.083.659,7.716,7.716,0,0,1-7.707-7.707,7.717,7.717,0,0,1,7.707-7.707,7.652,7.652,0,0,1,3.083.66Zm0-17.367a10.712,10.712,0,0,0-3.083-.47,10.8,10.8,0,0,0-10.789,10.789,10.8,10.8,0,0,0,10.789,10.79,10.679,10.679,0,0,0,3.083-.471v6.637h-6.5l-.75-3-.313-.824-1.761-.716-3.326,2-4.837-4.837,2-3.329-.771-1.879-3.775-.942v-6.841l3.771-.942.775-1.88-2-3.328,4.837-4.838,3.326,2,1.881-.765.943-3.78h6.5Zm3.083-26.673a4.63,4.63,0,0,1,4.625-4.625h40.076a4.63,4.63,0,0,1,4.624,4.625v4.623h-49.324Zm49.324,80.151a4.63,4.63,0,0,1-4.624,4.625h-40.076a4.63,4.63,0,0,1-4.625-4.625v-4.624h49.324Zm0-7.707h-49.324v-64.739h49.324v12.41c-.512-.036-1.021-.079-1.541-.079s-1.03.043-1.542.079v-9.327h-43.158v58.573h43.158v-6.245c.512.036,1.021.079,1.542.079s1.029-.043,1.541-.079Zm-40.076-55.49v21.579h17.2a21.3,21.3,0,0,0-.247,3.083,21.606,21.606,0,0,0,16.955,21.066v3.6h-36.992v-52.407h36.992v6.678a21.441,21.441,0,0,0-3.083.936v-4.53Zm27.746,3.082v2.92a21.658,21.658,0,0,0-9.881,12.494h-14.782v-15.414Zm24.662,33.772a18.443,18.443,0,0,1-13.873,6.3,18.438,18.438,0,0,1-13.872-6.3v-1.214a4.619,4.619,0,0,1,3.5-4.486l8.829-2.207v-4.485l-.766-.446a4.575,4.575,0,0,1-2.317-3.979v-2.764a4.831,4.831,0,0,1,4.208-4.925,4.616,4.616,0,0,1,3.541,1.2,4.639,4.639,0,0,1,1.5,3.41v3.082a4.575,4.575,0,0,1-2.317,3.979l-.766.446v4.485l8.829,2.207a4.62,4.62,0,0,1,3.5,4.486Zm2.612-3.848a7.691,7.691,0,0,0-5.368-4.842l-6.493-1.625v-.368a7.714,7.714,0,0,0,3.083-6.133v-3.083a7.731,7.731,0,0,0-2.5-5.683,7.748,7.748,0,0,0-5.891-1.994,7.927,7.927,0,0,0-7.023,7.994v2.764a7.715,7.715,0,0,0,3.083,6.134v.368l-6.493,1.624a7.69,7.69,0,0,0-5.367,4.842,18.349,18.349,0,0,1-2.012-8.343,18.517,18.517,0,0,1,18.5-18.5,18.516,18.516,0,0,1,18.5,18.5A18.369,18.369,0,0,1-4109.176-7898.855Z" transform="translate(4199.648 7956.525)" fill="#002158"/>
      <rect id="Rectangle_52" data-name="Rectangle 52" width="3.083" height="3.083" transform="translate(57.031 6.166)"/>
      <rect id="Rectangle_53" data-name="Rectangle 53" width="12.331" height="3.083" transform="translate(41.617 6.166)"/>
      <rect id="Rectangle_54" data-name="Rectangle 54" width="12.331" height="3.083" transform="translate(44.7 86.317)"/>
      <rect id="Rectangle_55" data-name="Rectangle 55" width="3.083" height="3.083" transform="translate(66.279 86.317)"/>
      <rect id="Rectangle_56" data-name="Rectangle 56" width="3.083" height="3.083" transform="translate(32.369 86.317)"/>
      <rect id="Rectangle_57" data-name="Rectangle 57" width="13.872" height="3.083" transform="translate(35.452 49.324)" fill="#00226a"/>
      <rect id="Rectangle_58" data-name="Rectangle 58" width="13.872" height="3.083" transform="translate(35.452 55.49)" fill="#00226a"/>
      <rect id="Rectangle_59" data-name="Rectangle 59" width="13.872" height="3.083" transform="translate(35.452 61.655)" fill="#00226a"/>
      <rect id="Rectangle_60" data-name="Rectangle 60" width="13.872" height="3.083" transform="translate(35.452 67.821)" fill="#00226a"/>
      <path id="Path_1461" data-name="Path 1461" d="M-3827.065-7907.175a4.629,4.629,0,0,0,4.624-4.623,4.619,4.619,0,0,0-3.082-4.341v-12.614h-3.083v12.614a4.618,4.618,0,0,0-3.083,4.341A4.628,4.628,0,0,0-3827.065-7907.175Zm0-6.164a1.542,1.542,0,0,1,1.542,1.541,1.543,1.543,0,0,1-1.542,1.541,1.543,1.543,0,0,1-1.541-1.541A1.542,1.542,0,0,1-3827.065-7913.339Z" transform="translate(3913.381 7934.919)" fill="#090c4b" style="mix-blend-mode: screen;isolation: isolate"/>
      <rect id="Rectangle_61" data-name="Rectangle 61" width="3.083" height="3.083" transform="translate(84.776)" fill="#090c4b" style="mix-blend-mode: screen;isolation: isolate"/>
      <path id="Path_1462" data-name="Path 1462" d="M-4146.426-7651.048a4.63,4.63,0,0,0-4.624,4.625,4.617,4.617,0,0,0,3.083,4.34v12.615h3.083v-12.615a4.617,4.617,0,0,0,3.083-4.34A4.629,4.629,0,0,0-4146.426-7651.048Zm0,6.166a1.543,1.543,0,0,1-1.542-1.541,1.543,1.543,0,0,1,1.542-1.542,1.543,1.543,0,0,1,1.542,1.542A1.543,1.543,0,0,1-4146.426-7644.883Z" transform="translate(4161.839 7718.869)" fill="#0ed8d0"/>
      <rect id="Rectangle_62" data-name="Rectangle 62" width="3.083" height="3.083" transform="translate(13.872 92.483)" fill="#0ed8d0"/>
    </g>
  </g>
</svg>
