<svg xmlns="http://www.w3.org/2000/svg" xmlns:xlink="http://www.w3.org/1999/xlink" width="87.226" height="85.086" viewBox="0 0 87.226 85.086">
  <defs>
    <filter id="Path_1508" x="0" y="0" width="87.226" height="85.086" filterUnits="userSpaceOnUse">
      <feOffset input="SourceAlpha"/>
      <feGaussianBlur stdDeviation="3" result="blur"/>
      <feFlood flood-color="#f21289"/>
      <feComposite operator="in" in2="blur"/>
      <feComposite in="SourceGraphic"/>
    </filter>
  </defs>
  <g transform="matrix(1, 0, 0, 1, 0, 0)" filter="url(#Path_1508)">
    <path id="Path_1508-2" data-name="Path 1508" d="M-4510.708-3285.751a1.292,1.292,0,0,0,.721,1.059,1.291,1.291,0,0,0,.567.131,1.293,1.293,0,0,0,.712-.214l6.2-4.1a1.291,1.291,0,0,0,.573-1.212l-.631-5.994a1.294,1.294,0,0,0-.478-.873,1.293,1.293,0,0,0-.957-.274l-6.31.736a1.291,1.291,0,0,0-1.138,1.384Zm5.714-8.763.413,3.916-3.724,2.461-.467-5.937Zm24.035,19.64a1.29,1.29,0,0,0-1.276-.463l-9.045,1.893a1.291,1.291,0,0,0-1.021,1.378l.736,8.308a1.292,1.292,0,0,0,1.286,1.177h.039l3.576-.1a1.289,1.289,0,0,0,1.131-.743l4.733-10.1A1.288,1.288,0,0,0-4480.959-3274.874Zm-6.577,9.63-1.564.046-.527-5.953,5.39-1.128Zm-53.225,4.872a1.282,1.282,0,0,0,.629-.164l4.523-2.524a1.292,1.292,0,0,0,.549-1.655l-3.156-7.047a1.288,1.288,0,0,0-.731-.683,1.292,1.292,0,0,0-1,.044l-7.993,3.786a1.292,1.292,0,0,0-.726.99,1.291,1.291,0,0,0,.43,1.15l6.626,5.784A1.289,1.289,0,0,0-4540.761-3260.372Zm.728-9.13,2.133,4.763-2.7,1.5-4.457-3.89Zm30.948,4.665a13.693,13.693,0,0,0,4.94-3.989,8.391,8.391,0,0,0,1.381-4.377,36.1,36.1,0,0,0,5.209-1.326c6.612-2.17,9.279-2.921,9.306-2.928l1.243-.349-.7-2.487-1.244.348c-.108.03-2.732.769-9.414,2.961a33.77,33.77,0,0,1-4.691,1.212,5.127,5.127,0,0,0-2.006-3.078,3.759,3.759,0,0,0-4.2.151,3.18,3.18,0,0,0-1.322,3.343,2.724,2.724,0,0,0,1.4,1.764,7.454,7.454,0,0,0,3.808.663,5.669,5.669,0,0,1-.917,2.651c-1.442,2.125-5.427,3.936-6.842,4.456l-1.212.443.756,2.07a37.181,37.181,0,0,0-10.633-7.234,7.329,7.329,0,0,0-5.3.293,5.021,5.021,0,0,0-2.84,2.945l-.9,2.648-.474,1.152.071.029-4.051,11.906-.049-.014-.355,1.2-2.69,7.906-.457,1.15.059.023-2.124,6.24a2.791,2.791,0,0,0,.655,2.871,2.794,2.794,0,0,0,1.993.839,2.821,2.821,0,0,0,.868-.138l6.962-2.248.085.169,1.061-.539,7.487-2.418,1.216-.366-.007-.024,11.846-3.826.03.077,1.144-.456,2.64-.853a5.742,5.742,0,0,0,3.514-3,6.171,6.171,0,0,0,.025-4.963c-1.6-3.965-5.089-8.877-9.468-13.071l1.036-.378A27.076,27.076,0,0,0-4509.086-3264.837Zm1.027-11.109a.63.63,0,0,1,.312-.652,1.27,1.27,0,0,1,.725-.231,1.117,1.117,0,0,1,.6.17,2.358,2.358,0,0,1,.756,1.163C-4507.394-3275.469-4508-3275.854-4508.059-3275.947Zm-23.528,39.084a15.442,15.442,0,0,0-6.4-5.885l1.9-5.6a16.874,16.874,0,0,1,9.825,9.759Zm-9.016,2.912a.2.2,0,0,1-.226-.055.2.2,0,0,1-.052-.227l2.057-6.045a12.843,12.843,0,0,1,4.7,4.235Zm34.4-15.03a3.625,3.625,0,0,1,.031,2.9,3.149,3.149,0,0,1-1.968,1.641l-1.536.5a41.006,41.006,0,0,0-10.186-14.114l-1.724,1.923a38.419,38.419,0,0,1,9.438,12.99l-11.647,3.762a19.448,19.448,0,0,0-11.454-11.41l3.973-11.675a38.147,38.147,0,0,1,7.051,4.169l1.034.773,1.547-2.068-1.034-.773a40.7,40.7,0,0,0-7.761-4.558l.528-1.55a2.492,2.492,0,0,1,1.453-1.421,5.325,5.325,0,0,1,2.126-.438,3.086,3.086,0,0,1,1.113.168C-4517.083-3264.728-4508.817-3255.471-4506.2-3248.98Zm-17.489-37.259a4.888,4.888,0,0,0,4.938-.4,10.433,10.433,0,0,0,.912-.608,10.859,10.859,0,0,1,.315,4.3,15.391,15.391,0,0,1-2.689,5.226l-.8,1.011,2.023,1.6.8-1.012a17.775,17.775,0,0,0,3.2-6.343,13.7,13.7,0,0,0-.563-6.185q-.123-.383-.262-.74a6.18,6.18,0,0,0,1.06-3.1h-2.583v-.021a2.3,2.3,0,0,1-.066.421,4.906,4.906,0,0,0-2.421-1.545c-2.712-.7-4.306.187-5.014.777a3.59,3.59,0,0,0-1.33,2.985A4.725,4.725,0,0,0-4523.69-3286.24Zm.5-4.623a2.26,2.26,0,0,1,1.462-.433,5.057,5.057,0,0,1,1.253.173,2.889,2.889,0,0,1,1.611,1.374,7.2,7.2,0,0,1-1.211.893,2.442,2.442,0,0,1-2.422.327,2.182,2.182,0,0,1-1.1-1.518A1.017,1.017,0,0,1-4523.187-3290.863Zm-15.377,5.006-.627,2.8a1.293,1.293,0,0,0,.449,1.288,1.292,1.292,0,0,0,1.354.167l2.6-1.2,2.469,1.462a1.289,1.289,0,0,0,.658.18,1.289,1.289,0,0,0,.705-.209,1.292,1.292,0,0,0,.577-1.235l-.34-2.849,2.153-1.9a1.291,1.291,0,0,0,.393-1.305,1.293,1.293,0,0,0-1-.931l-2.815-.556-1.138-2.634a1.29,1.29,0,0,0-1.119-.778,1.29,1.29,0,0,0-1.193.66l-1.4,2.5-2.856.269a1.292,1.292,0,0,0-1.085.824,1.292,1.292,0,0,0,.259,1.338Zm2.65-2.028a1.291,1.291,0,0,0,1.006-.656l.454-.813.37.855a1.29,1.29,0,0,0,.935.755l.914.18-.7.615a1.29,1.29,0,0,0-.429,1.123l.11.925-.8-.475a1.288,1.288,0,0,0-.658-.18,1.3,1.3,0,0,0-.542.119l-.845.391.2-.909a1.292,1.292,0,0,0-.312-1.16l-.634-.683Zm45.239,29.319-2.815-.556-1.138-2.634a1.293,1.293,0,0,0-1.121-.778,1.293,1.293,0,0,0-1.193.66l-1.4,2.505-2.857.268a1.291,1.291,0,0,0-1.085.825,1.291,1.291,0,0,0,.259,1.339l1.951,2.1-.628,2.8a1.291,1.291,0,0,0,.449,1.287,1.293,1.293,0,0,0,1.354.167l2.6-1.2,2.468,1.462a1.3,1.3,0,0,0,.659.18,1.29,1.29,0,0,0,.706-.21,1.291,1.291,0,0,0,.577-1.235l-.341-2.849,2.153-1.9a1.291,1.291,0,0,0,.394-1.305A1.292,1.292,0,0,0-4490.675-3258.565Zm-3.767,2.642a1.294,1.294,0,0,0-.429,1.123l.111.925-.8-.475a1.291,1.291,0,0,0-.658-.18,1.3,1.3,0,0,0-.543.119l-.844.391.2-.909a1.29,1.29,0,0,0-.313-1.16l-.633-.683.927-.087a1.292,1.292,0,0,0,1.007-.656l.454-.813.369.855a1.292,1.292,0,0,0,.936.754l.914.181Z" transform="translate(4558.28 3306.84)" fill="#fff" stroke="#f21289" stroke-width="1.2"/>
  </g>
</svg>