<?xml version="1.0" encoding="utf-8"?>
<!-- Generator: Adobe Illustrator 25.2.1, SVG Export Plug-In . SVG Version: 6.00 Build 0)  -->
<svg version="1.1" id="Layer_1" xmlns="http://www.w3.org/2000/svg" xmlns:xlink="http://www.w3.org/1999/xlink" x="0px" y="0px"
	 viewBox="0 0 407 82" style="enable-background:new 0 0 407 82;" xml:space="preserve">
<style type="text/css">
	.st0{fill:#00C6FD;}
</style>
<g>
	<path class="st0" d="M32.4873,18.9912c0.3496,1.248,0.5488,2.5459,0.5488,3.8945c0,6.54-5.1924,11.583-9.9854,11.583
		c-4.0439,0-6.3403-2.2471-6.3403-5.9912c0-4.3936,4.144-8.7373,9.5356-11.3838c-0.5488-0.7988-1.1982-1.4478-1.7969-2.0967
		c-0.4497-0.4492-0.5493-0.8486-0.5493-1.1484c0-1.0483,1.1479-1.8472,2.5464-1.8472c1.5977,0,3.2949,1.3481,4.543,3.395
		c1.7476-0.4492,3.5449-0.749,5.3423-0.749c7.2393,0,11.9824,4.0439,11.9824,11.084c0,8.4375-6.4907,17.4736-14.2788,22.3174
		c0.5986,1.4473,0.998,3.0957,1.0483,4.8926c4.5933-1.8975,8.6372-4.4434,11.2832-8.3379c0.6992-1.0488,1.2485-1.7969,2.1968-1.7969
		c0.9985,0,1.8477,0.6992,1.8477,1.5977c0,0.3496-0.1001,0.6992-0.4995,1.2979c-3.8442,5.5918-9.4858,8.9873-15.3276,11.3838
		c-2.1968,8.5869-11.4331,18.9219-20.8691,18.9219c-5.2925,0-9.1865-2.9961-9.1865-7.4395c0-9.0371,13.3301-10.085,25.5127-13.8301
		c0.0498-0.4492,0.0996-0.8984,0.0996-1.3477c0-1.1484-0.1499-2.1973-0.3994-3.1455c-2.1968,0.8486-4.3936,1.2979-6.5405,1.2979
		c-5.3423,0-7.9883-1.9473-7.9883-5.1426c0-2.8457,3.2954-5.1416,7.9883-5.1416c3.5449,0,6.5405,1.248,8.6372,3.3945
		c6.291-4.3428,11.3838-12.3818,11.3838-18.9219c0-4.6436-2.6963-7.1396-7.1895-7.1396
		C34.834,18.5918,33.6855,18.7422,32.4873,18.9912z M28.7925,59.1328c-10.085,3.1953-19.2217,4.3438-19.2217,9.2861
		c0,2.2959,1.7974,3.5947,4.2935,3.5947C19.3564,72.0137,25.9966,65.623,28.7925,59.1328z M27.894,46.8008
		c-1.1982-1.2988-2.8462-2.0469-4.6934-2.0469c-2.0469,0-2.9956,0.748-2.9956,1.5977c0,0.8477,0.9985,1.4473,2.8457,1.4473
		C24.6484,47.7988,26.2964,47.4492,27.894,46.8008z M27.7939,20.7383c-3.5947,1.8477-6.2407,4.793-6.2407,7.7393
		c0,1.248,0.6987,2.0967,1.897,2.0967c2.0474,0,4.5938-3.9941,4.5938-7.1895C28.0439,22.3867,27.9438,21.5371,27.7939,20.7383z"/>
	<path class="st0" d="M61.7812,32.8711c2.0972,0,3.5947,0.8486,4.5435,2.5459c0.6489-1.5479,1.9971-2.5459,3.1953-2.5459
		s1.8975,0.6992,1.8975,1.6973c0,0.6992-0.5991,1.8477-2.0474,4.1934c-1.897,4.1943-3.3945,7.7393-3.3945,10.2852
		c0,1.5479,0.6489,2.2471,1.4478,2.2471c2.0967,0,4.7427-3.1953,6.9897-6.6904c0.6489-1.0488,1.248-1.7969,2.1968-1.7969
		c0.9985,0,1.8472,0.6992,1.8472,1.5977c0,0.3496-0.0996,0.6992-0.2998,0.998c-3.0454,4.6934-7.0396,8.8369-11.333,8.8369
		c-2.7461,0-5.043-1.4971-5.4424-4.2939c-2.1963,2.5469-4.793,4.2939-7.4888,4.2939c-3.7944,0-6.4907-2.2471-6.4907-6.3906
		C47.4023,40.4102,54.8916,32.8711,61.7812,32.8711z M54.9414,51.0439c1.9971,0,4.0439-2.0967,5.9414-4.8926
		c1.6973-2.5967,2.8457-4.8926,3.9941-7.7393c-0.1997-1.4971-1.2979-2.3965-3.1953-2.3965c-3.8945,0-9.0869,6.3418-9.0869,12.0332
		C52.5947,50.0459,53.5938,51.0439,54.9414,51.0439z"/>
	<path class="st0" d="M88.3188,32.8711c1.9473,0,3.395,0.748,4.3438,2.2461c1.4478-3.7939,3.5449-8.8867,4.6929-11.5332
		c0.749-1.5977,2.0972-2.2959,3.1953-2.2959c1.1484,0,1.8477,0.6982,1.8477,1.5977c0,1.0986-0.749,2.9453-2.7959,6.3408
		c-1.1982,2.6953-2.7461,6.3398-3.9443,9.5352c-1.8975,4.8438-3.1455,8.4375-3.1455,10.2852c0,1.5479,0.6494,2.2471,1.4482,2.2471
		c2.0967,0,4.7427-3.1953,6.9893-6.6904c0.6494-1.0488,1.2485-1.7969,2.1973-1.7969c0.998,0,1.8472,0.6992,1.8472,1.5977
		c0,0.3496-0.1001,0.6992-0.2998,0.998c-3.0454,4.6934-6.2407,8.8369-11.3335,8.8369c-2.7456,0-5.0425-1.4971-5.4419-4.2939
		c-2.1968,2.5469-4.793,4.2939-7.4888,4.2939c-3.7944,0-6.4907-2.2471-6.4907-6.3906C73.9399,40.46,81.4292,32.8711,88.3188,32.8711
		z M81.479,51.0439c1.9971,0,4.0439-2.0967,5.9414-4.8926c1.6973-2.5967,2.8457-4.8926,3.9941-7.7393
		c-0.1997-1.4971-1.2983-2.3965-3.1953-2.3965c-3.8945,0-9.0869,6.3906-9.0869,12.0332
		C79.1323,50.0459,80.1309,51.0439,81.479,51.0439z"/>
	<path class="st0" d="M119.3105,51.793c-1.1982,0-2.3467-0.1494-3.2949-0.3994c-2.1968,1.7471-4.793,2.8457-7.3892,2.8457
		c-4.5933,0-7.8887-2.4961-7.8887-7.2393c0-7.5391,7.3394-14.1289,13.6304-14.1289c4.8926,0,7.7881,2.5459,7.7881,6.9395
		c0,3.0957-1.3975,6.291-3.4946,8.9375c0.3496,0.0488,0.6987,0.0996,1.1484,0.0996c2.0469,0,4.0938-1.248,6.041-4.2441
		c0.6489-1.0488,1.248-1.7969,2.1968-1.7969c0.9985,0,1.8472,0.6992,1.8472,1.5977c0,0.3496-0.0996,0.6992-0.2993,0.998
		C126.75,49.7461,123.3047,51.793,119.3105,51.793z M114.2681,36.166c-3.4448,0-8.3379,5.4414-8.3379,10.9844
		c0,2.5459,1.4478,3.7939,3.2456,3.7939c1.248,0,2.4961-0.5986,3.6445-1.5479c-0.1499-0.25-0.1997-0.499-0.1997-0.6992
		c0-1.248,1.0981-2.1465,2.5464-2.2461c1.1982-1.9971,1.9468-4.4434,1.9468-6.7402
		C117.1138,37.2646,115.9658,36.166,114.2681,36.166z"/>
	<path class="st0" d="M152.9482,51.9922c-1.5977,0-3.0459-0.1992-4.2441-0.6484c-2.0469,1.7969-4.2437,2.8955-6.041,2.8955
		c-2.7959,0-5.1924-1.4971-5.542-4.3936c-1.9971,2.5469-4.2437,4.3936-6.4902,4.3936c-3.2451,0-5.3921-1.8975-5.3921-5.542
		c0-3.2949,2.0967-8.0879,3.894-11.582c1.6475-3.2461,2.7959-4.2441,4.2441-4.2441c1.1479,0,1.897,0.6992,1.897,1.6973
		c0,0.7988-0.6489,2.1973-2.5464,5.2422c-1.6973,3.5449-2.8457,6.541-2.8457,8.9863c0,1.5488,0.5991,2.1973,1.3481,2.1973
		c1.7974,0,3.4946-2.1465,5.3921-4.8428c1.7471-2.4961,3.395-6.291,4.7432-9.4365c1.2979-3.0449,2.4463-3.8438,3.894-3.8438
		c1.1484,0,1.897,0.6992,1.897,1.6973c0,0.7988-0.6489,2.1973-2.5459,5.2422c-1.6978,3.5449-2.8457,6.541-2.8457,8.9863
		c0,1.5977,0.7988,2.2969,1.5977,2.2969c0.7485,0,1.7471-0.6484,2.7456-1.6475v-0.0498c-0.1499-0.25-0.1997-0.499-0.1997-0.6992
		c0-1.1973,1.0986-2.1465,2.4966-2.2461c1.897-2.9453,3.4946-6.79,3.4946-9.8359c0-0.8486-0.2993-1.2979-0.2993-1.7969
		c0-1.0986,0.9985-1.6973,2.5464-1.6973c1.5474,0,2.8457,1.1973,2.8457,3.0449c0,3.9941-2.4463,8.7871-5.5918,12.4814
		c0.499,0.2998,1.1982,0.3994,2.0469,0.3994c2.2466,0,4.5933-1.248,6.6401-4.4434c0.6489-1.0488,1.2485-1.7969,2.1968-1.7969
		c0.9985,0,1.8477,0.6992,1.8477,1.5977c0,0.3496-0.1001,0.6992-0.2998,0.998C160.8862,49.8965,157.1919,51.9922,152.9482,51.9922z"
		/>
	<path class="st0" d="M178.4731,51.793c-1.1982,0-2.3462-0.1494-3.2949-0.3994c-2.1968,1.7471-4.793,2.8457-7.3892,2.8457
		c-4.5933,0-7.8887-2.4961-7.8887-7.2393c0-7.5391,7.3394-14.1289,13.6299-14.1289c4.8931,0,7.7891,2.5459,7.7891,6.9395
		c0,3.0957-1.3984,6.291-3.4951,8.9375c0.3496,0.0488,0.6992,0.0996,1.1484,0.0996c2.0469,0,4.0938-1.248,6.041-4.2441
		c0.6489-1.0488,1.248-1.7969,2.1968-1.7969c0.9985,0,1.8472,0.6992,1.8472,1.5977c0,0.3496-0.0996,0.6992-0.2993,0.998
		C185.9121,49.7461,182.4673,51.793,178.4731,51.793z M173.4307,36.166c-3.4448,0-8.3379,5.4414-8.3379,10.9844
		c0,2.5459,1.4482,3.7939,3.2451,3.7939c1.2485,0,2.4966-0.5986,3.645-1.5479c-0.1499-0.25-0.1997-0.499-0.1997-0.6992
		c0-1.248,1.0981-2.1465,2.5459-2.2461c1.1982-1.9971,1.9473-4.4434,1.9473-6.7402
		C176.2764,37.2646,175.1279,36.166,173.4307,36.166z"/>
	<path class="st0" d="M190.3276,54.2393c-3.5449,0-5.7417-1.8467-5.7417-5.5918c0-4.8428,5.1426-15.9268,8.8867-23.1162
		c1.3984-2.6953,3.0459-4.2432,4.0942-4.2432c1.1982,0,1.9971,0.749,1.9971,1.8467c0,1.9473-2.896,6.9404-6.0913,12.3828h-0.0498
		c-2.3965,5.291-4.2437,10.2842-4.2437,13.2793c0,1.6484,0.749,2.4473,1.7476,2.4473c2.0967,0,4.8428-3.1455,7.0894-6.6406
		c0.6489-1.0488,1.2485-1.7969,2.1968-1.7969c0.9985,0,1.8477,0.6992,1.8477,1.5977c0,0.3496-0.1001,0.6992-0.2998,0.998
		C198.7153,50.0957,194.6211,54.2393,190.3276,54.2393z"/>
	<path class="st0" d="M220.938,42.8066c0.9985,0,1.8472,0.6992,1.8472,1.5977c0,0.3496-0.0996,0.6992-0.2993,0.998
		c-3.395,5.3418-8.6372,8.8369-15.5273,8.8369c-5.8911,0-9.2363-2.4961-9.2363-7.04c0-8.2373,7.9385-14.3281,13.6802-14.3281
		c3.7939,0,5.9912,1.5469,5.9912,4.293c0,3.8447-6.2412,7.5391-14.479,8.7383c-0.0498,0.3486-0.0498,0.748-0.0498,1.1475
		c0,2.4971,1.9971,3.8447,4.6431,3.8447c4.6934,0,8.6372-2.2471,11.2334-6.291C219.3906,43.5547,219.9893,42.8066,220.938,42.8066z
		 M203.7134,42.707c5.3423-1.0996,8.8872-3.3955,8.8872-5.792c0-0.6494-0.5996-0.999-1.4482-0.999
		C208.7559,35.916,205.311,38.6621,203.7134,42.707z"/>
	<path class="st0" d="M235.7427,54.2393c-3.2451,0-5.292-1.8975-5.292-5.0928c0-4.0938,4.5435-8.9863,4.5435-12.2314
		c0-0.499-0.3496-0.749-0.9487-0.749c-2.147,0-5.3921,3.2949-7.6392,5.9912c-1.9971,2.3467-4.2437,6.54-5.3916,10.1357
		c-0.2998,0.9482-0.8491,1.9463-2.3467,1.9463c-0.9487,0-1.8975-0.5488-1.8975-1.8467c0-0.4492,0.0498-0.6992,0.1997-1.1992
		c1.7476-5.3916,4.0942-11.3828,5.9912-15.9258c0.5991-1.4482,1.5977-2.1465,2.7959-2.1465c1.2485,0,1.9971,0.748,1.9971,1.7471
		c0,0.3994-0.2495,0.9482-0.6489,1.6973l-0.6992,1.6973c2.6963-2.9453,5.9414-5.3916,8.5376-5.3916
		c2.7461,0,4.6431,1.6973,4.6431,4.2441c0,4.0938-4.5928,8.3369-4.5928,12.3809c0,1.1484,0.5488,1.7979,1.3477,1.7979
		c2.0972,0,4.793-3.1953,7.04-6.6904c0.6489-1.0488,1.248-1.7969,2.1963-1.7969c0.999,0,1.8477,0.6992,1.8477,1.5977
		c0,0.3496-0.0996,0.6992-0.2998,0.998C244.0806,50.0957,240.0366,54.2393,235.7427,54.2393z"/>
	<path class="st0" d="M247.1719,48.7969c0,1.748,0.6992,2.4473,1.5977,2.4473c0.8486,0,1.748-0.8496,2.4463-1.9473
		c0.5498-0.8984,1.1484-1.1982,1.748-1.1982c0.6982,0,1.2979,0.499,1.2979,1.248c0,1.6475-2.5957,4.8926-5.9912,4.8926
		c-3.4448,0-5.6914-1.8467-5.6914-5.542c0-3.3447,1.9971-8.1377,3.7939-11.582c1.6973-3.2461,2.9463-4.2441,4.2441-4.2441
		c1.1484,0,1.8975,0.6992,1.8975,1.6973c0,0.8486-0.749,2.3467-2.9463,5.8418C248.0703,43.6553,247.1719,46.501,247.1719,48.7969z
		 M254.2617,24.9326c1.5479,0,2.5459,0.8984,2.5459,2.3467c0,1.3477-1.1982,3.2451-3.4443,3.2451
		c-1.498,0-2.6465-0.8994-2.6465-2.4463C250.7168,26.4297,252.4141,24.9326,254.2617,24.9326z"/>
	<path class="st0" d="M286.5664,54.2393c-3.9443,0-6.4414-2.4463-8.1387-6.9893c-0.1494-0.4492-0.1992-0.749-0.1992-1.0986
		c0-0.9482,0.5986-1.5977,1.8965-1.8467c4.8438-0.9492,9.1367-4.5439,9.1367-7.5898c0-0.499-0.3496-0.7988-0.998-0.7988
		c-2.3965,0-6.6406,2.6963-8.8867,5.4424c-1.7979,2.1963-3.5449,6.4404-4.6436,9.9355c-0.4492,1.3975-0.999,2.9453-2.9463,2.9453
		c-0.8486,0-1.6973-0.5488-1.6973-1.6973c0-0.4492,0.0498-0.6992,0.2002-1.1982c3.1953-9.3359,7.7383-20.1699,11.1836-28.3086
		c0.499-1.1982,1.7969-1.7471,2.7959-1.7471c1.2979,0,2.0469,0.749,2.0469,1.8467c0,1.0488-0.9492,2.8965-2.6963,5.6914
		l-3.1455,7.5391c2.7461-2.0469,5.8418-3.4941,8.2881-3.4941c3.0459,0,5.0928,1.5469,5.0928,4.0439
		c0,3.7441-4.9932,7.7383-10.834,9.3359c0.8984,2.9961,2.5459,4.8936,4.2432,4.8936c2.2471,0,5.2422-3.0459,7.5391-6.541
		c0.6494-1.0488,1.248-1.7969,2.1973-1.7969c0.998,0,1.8467,0.6992,1.8467,1.5977c0,0.3496-0.0996,0.6992-0.2988,0.998
		C295.5029,50.1953,291.708,54.2393,286.5664,54.2393z"/>
	<path class="st0" d="M300.2568,54.2393c-3.5439,0-5.7412-1.8467-5.7412-5.5918c0-4.8428,5.1426-15.9268,8.8867-23.1162
		c1.3984-2.6953,3.0459-4.2432,4.0938-4.2432c1.1992,0,1.998,0.749,1.998,1.8467c0,1.9473-2.8965,6.9404-6.0918,12.3828h-0.0498
		c-2.3965,5.291-4.2432,10.2842-4.2432,13.2793c0,1.6484,0.748,2.4473,1.7471,2.4473c2.0967,0,4.8428-3.1455,7.0898-6.6406
		c0.6484-1.0488,1.248-1.7969,2.1963-1.7969c0.999,0,1.8477,0.6992,1.8477,1.5977c0,0.3496-0.0996,0.6992-0.2998,0.998
		C308.6445,50.0957,304.5508,54.2393,300.2568,54.2393z"/>
	<path class="st0" d="M313.1582,54.2393c-3.4443,0-5.6914-1.8467-5.6914-5.542c0-3.3447,1.9971-8.1377,3.7949-11.582
		c1.6973-3.2461,2.9453-4.2441,4.2432-4.2441c1.1484,0,1.8975,0.6992,1.8975,1.6973c0,0.7988-0.6494,2.1973-2.5469,5.2422
		c-1.6973,3.5449-2.7949,6.541-2.7949,8.9863c0,1.7979,0.748,2.4971,1.6973,2.4971c2.0967,0,4.793-3.1953,7.0391-6.6904
		c0.6494-1.0488,1.248-1.7969,2.1973-1.7969c0.998,0,1.8477,0.6992,1.8477,1.5977c0,0.3496-0.1006,0.6992-0.2998,0.998
		C321.4961,50.0957,317.4521,54.2393,313.1582,54.2393z M319.1494,24.9326c1.5479,0,2.5469,0.8984,2.5469,2.3467
		c0,1.3477-1.1982,3.2451-3.4453,3.2451c-1.498,0-2.6465-0.8994-2.6465-2.4463C315.6045,26.4297,317.3027,24.9326,319.1494,24.9326z
		"/>
	<path class="st0" d="M343.7451,42.8066c0.999,0,1.8477,0.6992,1.8477,1.5977c0,0.3496-0.1006,0.6992-0.2998,0.998
		c-3.3945,5.3418-8.6377,8.8369-15.5273,8.8369c-5.8916,0-9.2363-2.4961-9.2363-7.04c0-8.2373,7.9385-14.3281,13.6797-14.3281
		c3.7949,0,5.9912,1.5469,5.9912,4.293c0,3.8447-6.2402,7.5391-14.4785,8.7383c-0.0498,0.3486-0.0498,0.748-0.0498,1.1475
		c0,2.4971,1.9971,3.8447,4.6426,3.8447c4.6934,0,8.6377-2.2471,11.2344-6.291C342.1973,43.5547,342.7969,42.8066,343.7451,42.8066z
		 M326.5205,42.707c5.3418-1.0996,8.8867-3.3955,8.8867-5.792c0-0.6494-0.5986-0.999-1.4473-0.999
		C331.5635,35.916,328.1182,38.6621,326.5205,42.707z"/>
	<path class="st0" d="M358.5498,54.2393c-3.2451,0-5.292-1.8975-5.292-5.0928c0-4.0938,4.543-8.9863,4.543-12.2314
		c0-0.499-0.3496-0.749-0.9482-0.749c-2.1475,0-5.3926,3.2949-7.6387,5.9912c-1.9971,2.3467-4.2441,6.54-5.3926,10.1357
		c-0.2998,0.9482-0.8486,1.9463-2.3467,1.9463c-0.9482,0-1.8965-0.5488-1.8965-1.8467c0-0.4492,0.0498-0.6992,0.1992-1.1992
		c1.748-5.3916,4.0938-11.3828,5.9912-15.9258c0.5996-1.4482,1.5977-2.1465,2.7959-2.1465c1.248,0,1.9971,0.748,1.9971,1.7471
		c0,0.3994-0.249,0.9482-0.6494,1.6973l-0.6982,1.6973c2.6963-2.9453,5.9414-5.3916,8.5371-5.3916
		c2.7461,0,4.6436,1.6973,4.6436,4.2441c0,4.0938-4.5938,8.3369-4.5938,12.3809c0,1.1484,0.5498,1.7979,1.3486,1.7979
		c2.0967,0,4.793-3.1953,7.0391-6.6904c0.6494-1.0488,1.248-1.7969,2.1973-1.7969c0.998,0,1.8467,0.6992,1.8467,1.5977
		c0,0.3496-0.0996,0.6992-0.2988,0.998C366.8877,50.0957,362.8438,54.2393,358.5498,54.2393z"/>
	<path class="st0" d="M386.9941,44.6035c0.6484-1.0488,1.248-1.7969,2.1963-1.7969c0.999,0,1.8477,0.6992,1.8477,1.5977
		c0,0.3496-0.0996,0.6992-0.2998,0.998c-3.3945,5.3418-8.6367,8.8369-15.5273,8.8369c-5.9414,0-9.2861-2.4961-9.2861-7.2393
		c0-7.7383,8.1885-14.1289,14.2295-14.1289c3.6943,0,5.9414,1.7969,5.9414,4.0439c0,2.8457-2.3965,4.9932-4.0947,4.9932
		c-1.5479,0-2.4463-0.8994-2.4463-2.1475c0-0.6992,0.5-1.8467,1.5977-3.5449c-0.249-0.1494-0.6992-0.249-1.1982-0.249
		c-3.3945,0-8.7871,5.2422-8.7871,11.083c0,2.5967,1.7979,3.8447,4.5938,3.8447C380.4531,50.8945,384.3975,48.6475,386.9941,44.6035
		z"/>
	<path class="st0" d="M390.9746,48.7969c0,1.748,0.6992,2.4473,1.5977,2.4473c0.8486,0,1.748-0.8496,2.4463-1.9473
		c0.5498-0.8984,1.1484-1.1982,1.748-1.1982c0.6982,0,1.2979,0.499,1.2979,1.248c0,1.6475-2.5957,4.8926-5.9912,4.8926
		c-3.4453,0-5.6914-1.8467-5.6914-5.542c0-3.3447,1.9971-8.1377,3.7939-11.582c1.6973-3.2461,2.9463-4.2441,4.2441-4.2441
		c1.1484,0,1.8975,0.6992,1.8975,1.6973c0,0.8486-0.749,2.3467-2.9463,5.8418C391.873,43.6553,390.9746,46.501,390.9746,48.7969z
		 M398.0645,24.9326c1.5479,0,2.5459,0.8984,2.5459,2.3467c0,1.3477-1.1982,3.2451-3.4443,3.2451
		c-1.498,0-2.6465-0.8994-2.6465-2.4463C394.5195,26.4297,396.2168,24.9326,398.0645,24.9326z"/>
</g>
</svg>
