<?xml version="1.0" encoding="utf-8"?>
<!-- Generator: Adobe Illustrator 25.2.1, SVG Export Plug-In . SVG Version: 6.00 Build 0)  -->
<svg version="1.1" id="Layer_1" xmlns="http://www.w3.org/2000/svg" xmlns:xlink="http://www.w3.org/1999/xlink" x="0px" y="0px"
	 viewBox="0 0 369 82" style="enable-background:new 0 0 369 82;" xml:space="preserve">
<style type="text/css">
	.st0{fill:#00C6FD;}
</style>
<g>
	<path class="st0" d="M41.5693,14.5977c1.3481,0,2.5962,0.1499,3.7446,0.3994c2.5962-1.8472,5.4419-2.9956,7.5889-2.9956
		c1.5479,0,2.3467,0.749,2.3467,1.9971c0,0.8989-0.5991,1.248-2.5464,1.8472c-0.7988,0.25-1.7476,0.6494-2.6963,1.1982
		c2.147,1.6978,3.3452,4.0942,3.3452,6.8398c0,4.8433-3.5947,8.1885-7.7886,8.1885c-4.0439,0-6.79-2.4468-6.79-6.4409
		c0-2.5464,1.0986-4.9927,2.7959-7.0894c-9.6855,0.0498-21.668,11.0835-21.668,23.4653c0,6.291,3.894,10.1851,9.9854,10.1851
		c6.8398,0,11.6826-5.2422,14.7285-9.1865c3.2949-4.1938,5.1421-6.1909,6.54-6.1909c1.0488,0,1.7476,0.6992,1.7476,1.5479
		c0,0.5991-0.3994,1.248-1.0981,2.1968c-0.6992,0.9487-1.7979,2.9458-3.4453,8.0879c-3.894,11.9326-8.687,25.8623-22.2671,25.8623
		c-9.2368,0-17.4746-6.3906-17.5244-17.4746c0.0498-2.646,1.248-3.3945,2.896-3.3945c1.2979,0,2.3462,0.4492,3.4946,1.4478
		c3.0454,2.6958,8.2378,5.0923,12.981,5.7417c1.248,0.1494,1.9473,0.8984,1.7974,1.9468c-0.0498,0.9985-1.0981,2.147-2.5962,1.9473
		c-4.793-0.5493-9.9854-2.7461-13.6797-5.4917c-0.1001-0.1001-0.2998,0-0.25,0.0996c1.1982,6.3408,6.6406,11.1836,12.8311,11.1836
		c9.2866,0,13.8799-10.3848,17.1748-20.4697c-3.0952,3.0454-7.938,6.1406-13.6797,6.1406c-8.4873,0-14.8281-5.1426-14.8281-14.1792
		C14.709,27.3789,29.4375,14.5977,41.5693,14.5977z M46.4121,19.6904c-1.6475,1.6475-2.8955,3.6943-2.8955,5.9409
		c0,1.6978,0.8984,2.5962,2.0967,2.5962c1.7476,0,3.0957-2.1465,3.0957-4.2437C48.709,22.0869,47.8604,20.6387,46.4121,19.6904z"/>
	<path class="st0" d="M52.3564,47.1997c-0.9985,0-1.8477-0.6987-1.8477-1.5977c0-0.3491,0.1001-0.6987,0.2998-0.9985
		c2.0967-3.2451,3.8442-6.3408,5.8413-10.6343v-0.6987c0-3.4951,2.3467-5.792,4.0444-5.792c1.4976,0,2.3462,0.8989,2.3462,2.0972
		c0,0.749-0.499,2.0972-1.4976,3.8442c2.1465,1.248,5.0425,2.1968,5.0425,4.5933c0,3.2954-4.3936,7.0396-4.3936,11.1338
		c0,1.1484,0.4995,1.7974,1.3481,1.7974c2.0469,0,4.6431-2.8457,6.8896-6.3408c0.6494-1.0483,1.248-1.7974,2.1968-1.7974
		c0.9985,0,1.8472,0.6489,1.8472,1.5977c0,0.3496-0.0498,0.5991-0.2993,0.9985c-3.0454,4.6934-6.9897,8.8369-11.2334,8.8369
		c-3.2456,0-5.2925-1.897-5.2925-5.0923c0-3.9443,4.2939-8.3379,4.2939-11.0337c0-0.9985-0.9985-1.5479-2.0469-2.0972
		c-1.5479,3.0957-3.2456,6.0913-5.3423,9.3862C53.9043,46.4512,53.3047,47.1997,52.3564,47.1997z"/>
	<path class="st0" d="M87.7505,54.2393c-2.7959,0-5.1924-1.4976-5.542-4.4434c-2.0967,2.5962-4.4434,4.4434-6.8398,4.4434
		c-3.2451,0-5.3921-1.897-5.3921-5.5415c0-3.2954,2.0967-8.0884,3.8945-11.583c1.6475-3.2456,2.7959-4.2437,4.2437-4.2437
		c1.1479,0,1.897,0.6987,1.897,1.6973c0,0.7988-0.6489,2.1968-2.5459,5.2422c-1.6978,3.5449-2.8462,6.5405-2.8462,8.9868
		c0,1.5977,0.8491,2.1968,1.498,2.1968c1.8472,0,3.6943-2.0967,5.5918-4.8428c1.7476-2.4961,3.395-6.291,4.7427-9.436
		c1.2983-3.0454,2.4468-3.8442,3.8945-3.8442c1.0483,0,1.7476,0.6987,1.7476,1.6475c0,0.7988-0.6489,2.2466-2.5464,5.292
		c-1.6973,3.5449-2.8457,6.5405-2.8457,8.9868c0,1.7974,0.9482,2.4966,1.6475,2.4966c2.0967,0,4.793-3.1953,7.0396-6.6904
		c0.6489-1.0483,1.2485-1.7974,2.1968-1.7974c0.9985,0,1.8477,0.6992,1.8477,1.5977c0,0.3496-0.1001,0.6992-0.2998,0.9985
		C96.0884,50.0957,92.0942,54.2393,87.7505,54.2393z"/>
	<path class="st0" d="M123.0254,42.8062c0.999,0,1.8477,0.6992,1.8477,1.5977c0,0.3496-0.1001,0.6992-0.2998,0.9985
		c-3.6943,5.6416-10.834,8.8369-18.8721,8.8369c-2.5962,0-4.2939-0.3491-5.6416-1.1479c-1.0488-0.6489-1.5479-1.3979-1.5479-2.0972
		c0-0.9985,0.7988-1.7974,1.7471-1.7974c0.749,0,0.9487,0.2998,1.8975,1.1484c0.749,0.6489,1.498,0.8989,2.3467,0.8989
		c4.3438,0,8.6372-6.3906,8.6372-12.1826c0-1.7969-0.7988-2.8955-2.0972-2.8955c-2.0967,0-5.6914,3.2949-7.938,5.9912
		c-2.2969,2.7461-4.6431,7.2393-5.8413,10.5845L92.77,65.0737c-0.5991,1.6475-1.1484,2.5464-2.6958,2.5464
		c-0.9487,0-1.9473-0.749-1.9473-1.8477c0-0.3496,0.0498-0.6489,0.2495-1.1982c3.1455-8.8369,8.3877-22.4668,11.2837-29.3066
		c0.5986-1.4482,1.5977-2.147,2.7959-2.147c1.248,0,1.9971,0.7485,1.9971,1.7476c0,0.3994-0.25,0.9482-0.6494,1.6973l-0.749,1.7476
		c2.8462-2.9956,6.2412-5.4419,8.937-5.4419c3.8442,0,6.2407,2.3462,6.2407,6.2905s-1.9971,8.3877-5.2422,11.3335
		c3.0957-1.1982,6.0913-3.1455,7.8389-5.8916C121.478,43.5552,122.0771,42.8062,123.0254,42.8062z"/>
	<path class="st0" d="M134.0308,49.9458c-2.1968,2.5464-4.793,4.2935-7.4888,4.2935c-3.7949,0-6.4907-2.2466-6.4907-6.3906
		c0-7.3887,7.4888-14.9775,14.3789-14.9775c2.0972,0,3.5947,0.8486,4.5435,2.5459c0.6489-1.5479,1.9971-2.5459,3.1953-2.5459
		s1.897,0.6987,1.897,1.6973c0,0.6992-0.5991,1.8472-2.0469,4.1938c-1.897,4.1938-3.395,7.7388-3.395,10.2847
		c0,1.498,0.5991,2.1973,1.3481,2.1973c0.8486,0,1.7476-0.8491,2.4463-1.9473c0.5493-0.8989,1.1484-1.1982,1.7476-1.1982
		c0.6987,0,1.2979,0.499,1.2979,1.248c0,1.6475-2.5962,4.8926-5.9912,4.8926C136.7266,54.2393,134.4302,52.7417,134.0308,49.9458z
		 M127.5903,51.0439c1.9971,0,4.0439-2.0967,5.9409-4.8926c1.6978-2.5962,2.8462-4.8926,3.9941-7.7388
		c-0.1992-1.4976-1.2979-2.3965-3.1953-2.3965c-3.894,0-9.0864,6.3906-9.0864,12.0327
		C125.2437,50.0459,126.2422,51.0439,127.5903,51.0439z"/>
	<path class="st0" d="M185.8071,19.2407c-2.0967,7.2397-8.9868,15.3276-15.1274,15.3276c-4.1943,0-6.6904-2.2969-6.6904-6.291
		c0-6.5898,9.2861-13.1807,17.7241-13.5801c-0.0503-1.248-0.1997-1.7969-0.3994-2.1465c-0.1997-0.2998-0.2998-0.5991-0.2998-0.7988
		c0-0.9487,0.9487-1.7476,2.0972-1.7476c1.7471,0,3.3447,1.7476,3.3447,5.0923v0.2002c3.3955,1.1982,5.542,3.9438,5.542,7.4888
		c0,1.0981-0.1494,2.147-0.3496,3.1953c4.4937-5.3921,10.8345-11.4331,17.0254-11.4331c5.3418,0,8.2876,2.8955,8.2876,7.9385
		c0,5.2422-3.145,10.6343-7.7388,14.229c1.3481,1.5977,2.0972,3.5947,2.0972,5.8413c0,2.1968-0.5493,4.3438-1.4976,6.2407
		c3.2451-0.499,5.6914-1.6973,7.4888-4.1938c0.749-1.0483,1.248-1.7974,2.1968-1.7974c0.9985,0,1.8472,0.6992,1.8472,1.5977
		c0,0.3496-0.0996,0.6992-0.499,1.3481c-2.6963,4.0938-6.9897,6.291-13.6304,6.79c-2.7959,2.9458-6.7397,4.8926-10.6841,4.8926
		c-6.1411,0-10.9839-3.5947-10.9839-10.0352c0-2.3467,1.0986-3.3447,2.6963-3.3447c1.248,0,2.1963,0.4492,3.1953,1.2979
		c2.3462,1.9473,8.0381,3.7446,13.0308,3.7446h0.0498c1.248-1.8472,1.9971-4.0942,1.9971-6.5903
		c0-1.3481-0.2993-2.5464-0.8486-3.4951c-2.4468,1.1982-5.0928,1.8975-7.7388,1.8975c-4.3438,0-6.4404-1.8477-6.4404-4.1938
		c0-2.5962,2.8955-4.3438,6.8398-4.3438c2.9956,0,5.5918,0.6489,7.6885,1.7974c3.3452-3.0454,5.7417-7.5391,5.7417-11.6826
		c0-2.6963-1.3979-4.0444-3.4946-4.0444c-4.3936,0-10.7842,5.8413-15.4277,11.4834c-2.6958,3.2949-4.2935,5.6416-6.2905,9.7358
		c-1.8472,3.6943-4.2935,9.0864-5.4419,11.7324c-1.2983,2.9458-2.2471,3.8945-3.5449,3.8945c-1.3979,0-2.2466-0.9487-2.2466-2.3467
		c0-1.5977,1.4976-4.4434,4.1938-8.7871c0.749-1.4478,3.2451-6.4902,4.8428-10.6846c1.8975-4.9922,2.8955-8.2378,2.8955-10.5342
		C187.2549,21.3379,186.7559,20.0396,185.8071,19.2407z M181.2637,18.1924c-6.1406,0.499-12.5312,5.3423-12.5312,10.2852
		c0,1.3477,0.7988,2.2466,2.0967,2.2466C174.9233,30.7241,179.7661,23.9341,181.2637,18.1924z M200.9849,52.4922
		c-4.0439-0.4492-8.0381-1.7476-10.834-3.6445c-0.3496-0.2002-0.5991,0-0.5493,0.2993c0.3496,2.7461,3.5947,4.5933,6.9399,4.5933
		C198.0894,53.7402,199.5869,53.291,200.9849,52.4922z M202.832,36.4155c-1.1982-0.5991-2.6958-0.8984-4.3433-0.8984
		c-1.9971,0-2.7959,0.4492-2.7959,1.1982c0,0.5991,0.6489,1.0483,2.0967,1.0483C199.4873,37.7637,201.2344,37.2646,202.832,36.4155z
		"/>
	<path class="st0" d="M219.6719,47.1997c-0.9985,0-1.8477-0.6987-1.8477-1.5977c0-0.3491,0.1001-0.6987,0.2998-0.9985
		c2.0967-3.2451,3.8442-6.3408,5.8413-10.6343v-0.6987c0-3.4951,2.3467-5.792,4.0444-5.792c1.4976,0,2.3462,0.8989,2.3462,2.0972
		c0,0.749-0.499,2.0972-1.4976,3.8442c2.1465,1.248,5.0425,2.1968,5.0425,4.5933c0,3.2954-4.3936,7.0396-4.3936,11.1338
		c0,1.1484,0.4995,1.7974,1.3481,1.7974c2.0469,0,4.6431-2.8457,6.8896-6.3408c0.6494-1.0483,1.248-1.7974,2.1968-1.7974
		c0.9985,0,1.8472,0.6489,1.8472,1.5977c0,0.3496-0.0498,0.5991-0.2993,0.9985c-3.0454,4.6934-6.9897,8.8369-11.2334,8.8369
		c-3.2456,0-5.2925-1.897-5.2925-5.0923c0-3.9443,4.2939-8.3379,4.2939-11.0337c0-0.9985-0.9985-1.5479-2.0469-2.0972
		c-1.5479,3.0957-3.2456,6.0913-5.3423,9.3862C221.2197,46.4512,220.6201,47.1997,219.6719,47.1997z"/>
	<path class="st0" d="M251.6465,32.8711c2.0967,0,3.5947,0.8486,4.543,2.5459c0.6494-1.5479,1.9971-2.5459,3.1953-2.5459
		s1.8975,0.6987,1.8975,1.6973c0,0.6992-0.5996,1.8472-2.0469,4.1938c-1.8975,4.1938-3.3955,7.7388-3.3955,10.2847
		c0,1.5479,0.6494,2.2471,1.4482,2.2471c2.0967,0,4.7432-3.1953,6.9893-6.6904c0.6494-1.0483,1.248-1.7974,2.1973-1.7974
		c0.998,0,1.8477,0.6992,1.8477,1.5977c0,0.3496-0.1006,0.6992-0.2998,0.9985c-3.0459,4.6934-7.04,8.8369-11.334,8.8369
		c-2.7451,0-5.042-1.4976-5.4414-4.2935c-2.1973,2.5464-4.793,4.2935-7.4893,4.2935c-3.7944,0-6.4902-2.2466-6.4902-6.3906
		C237.2676,40.4097,244.7563,32.8711,251.6465,32.8711z M244.8062,51.0439c1.9976,0,4.0444-2.0967,5.9419-4.8926
		c1.6973-2.5962,2.8457-4.8926,3.9941-7.7388c-0.2002-1.4976-1.2988-2.3965-3.1953-2.3965c-3.8945,0-9.0869,6.3408-9.0869,12.0327
		C242.46,50.0459,243.458,51.0439,244.8062,51.0439z"/>
	<path class="st0" d="M281.3037,54.2393c-3.2451,0-5.292-1.897-5.292-5.0923c0-4.0942,4.543-8.9868,4.543-12.2319
		c0-0.4995-0.3496-0.749-0.9482-0.749c-2.1475,0-5.3926,3.2949-7.6387,5.9912c-1.9971,2.3467-4.2441,6.5405-5.3926,10.1353
		c-0.2998,0.9487-0.8486,1.9468-2.3467,1.9468c-0.9482,0-1.8965-0.5488-1.8965-1.8472c0-0.4492,0.0498-0.6987,0.1992-1.1982
		c1.748-5.3921,4.0938-11.3833,5.9912-15.9263c0.5996-1.4482,1.5977-2.147,2.7959-2.147c1.248,0,1.9971,0.7485,1.9971,1.7476
		c0,0.3994-0.249,0.9482-0.6494,1.6973l-0.6982,1.6973c2.6963-2.9453,5.9414-5.3916,8.5371-5.3916
		c2.7461,0,4.6436,1.6973,4.6436,4.2437c0,4.0938-4.5938,8.3374-4.5938,12.3818c0,1.1479,0.5498,1.7974,1.3486,1.7974
		c2.0967,0,4.793-3.1953,7.0391-6.6904c0.6494-1.0483,1.248-1.7974,2.1973-1.7974c0.998,0,1.8467,0.6992,1.8467,1.5977
		c0,0.3496-0.0996,0.6992-0.2988,0.9985C289.6416,50.0957,285.5977,54.2393,281.3037,54.2393z"/>
	<path class="st0" d="M302.7998,32.8711c1.9463,0,3.3945,0.7485,4.3428,2.2466c1.4482-3.7944,3.5449-8.8872,4.6934-11.5332
		c0.749-1.5977,2.0977-2.2964,3.1953-2.2964c1.1484,0,1.8477,0.6987,1.8477,1.5977c0,1.0981-0.749,2.9453-2.7959,6.3403
		c-1.1982,2.6963-2.7461,6.3408-3.9443,9.5361c-1.8975,4.8428-3.1455,8.4375-3.1455,10.2847c0,1.5479,0.6494,2.2471,1.4482,2.2471
		c2.0967,0,4.7432-3.1953,6.9893-6.6904c0.6494-1.0483,1.248-1.7974,2.1973-1.7974c0.998,0,1.8467,0.6992,1.8467,1.5977
		c0,0.3496-0.0996,0.6992-0.2988,0.9985c-3.0459,4.6934-6.2412,8.8369-11.334,8.8369c-2.7461,0-5.042-1.4976-5.4414-4.2935
		c-2.1973,2.5464-4.793,4.2935-7.4893,4.2935c-3.7949,0-6.4902-2.2466-6.4902-6.3906
		C288.4209,40.46,295.9092,32.8711,302.7998,32.8711z M295.959,51.0439c1.998,0,4.0449-2.0967,5.9414-4.8926
		c1.6982-2.5962,2.8457-4.8926,3.9941-7.7388c-0.1992-1.4976-1.2979-2.3965-3.1953-2.3965c-3.8936,0-9.0859,6.3906-9.0859,12.0327
		C293.6133,50.0459,294.6113,51.0439,295.959,51.0439z"/>
	<path class="st0" d="M333.791,51.793c-1.1982,0-2.3467-0.1494-3.2959-0.3994c-2.1963,1.7476-4.793,2.8457-7.3887,2.8457
		c-4.5938,0-7.8887-2.4961-7.8887-7.2393c0-7.5391,7.3389-14.1289,13.6299-14.1289c4.8926,0,7.7891,2.5459,7.7891,6.9395
		c0,3.0957-1.3984,6.291-3.4951,8.937c0.3496,0.0498,0.6992,0.1001,1.1484,0.1001c2.0469,0,4.0938-1.2485,6.041-4.2441
		c0.6494-1.0483,1.248-1.7974,2.1963-1.7974c0.999,0,1.8477,0.6992,1.8477,1.5977c0,0.3496-0.0996,0.6992-0.2998,0.9985
		C341.2295,49.7461,337.7852,51.793,333.791,51.793z M328.748,36.166c-3.4453,0-8.3379,5.4419-8.3379,10.9839
		c0,2.5464,1.4482,3.7944,3.2451,3.7944c1.248,0,2.4971-0.5991,3.6445-1.5479c-0.1494-0.2495-0.1992-0.499-0.1992-0.6987
		c0-1.2485,1.0986-2.147,2.5459-2.2466c1.1982-1.9971,1.9473-4.4438,1.9473-6.7402C331.5938,37.2646,330.4453,36.166,328.748,36.166
		z"/>
	<path class="st0" d="M347.5127,54.2393c-4.5938,0-7.8887-2.4961-7.8887-7.2393c0-7.5391,7.3389-14.1289,13.6299-14.1289
		c4.8926,0,7.7891,2.5459,7.7891,6.9395C361.043,46.7007,354.3027,54.2393,347.5127,54.2393z M353.1543,36.166
		c-3.4453,0-8.3379,5.4419-8.3379,10.9839c0,2.5464,1.4473,3.7944,3.2451,3.7944c4.0439,0,7.9385-5.9912,7.9385-11.2334
		C356,37.2646,354.8516,36.166,353.1543,36.166z"/>
</g>
</svg>
