<svg xmlns="http://www.w3.org/2000/svg" width="94.456" height="94.454" viewBox="0 0 94.456 94.454">
  <path id="Path_2812" data-name="Path 2812" d="M211.087,147.758a8.119,8.119,0,0,1-8.115,8.115H124.754a8.121,8.121,0,0,1-8.123-8.115v-19.19a8.121,8.121,0,0,1,8.123-8.115h22.874V102.136H137.9a7.391,7.391,0,0,1-5.219-12.6l25.96-25.96a7.4,7.4,0,0,1,10.437,0l25.96,25.96a7.384,7.384,0,0,1-5.219,12.6H180.1v18.316h22.874a8.119,8.119,0,0,1,8.115,8.115Zm-8.115-21.4H180.1v4.424a7.379,7.379,0,0,1-7.383,7.383H155a7.372,7.372,0,0,1-7.375-7.383v-4.424H124.754a2.22,2.22,0,0,0-2.22,2.212v19.19a2.226,2.226,0,0,0,2.22,2.212h78.217a2.219,2.219,0,0,0,2.212-2.212v-19.19A2.214,2.214,0,0,0,202.971,126.356Zm-49.44,4.424a1.481,1.481,0,0,0,1.472,1.48h17.71a1.488,1.488,0,0,0,1.48-1.48V96.232h15.624a1.483,1.483,0,0,0,1.047-2.527l-25.952-25.96a1.478,1.478,0,0,0-2.086,0l-25.952,25.96a1.479,1.479,0,0,0,1.047,2.527h15.609Zm34.681,10.335a3.688,3.688,0,1,1-3.692-3.692A3.7,3.7,0,0,1,188.213,141.114Zm8.115,3.692a3.692,3.692,0,1,1,3.692-3.692A3.7,3.7,0,0,1,196.328,144.806Z" transform="translate(-116.631 -61.419)"/>
</svg>
