<svg xmlns="http://www.w3.org/2000/svg" xmlns:xlink="http://www.w3.org/1999/xlink" width="81.42" height="86.112" viewBox="0 0 81.42 86.112">
  <defs>
    <filter id="Path_1510" x="0" y="0" width="81.42" height="86.112" filterUnits="userSpaceOnUse">
      <feOffset input="SourceAlpha"/>
      <feGaussianBlur stdDeviation="3" result="blur"/>
      <feFlood flood-color="#f21289"/>
      <feComposite operator="in" in2="blur"/>
      <feComposite in="SourceGraphic"/>
    </filter>
  </defs>
  <g transform="matrix(1, 0, 0, 1, 0, 0)" filter="url(#Path_1510)">
    <path id="Path_1510-2" data-name="Path 1510" d="M-2279.582-2908.591c5.356-.74,14.333,4.87,15.521,5.63a2.067,2.067,0,0,0,.909.074l4.636-.662a2.061,2.061,0,0,0,1.061-.484l5.409-4.692a6.18,6.18,0,0,1,7.263-.623l1.2.726a1.114,1.114,0,0,1,.534.849,1.115,1.115,0,0,1-.363.935l-9.716,8.783a8.976,8.976,0,0,1-4.372,2.166l-7.544,1.41a1.125,1.125,0,0,1-.207.019,1.116,1.116,0,0,1-1.1-.911,1.116,1.116,0,0,1,.892-1.3l7.544-1.41a6.746,6.746,0,0,0,3.285-1.627l8.6-7.776a3.952,3.952,0,0,0-4.561.448l-5.41,4.692a4.288,4.288,0,0,1-2.207,1.008l-4.636.662a4.309,4.309,0,0,1-2.106-.227,1.114,1.114,0,0,1-.22-.111c-2.576-1.678-10.134-5.913-14.115-5.365a1.116,1.116,0,0,1-1.258-.953A1.116,1.116,0,0,1-2279.582-2908.591Zm2.318-3.534c5.006,1.872,12.143,6.612,12.214,6.659a1.11,1.11,0,0,0,.618.188,1.114,1.114,0,0,0,.93-.5,1.116,1.116,0,0,0-.31-1.548c-.3-.2-7.421-4.93-12.671-6.893a1.116,1.116,0,0,0-1.436.655A1.116,1.116,0,0,0-2277.264-2912.125Zm-17.346,2.12a1.115,1.115,0,0,0,.344-.055,74.7,74.7,0,0,1,11.085-2.633,1.116,1.116,0,0,0,.967-1.248,1.117,1.117,0,0,0-1.248-.967,75.4,75.4,0,0,0-11.493,2.724,1.116,1.116,0,0,0-.718,1.406A1.117,1.117,0,0,0-2294.61-2910Zm52.429,21.318-2.5-.936a1.116,1.116,0,0,0-1.437.653,1.116,1.116,0,0,0,.653,1.437l2.5.936a2.519,2.519,0,0,1,1.62,2.585l-.071.763-18.484-5.939c.192-.079.383-.164.567-.259l23.2-11.978a1.668,1.668,0,0,0,.88-1.221,1.667,1.667,0,0,0-.467-1.431l-.971-.971a5.7,5.7,0,0,0-7.976-.057,1.116,1.116,0,0,0-.023,1.578,1.117,1.117,0,0,0,1.579.023,3.463,3.463,0,0,1,4.842.034l.419.42-22.508,11.62a5.193,5.193,0,0,1-2.3.574l-3.575.05a5.2,5.2,0,0,1-2.329-.52L-2286-2899.81a7,7,0,0,0-3.043-.7h-5.382a1.116,1.116,0,0,0-1.116,1.116,1.116,1.116,0,0,0,1.116,1.116h5.382a4.753,4.753,0,0,1,2.066.476l17.448,8.486a7.431,7.431,0,0,0,3.236.745h.1l2.1-.029a1.114,1.114,0,0,0,.688.633l21.79,7a1.83,1.83,0,0,0,.561.088,1.822,1.822,0,0,0,1.005-.3,1.819,1.819,0,0,0,.813-1.357l.117-1.265A4.756,4.756,0,0,0-2242.181-2888.687Zm8.428-6.276-1.635-1.768a5,5,0,0,0-4.18-1.572l-1.527.161a1.116,1.116,0,0,0-.993,1.227,1.116,1.116,0,0,0,1.227.993l1.527-.161a2.765,2.765,0,0,1,2.307.868l.734.793-15.021,3.392a1.116,1.116,0,0,0-.843,1.334,1.116,1.116,0,0,0,1.088.871,1.141,1.141,0,0,0,.247-.028l16.316-3.684a1.471,1.471,0,0,0,1.077-1A1.471,1.471,0,0,0-2233.753-2894.963Zm-46.868-17.713.667.061c.034,0,.068,0,.1,0a1.116,1.116,0,0,0,1.11-1.015,1.116,1.116,0,0,0-1.01-1.212l-.667-.061a1.116,1.116,0,0,0-1.212,1.011A1.116,1.116,0,0,0-2280.621-2912.676Zm6.56-7.619a11.9,11.9,0,0,1,8.72-11.45,8.928,8.928,0,0,1-3.812-7.313,8.944,8.944,0,0,1,8.934-8.934,8.944,8.944,0,0,1,8.934,8.934,8.927,8.927,0,0,1-3.812,7.313,11.9,11.9,0,0,1,8.721,11.45,1.116,1.116,0,0,1-1.116,1.116,1.116,1.116,0,0,1-1.116-1.116,9.658,9.658,0,0,0-9.647-9.647h-3.926a9.658,9.658,0,0,0-9.647,9.647,1.116,1.116,0,0,1-1.116,1.116A1.116,1.116,0,0,1-2274.061-2920.3Zm13.842-12.062a6.709,6.709,0,0,0,6.7-6.7,6.709,6.709,0,0,0-6.7-6.7,6.709,6.709,0,0,0-6.7,6.7A6.709,6.709,0,0,0-2260.219-2932.357Z" transform="translate(2305.27 2957.49)" fill="#fff" stroke="#f21289" stroke-width="1"/>
  </g>
</svg>
 