<svg xmlns="http://www.w3.org/2000/svg" width="82.169" height="100.98" viewBox="0 0 82.169 100.98">
  <g id="Group_158" data-name="Group 158" transform="translate(3597.582 7970.921)">
    <path id="Path_1438" data-name="Path 1438" d="M-3530.806-7909.12v-1.01a1.684,1.684,0,0,1,1.684-1.684h10.1a1.683,1.683,0,0,1,1.683,1.684v10.1a1.682,1.682,0,0,1-1.683,1.682h-7.947a6.28,6.28,0,0,1-4.467,3.015,6.4,6.4,0,0,1,.364,2.035,6.317,6.317,0,0,1-4.657,6.145l2.764,2.764a6.382,6.382,0,0,1,1.632,2.872h37.556v-69a5.049,5.049,0,0,0-5.049-5.049h-5.049v5.049a1.683,1.683,0,0,1-1.683,1.682h-20.2a1.682,1.682,0,0,1-1.683-1.682v-5.049h-5.049a5.048,5.048,0,0,0-5.049,5.049v35.92a6.487,6.487,0,0,1,2.878,1.629Zm10.1,24.235h-3.366v-3.366h3.366Zm6.732,0h-3.367v-3.366h3.367Zm6.731,0h-3.366v-3.366h3.366Zm6.732-15.146a1.682,1.682,0,0,1-1.683,1.682h-10.1a1.682,1.682,0,0,1-1.683-1.682v-10.1a1.683,1.683,0,0,1,1.683-1.684h10.1a1.683,1.683,0,0,1,1.683,1.684Zm0-52.174h3.366v3.365h-3.366Zm-10.1,10.1h3.366v3.366h-3.366Zm-1.683,13.464h10.1a1.683,1.683,0,0,1,1.683,1.684v10.1a1.683,1.683,0,0,1-1.683,1.684h-10.1a1.683,1.683,0,0,1-1.683-1.684v-10.1A1.683,1.683,0,0,1-3512.293-7928.643Zm-5.049-13.464h3.367v3.366h-3.367Zm-6.731,0h3.366v3.366h-3.366Zm-6.732,15.147a1.684,1.684,0,0,1,1.684-1.684h10.1a1.683,1.683,0,0,1,1.683,1.684v10.1a1.683,1.683,0,0,1-1.683,1.684h-10.1a1.684,1.684,0,0,1-1.684-1.684Z" transform="translate(-46.878 -11.985)" fill="#0ed8d0"/>
    <rect id="Rectangle_40" data-name="Rectangle 40" width="6.732" height="6.732" transform="translate(-3574.318 -7937.261)" fill="#090c4b" style="mix-blend-mode: screen;isolation: isolate"/>
    <path id="Path_1439" data-name="Path 1439" d="M-3484.755-7733.932v-6.731h-6.732v2.8a6.411,6.411,0,0,1,1.41,3.933Z" transform="translate(-82.831 -179.767)" fill="#090c4b" style="mix-blend-mode: screen;isolation: isolate"/>
    <rect id="Rectangle_41" data-name="Rectangle 41" width="16.83" height="3.366" transform="translate(-3570.952 -7967.555)" fill="#00226a"/>
    <path id="Path_1440" data-name="Path 1440" d="M-3569.9-7823.667a3.086,3.086,0,0,0-1.769-.587,2.386,2.386,0,0,0-.818.141,3.177,3.177,0,0,0-2.112,2.335,3.093,3.093,0,0,0,.813,2.861l3.886,3.886Z" transform="translate(-17.885 -114.506)" fill="#00497f"/>
    <rect id="Rectangle_42" data-name="Rectangle 42" width="6.732" height="6.732" transform="translate(-3557.488 -7920.431)" fill="#090c4b" style="mix-blend-mode: screen;isolation: isolate"/>
    <rect id="Rectangle_43" data-name="Rectangle 43" width="6.732" height="6.732" transform="translate(-3557.488 -7937.261)" fill="#090c4b" style="mix-blend-mode: screen;isolation: isolate"/>
    <path id="Path_1441" data-name="Path 1441" d="M-3493.78-7597.46v-5.049h-37.556a6.347,6.347,0,0,1-6.188,4.754h-.014v.295a5.049,5.049,0,0,0,5.049,5.049h33.661A5.049,5.049,0,0,0-3493.78-7597.46Zm-18.513,1.683h-6.732v-3.366h6.732Z" transform="translate(-46.878 -287.628)" fill="#00226a"/>
    <path id="Path_1442" data-name="Path 1442" d="M-3389.584-7725.517l-3.366-13.464a1.7,1.7,0,0,1-.034-.646l1.645-11.508-3.317-18.246c-.153-1-.831-1.984-1.71-1.984a1.683,1.683,0,0,0-1.683,1.674v40.4a8.425,8.425,0,0,1-8.415,8.415h-12.767l3.366,3.366h33.949l-7.225-7.226A1.685,1.685,0,0,1-3389.584-7725.517Z" transform="translate(-139.242 -155.798)" fill="#00497f"/>
    <path id="Path_1443" data-name="Path 1443" d="M-3569.916-7646.979l-6.731-6.73a3.079,3.079,0,0,0-4.174,0,3.079,3.079,0,0,0-.173,4.351l6.732,6.732h0a3.078,3.078,0,0,0,4.259,0A3.08,3.08,0,0,0-3569.916-7646.979Z" transform="translate(-12.312 -247.018)" fill="#00497f"/>
    <path id="Path_1444" data-name="Path 1444" d="M-3551.244-7742.253a3.088,3.088,0,0,0,4.08-.258,2.9,2.9,0,0,0,.7-1.084,3.044,3.044,0,0,0,.207-1.09,3.116,3.116,0,0,0-.915-2.188l-6.722-6.72a3.073,3.073,0,0,0-2.169-.887,3.218,3.218,0,0,0-2.188.887h0a3.1,3.1,0,0,0-.9,2.176,3.055,3.055,0,0,0,.9,2.175Z" transform="translate(-30.003 -168.981)" fill="#00497f"/>
    <path id="Path_1445" data-name="Path 1445" d="M-3570.306-7704.346a3.077,3.077,0,0,0,.093-4.352l-6.982-6.963a3.062,3.062,0,0,0-1.908-.674,3.083,3.083,0,0,0-2.185.9,3.079,3.079,0,0,0,0,4.355l6.727,6.731A3.078,3.078,0,0,0-3570.306-7704.346Z" transform="translate(-12.015 -198.762)" fill="#00497f"/>
    <rect id="Rectangle_44" data-name="Rectangle 44" width="3.366" height="3.366" transform="translate(-3570.952 -7954.091)"/>
    <rect id="Rectangle_45" data-name="Rectangle 45" width="3.366" height="3.366" transform="translate(-3564.22 -7954.091)"/>
    <rect id="Rectangle_46" data-name="Rectangle 46" width="3.366" height="3.366" transform="translate(-3557.488 -7954.091)"/>
    <rect id="Rectangle_47" data-name="Rectangle 47" width="3.366" height="3.366" transform="translate(-3547.39 -7964.189)"/>
    <path id="Path_1446" data-name="Path 1446" d="M-3515.906-7872.813l-9.761-9.762-3.173-12.691,1.636-11.444a1.727,1.727,0,0,0-.01-.54l-3.366-18.466a5.325,5.325,0,0,0-5.029-4.812,5,5,0,0,0-1.675.308V-7962.5a8.426,8.426,0,0,0-8.415-8.416h-33.668a8.426,8.426,0,0,0-8.415,8.416v20.646a5.909,5.909,0,0,0-3.748.076,6.528,6.528,0,0,0-4.238,4.77,6.441,6.441,0,0,0,1.72,5.97l4.975,4.975a6.29,6.29,0,0,0-3.095,7.715,6.4,6.4,0,0,0-3.524,1.782,6.436,6.436,0,0,0-.01,9.1l.01.011,2.753,2.753a6.363,6.363,0,0,0-2.757,1.6,6.45,6.45,0,0,0,0,9.112l6.732,6.731a6.461,6.461,0,0,0,1.178.912v1.264a8.426,8.426,0,0,0,8.415,8.416h16.134l6.238,6.238a1.684,1.684,0,0,0,1.194.493h38.708a1.684,1.684,0,0,0,1.555-1.038h0A1.685,1.685,0,0,0-3515.906-7872.813Zm-55.046-94.74h16.83v3.365h-16.83Zm-13.464,28.61V-7962.5a5.049,5.049,0,0,1,5.049-5.049h5.049v5.049a1.682,1.682,0,0,0,1.683,1.682h20.2a1.683,1.683,0,0,0,1.683-1.682v-5.049h5.049a5.048,5.048,0,0,1,5.049,5.049v69h-37.556a6.371,6.371,0,0,0-1.633-2.873l-2.763-2.764a6.319,6.319,0,0,0,4.657-6.145,6.4,6.4,0,0,0-.364-2.035,6.283,6.283,0,0,0,4.467-3.015h7.947a1.682,1.682,0,0,0,1.683-1.682v-10.1a1.683,1.683,0,0,0-1.683-1.684H-3576a1.683,1.683,0,0,0-1.683,1.684v1.01l-3.854-3.853a6.5,6.5,0,0,0-2.878-1.63Zm10.1,21.312v-2.8h6.732v6.732h-5.322A6.416,6.416,0,0,0-3574.318-7917.632Zm-17.35-15.791a3.092,3.092,0,0,1-.813-2.861,3.177,3.177,0,0,1,2.112-2.335,2.41,2.41,0,0,1,.818-.141,3.086,3.086,0,0,1,1.769.587v8.636Zm3.41,10.85h0a3.221,3.221,0,0,1,2.188-.887,3.077,3.077,0,0,1,2.169.887l6.722,6.721a3.114,3.114,0,0,1,.916,2.188,3.078,3.078,0,0,1-.207,1.092,2.9,2.9,0,0,1-.7,1.083,3.088,3.088,0,0,1-4.08.258l-7-6.989a3.06,3.06,0,0,1-.9-2.175A3.107,3.107,0,0,1-3588.258-7922.573Zm-5.049,12.733a3.08,3.08,0,0,1,0-4.355,3.084,3.084,0,0,1,2.185-.9,3.062,3.062,0,0,1,1.908.674l6.982,6.963a3.078,3.078,0,0,1-.093,4.352,3.078,3.078,0,0,1-4.259,0Zm6.727,20.2h0l-6.732-6.731a3.078,3.078,0,0,1,.172-4.35,3.078,3.078,0,0,1,4.175,0l6.731,6.733a3.078,3.078,0,0,1-.093,4.352A3.078,3.078,0,0,1-3586.58-7889.644Zm7.213,9.6a5.049,5.049,0,0,1-5.049-5.049v-.294h.013a6.349,6.349,0,0,0,6.189-4.755h37.556v5.049a5.048,5.048,0,0,1-5.049,5.049Zm24.259,6.732-3.366-3.365h12.767a8.426,8.426,0,0,0,8.415-8.416v-40.4a1.683,1.683,0,0,1,1.683-1.673c.878,0,1.557.986,1.71,1.984l3.317,18.245-1.644,11.508a1.706,1.706,0,0,0,.034.646l3.366,13.464a1.677,1.677,0,0,0,.443.782l7.225,7.226Z" transform="translate(0)" fill="#002158"/>
    <rect id="Rectangle_48" data-name="Rectangle 48" width="6.732" height="3.366" transform="translate(-3565.903 -7886.771)" fill="#0ed8d0"/>
    <path id="Path_1447" data-name="Path 1447" d="M-3505.154-7819.3h10.1a1.683,1.683,0,0,0,1.683-1.684v-10.1a1.684,1.684,0,0,0-1.683-1.684h-10.1a1.684,1.684,0,0,0-1.683,1.684v10.1A1.683,1.683,0,0,0-3505.154-7819.3Zm1.683-10.1h6.732v6.731h-6.732Z" transform="translate(-70.847 -107.86)" fill="#ee0790"/>
    <path id="Path_1448" data-name="Path 1448" d="M-3430.085-7820.986a1.683,1.683,0,0,0,1.683,1.684h10.1a1.683,1.683,0,0,0,1.683-1.684v-10.1a1.684,1.684,0,0,0-1.683-1.684h-10.1a1.684,1.684,0,0,0-1.683,1.684Zm3.366-8.414h6.732v6.731h-6.732Z" transform="translate(-130.769 -107.86)" fill="#ee0790"/>
    <path id="Path_1449" data-name="Path 1449" d="M-3418.3-7756.015h-10.1a1.683,1.683,0,0,0-1.683,1.683v10.1a1.683,1.683,0,0,0,1.683,1.683h10.1a1.682,1.682,0,0,0,1.683-1.683v-10.1A1.683,1.683,0,0,0-3418.3-7756.015Zm-1.684,10.1h-6.732v-6.732h6.732Z" transform="translate(-130.769 -167.782)" fill="#ee0790"/>
    <rect id="Rectangle_49" data-name="Rectangle 49" width="3.366" height="3.366" transform="translate(-3570.952 -7900.235)"/>
    <rect id="Rectangle_50" data-name="Rectangle 50" width="3.366" height="3.366" transform="translate(-3564.22 -7900.235)"/>
    <rect id="Rectangle_51" data-name="Rectangle 51" width="3.366" height="3.366" transform="translate(-3557.488 -7900.235)"/>
  </g>
</svg>
