<svg xmlns="http://www.w3.org/2000/svg" xmlns:xlink="http://www.w3.org/1999/xlink" width="83.538" height="87.641" viewBox="0 0 83.538 87.641">
  <defs>
    <filter id="Path_1507" x="0" y="0" width="83.538" height="87.641" filterUnits="userSpaceOnUse">
      <feOffset input="SourceAlpha"/>
      <feGaussianBlur stdDeviation="3" result="blur"/>
      <feFlood flood-color="#f21289"/>
      <feComposite operator="in" in2="blur"/>
      <feComposite in="SourceGraphic"/>
    </filter>
  </defs>
  <g transform="matrix(1, 0, 0, 1, 0, 0)" filter="url(#Path_1507)">
    <path id="Path_1507-2" data-name="Path 1507" d="M-4244.891-3795.312h-.1v-9.278a1.248,1.248,0,0,0-1.249-1.249h-4.274l.819-.959a10.461,10.461,0,0,0,1.128-11.959l-.989-1.731-.138-2.081c-.229-3.467-1.875-5.766-4.893-6.835a9.647,9.647,0,0,0-6.3,0l-1.027.349-2.945-1.3a1.254,1.254,0,0,0-.273-.084c-3.462-.647-6.328-.129-8.287,1.5a6.637,6.637,0,0,0-1.1,1.168,7.531,7.531,0,0,0-1.484-1.207l.71-1.306a9.2,9.2,0,0,1,1.868-.828,12.261,12.261,0,0,1,2.8-.325,1.25,1.25,0,0,0,1.264-1.233,1.249,1.249,0,0,0-1.233-1.264,15.559,15.559,0,0,0-2.865.266l1.14-2.1a3.046,3.046,0,0,0,.246-2.337,3.05,3.05,0,0,0-1.479-1.827l-.015-.008a3.051,3.051,0,0,0-2.337-.246,3.05,3.05,0,0,0-1.827,1.479l-1.171,2.155a20.514,20.514,0,0,0-1.609-3.864,1.248,1.248,0,0,0-1.692-.5,1.248,1.248,0,0,0-.5,1.693,13.167,13.167,0,0,1,1.533,4.109,14.066,14.066,0,0,1-.5,3.041l-.055-.03a7.576,7.576,0,0,0-3.609-.92,7.569,7.569,0,0,0-6.656,3.956,7.6,7.6,0,0,0-.792,2.235l-.24,1.295a7.521,7.521,0,0,0-2.11-.431v-1.488a9.181,9.181,0,0,1,1.247-1.619,12.234,12.234,0,0,1,2.309-1.624,1.249,1.249,0,0,0,.522-1.687,1.249,1.249,0,0,0-1.687-.522,15.516,15.516,0,0,0-2.39,1.6v-2.387a3.074,3.074,0,0,0-3.071-3.071h-.017a3.074,3.074,0,0,0-3.071,3.071v2.454a20.52,20.52,0,0,0-3.259-2.628,1.248,1.248,0,0,0-1.727.367,1.249,1.249,0,0,0,.366,1.727,13.143,13.143,0,0,1,3.309,2.878,14,14,0,0,1,1.009,2.912h-.063a7.578,7.578,0,0,0-7.569,7.569,7.555,7.555,0,0,0,.372,2.342l3.328,10.227h-1.739a1.249,1.249,0,0,0-1.249,1.249v30.717a1.249,1.249,0,0,0,1.249,1.249h61.026a1.248,1.248,0,0,0,1.249-1.249v-18.941h.1Zm-26.934-31.7c1.345-1.117,3.45-1.458,6.093-.99l3.256,1.432a1.248,1.248,0,0,0,.9.039l1.487-.506a7.141,7.141,0,0,1,4.661-.014c2.074.735,3.071,2.168,3.235,4.647l.157,2.368a1.242,1.242,0,0,0,.162.537l1.132,1.981a7.959,7.959,0,0,1-.858,9.1l-2.207,2.581h-5.478l5-7.628a1.248,1.248,0,0,0-.347-1.72l-3.322-2.238a1.25,1.25,0,0,0-.975-.182,1.25,1.25,0,0,0-.8.586l-.8,1.357.874-6.943a1.25,1.25,0,0,0-.261-.932,1.251,1.251,0,0,0-.849-.466l-4.543-.475a1.246,1.246,0,0,0-.948.3,1.251,1.251,0,0,0-.43.9l-.091,2.393h-2.8a1.249,1.249,0,0,0-1.249,1.249v2.96a9.9,9.9,0,0,0-3.333-2.881,1.247,1.247,0,0,0,.541-1.028v-1.7A5.817,5.817,0,0,1-4271.824-3827.012Zm8.438,21.173,5.142-8.771,1.2.806-5.217,7.965Zm-27.438,0a7.345,7.345,0,0,1,4.387-6.467,7.283,7.283,0,0,1,2.946-.616,7.375,7.375,0,0,1,5.664,2.678,5.693,5.693,0,0,0-1.968,4.321c0,.028,0,.055,0,.083Zm19.416-5.155a5.733,5.733,0,0,0-2.657-.659,5.687,5.687,0,0,0-1.527.208,9.886,9.886,0,0,0-7.9-3.974,9.987,9.987,0,0,0-1.067.058,7.313,7.313,0,0,1,5.814-2.849A7.346,7.346,0,0,1-4271.409-3810.994Zm3.091,5.087v-12.488h.893v12.488Zm5.626-6.057-2.236,3.815v-1.837a1.246,1.246,0,0,0,.271-.728l.424-11.143,1.948.2-1.062,8.431A1.248,1.248,0,0,0-4262.692-3811.964Zm-14.6,6.125c0-.028,0-.056,0-.083a3.215,3.215,0,0,1,1.782-2.889,3.171,3.171,0,0,1,1.448-.344,3.207,3.207,0,0,1,2.6,1.31,3.2,3.2,0,0,1,.635,1.923c0,.028,0,.055,0,.083Zm1.76-31.668a.575.575,0,0,1,.778-.23l.015.008a.574.574,0,0,1,.23.778l-3.633,6.686-1.022-.556Zm-14.8,11.137a5.113,5.113,0,0,1,.532-1.5,5.072,5.072,0,0,1,4.461-2.65,5.071,5.071,0,0,1,2.417.616l5.337,2.9a5.033,5.033,0,0,1,1.862,1.744,10.927,10.927,0,0,0-.382,2.967v1.7a1.218,1.218,0,0,0,.026.255,9.8,9.8,0,0,0-2.666-.37,9.8,9.8,0,0,0-9.2,6.356,9.9,9.9,0,0,0-1.026.6l.687-2.5a7.579,7.579,0,0,0,.27-2v-.152a7.556,7.556,0,0,0-2.715-5.8Zm-8.466-7.318a.574.574,0,0,1,.573-.573h.017a.574.574,0,0,1,.573.573v7.609h-1.164Zm-6.911,19.226h6.911v-2.5h-7.719a5.054,5.054,0,0,1-.215-1.449,5.077,5.077,0,0,1,5.072-5.072h6.074a5.077,5.077,0,0,1,5.071,5.072v.152a5.08,5.08,0,0,1-.18,1.341l-1.754,6.4h-8.253v2.5h7.568l-.6,2.181h-9.171Zm58.218,29.067h-39.26v2.5h39.26v7.775h-58.528v-7.928h9.561v-2.5h-9.561v-7.267h35.955v-2.5h-35.955v-8.03h43.987a1.239,1.239,0,0,0,.4.068,1.254,1.254,0,0,0,.4-.068h13.743v8.03h-11.646v2.5h11.646Z" transform="translate(4318.83 3850.67)" fill="#fff" stroke="#f21289" stroke-width="1.2"/>
  </g>
</svg>
